<svg xmlns="http://www.w3.org/2000/svg" fill="currentColor" viewbox="0 0 24 24" width="24" height="24" class="w-6 h-6" style="color:#FFFFFF"><path fill-rule="evenodd" d="M19.5565 2C20.9051 2 22 3.09492 22 4.44352V19.5565C22 20.9051 20.9051 22 19.5565 22H4.44352C3.09492 22 2 20.9051 2 19.5565V4.44352C2 3.09492 3.09488 2 4.44352 2H19.5565ZM8.26801 18.5343V9.71723H5.33676v8.81707h2.93125Zm10.56789 0v-5.0562c0-2.7083-1.446-3.96822-3.3742-3.96822-1.5549 0-2.2513.85512-2.6413 1.45572V9.71723H9.88988c.03887.82737 0 8.81707 0 8.81707h2.93052v-4.9241c0-.2636.0189-.527.0966-.7154.2115-.5264.694-1.0716 1.5037-1.0716 1.0599 0 1.4846.8088 1.4846 1.9936v4.7175h2.9306ZM6.82219 5.4657c-1.00289 0-1.65813.65934-1.65813 1.52352 0 .84601.63532 1.52351 1.61934 1.52351 1.02207 0 1.67719-.6775 1.67719-1.52351-.01895-.86297-.63442-1.52164-1.6384-1.52352Z" clip-rule="evenodd" /></svg>