<svg xmlns="http://www.w3.org/2000/svg" fill="currentColor" viewbox="0 0 24 24" width="24" height="24" class="w-6 h-6" style="color:#FFFFFF"><path d="M19.619 2H4.38095C3.0681 2 2 3.0681 2 4.38095V19.619C2 20.9319 3.0681 22 4.38095 22H19.619C20.9319 22 22 20.9319 22 19.619V4.38095C22 3.0681 20.9319 2 19.619 2Zm-1.9019 8.7252c-.1081.01-.2176.0167-.3285.0167-1.2491 0-2.3467-.6424-2.9853-1.61333v5.49383c0 2.2424-1.8181 4.0605-4.0604 4.0605-2.24242 0-4.06052-1.8181-4.06052-4.0605s1.8181-4.0605 4.06052-4.0605c.0847 0 .1676.0076.2509.0129v2.0009c-.0833-.01-.1652-.0252-.2509-.0252-1.1448 0-2.07242.9276-2.07242 2.0724 0 1.1447.92762 2.0723 2.07242 2.0723 1.1447 0 2.1557-.9019 2.1557-2.0466 0-.0453.02-9.3305.02-9.3305h1.9124c.18 1.71 1.5604 3.05952 3.2861 3.18333v2.22377Z" /></svg>