<svg xmlns="http://www.w3.org/2000/svg" fill="currentColor" viewbox="0 0 24 24" width="24" height="24" class="w-6 h-6" style="color:#FFFFFF"><path fill-rule="evenodd" d="M21.0053 5.6191c.5996.6477.7946 2.11879.7946 2.11879S22 9.46405 22 11.1908v1.618c0 1.7268-.2001 3.453-.2001 3.453s-.1956 1.4705-.7946 2.1169c-.6859.7654-1.4461.8449-1.8754.8897-.0469.0049-.0899.0094-.1283.0143-2.799.2145-7.0016.222-7.0016.222s-5.20038-.0507-6.80025-.2145c-.07572-.0151-.16746-.0268-.27131-.0402-.50666-.0651-1.3018-.1673-1.93375-.8719-.59957-.6465-.79463-2.1169-.79463-2.1169S2 14.5356 2 12.8082v-1.618c0-1.72615.20006-3.45231.20006-3.45231s.19569-1.47109.79463-2.11879c.68895-.76815 1.4516-.84541 1.88002-.88881.04511-.00457.08651-.00876.12373-.01335C7.79681 4.5 11.995 4.5 11.995 4.5h.0094s4.1982 0 6.9972.21694c.0372.00459.0786.00879.1238.01336.4285.0434 1.1916.12069 1.8799.8888Zm-5.251 6.3832-6.25196 3.7512V8.25117l6.25196 3.75113Z" clip-rule="evenodd" /></svg>