<svg xmlns="http://www.w3.org/2000/svg" version="1.1" viewBox="-5.0 -10.0 110.0 135.0">
 <path d="m68.898 10c-16.598-1.1016-26.898 8.5-29.199 12.102-3.1016 4.8008-5.5 1.1016-13.801 2.3984-8.3008 1.3008-13.199 5.6992-13.398 14.199 0 2.1992 0.80078 4.3984 2.1992 6.1992-3.5 8.6016-7.8008 21.102-9.5977 33.5-0.5 2.6016 2.1016 1.8008 2.6992 0.30078 0.80078-2 5.3984-17.398 11.801-30 1.6016 0.60156 4.3008 1.3984 6.1016 1.3008 4.3008-0.19922 8.8984-2.6992 11.5-1.6016 2.6016 1.1016 16.398 8.1016 18.801 8.6016 2.8984 0.69922 8.6016 5.3984 8.6016 6.6992s0.19922 3.3008 0.19922 5.6016c0 2.1016 1.3984 3.6992 3.5 4.5-0.30078 1.6016-1.1016 5.3008-2.8008 7.1992-2.1992 2.6016-9.8984 3.3008-9.8984 5.8984 0 2.3984 6 1 6.8984 0.80078-0.30078 0.10156-0.80078 0.39844-0.19922 1.8008 1.1016 2.6016 7.6992-4.8008 7.6992-4.8008l3.3008-10.301c2-0.19922 3.8008-1 4.8008-2.6016 1.8008-2.8984 2.5-4.6992 4-7.3984 1.8008-3.3008 12.5-9.8984 12.898-25 0.39453-14.898-9.6055-28.297-26.105-29.398z"/>
</svg>