<svg xmlns="http://www.w3.org/2000/svg" xmlns:xlink="http://www.w3.org/1999/xlink" version="1.1" x="0px" y="0px" viewBox="0 0 100 100" style="enable-background:new 0 0 100 100;" xml:space="preserve"><title>Artboard</title><desc>Created with Sketch.</desc><g><path d="M55.1,54.5l0.2-0.2l-0.6-0.1l-0.1-0.3l0.3-0.3l-0.4-0.1l0.1-0.2l0.3-0.3l-0.5,0.2l-0.2,0.3l-0.8-0.1   l-0.5,0.4l-0.2-0.2c0,0-0.1-0.3,0.1-0.7c0.1-0.3,0.1-0.5,0.1-0.5s0.2-0.5,0.2-0.7c0-0.3-0.1-0.3-0.1-0.3s-0.4,0.4-0.5-0.2   c-0.1-0.9,0.4-1.2,0.4-1.2L52.8,50c0,0-0.5,0.3-0.9,0.5c-0.4,0.2-1.2,0.7-1.2,1.2c0,0.5-0.6,1.5-0.6,1.5s-0.5,0.4-0.6,0.6   c-0.1,0.2-0.8,0.7-1,0.6c-0.2,0-0.5-0.1-0.5-0.1s-0.2,0.7-0.5,1.1c-0.4,0.4-0.5,0.6-0.7,1.1c-0.1,0.4-0.4,0.5-0.6,0.8   c-0.2,0.2-0.5,0.7-0.8,0.8c-0.3,0.1-0.4,0.5-0.9,0.8c-0.8,0.4-0.9,0.2-0.9,0.2l-0.3,0.3L43,59.1l-0.4,0.4l-0.9,0.6L41.5,60   c0,0-0.5,0.3-0.6,0.5c-0.2,0.2-0.6,0.2-0.6,0.2l-0.3,0l-0.3,0.3l-0.2,0l-0.8,0.5l-0.2,0L38,61.7l-0.3-0.1l-0.1-0.2l-0.3,0.1   l-0.4-0.1L36.4,62l-0.3,0.1l-0.3,0.1l0.1,0.2l-0.3,0.1l-0.1,0.3c0,0-0.4,0-0.5,0.3c-0.1,0.3-0.2,0.4-0.2,0.4l-0.2-0.1   c0,0-0.6,0.2-0.8,0.4c-0.2,0.2-0.8,0.3-1.2,0.6c-0.3,0.3-0.8,0.7-1.1,0.9c-0.2,0.2-0.3,0.3-0.3,0.3l0.2,0.4l-0.3-0.3   c0,0-0.2,0.1-0.3,0.3c-0.1,0.2-0.6,0.8-0.6,0.8v0.3c0,0-0.3-0.2-0.6,0.1c-0.3,0.3,0.1,0.2,0.1,0.2l0,0.4c0,0-0.4-0.2-0.6,0.3   C29,68.7,29,68.9,29,68.9l0.2,0.1c0,0,0.2-0.3,0.3-0.2c0.1,0.1-0.6,0.6-0.3,0.5c0.4-0.1,0.4-0.1,0.4-0.1l-0.5,0.5l0.1,0.4   c0,0,0.5,0.2,0.7,0.4c0.2,0.2,0.8,0.5,0.9,0.3c0.1-0.2,0.2-0.5,0.4-0.2c0.3,0.2,0.3,0.9,0.3,0.9l-0.1,0.1c0,0,0.1,0.5,0.3,0.5   c0.2-0.1,0.3-0.1,0.3-0.1l0.1,0.2c0,0,0.2-0.5,0.4-0.1c0.1,0.4,0,0.8,0,0.8h0.2l-0.2,0.5l0.3,0.1l0.2,0.5l0.4,0   c0,0,0.5,0.5,0.9,0.5c0.3,0,0.7,0,0.7,0l0.4-0.3l0.1,0.2l0.8-0.3c0,0,0-0.6,0.2-0.6c0.2,0,1.2-0.5,1.3-0.6c0.1-0.2,0.3-0.6,0.7-0.7   c0.4-0.1,0.6-0.1,0.6-0.1l0.2,0.1l0.4-0.5L39.2,72l0.5-0.3l0-0.6l0.3-0.1l0.2-0.2l0.2-0.2l0.3-0.8c0,0,0.3-0.5,0.7-0.8   c0.4-0.3,0.8-0.7,0.9-1.1c0.1-0.4,0.6-1.9,1.3-2.3c0.8-0.4,1.8-0.8,2.4-0.8c0.6-0.1,0.7-0.1,0.7-0.1l0.1-0.4l0.4-0.3l0,0.3l0.3,0.2   l-0.5,0.1l0.6,0.2c0,0,0.2,0.7,0.6,0.6c0.3-0.1,0.8-0.6,0.5-1c-0.3-0.4-0.4-0.5-0.4-0.5l-0.5,0l0.5-0.2l-0.1-0.3   c0,0,0.1-1.4,0.9-1.6c0.8-0.2,1.2-0.2,1.5-0.6c0.3-0.4,1-1.2,1-1.2s0-0.4,0.3-0.4c0.3-0.1,0.3-0.2,0.3-0.2l0.2-0.2l0.8-0.6l0.2-0.3   l1.5-1.4l-0.1-0.7c0,0-0.4-0.4-0.1-0.8c0.3-0.3,0.4-0.4,0.4-0.4s0.1,0.2,0.3,0c0.2-0.1,0.2-0.3,0.2-0.3l-0.3-0.1L55.1,54.5z    M55.4,53.6l-0.1,0.2l-0.2-0.1l-0.3,0.1l0,0.2l0.6,0.1l0,0.2l0.3-0.2L55.5,54l0.2-0.4l-0.2-0.1L55.4,53.6z M64.3,36.7l-0.3,0   l0.2,0.3l0.2,0l0.1-0.3L64.3,36.7z M32.6,74.4c0,0.2,0.2-0.2,0.2-0.2S32.6,74.3,32.6,74.4z M64.4,37.3c0,0,0.2-0.3,0-0.2   C64.3,37.1,64.4,37.3,64.4,37.3z M71.1,43.2c-0.3-0.1-0.1-0.4-0.1-0.4l-0.8-0.3c0,0-0.2,0.3-0.6,0.3c-0.4,0-1,1.1-1.4,0.9   c-0.4-0.2-0.8-0.2-0.8-0.2s-0.2-0.4-0.6-0.7c-0.4-0.3-0.6-1.1-0.9-1.3c-0.3-0.2-0.6-0.3-0.6-0.3L65.4,41l0.2,0.1l-0.1-0.8l0.1-0.4   l-0.1-0.4c0,0,0.5-1,0.4-1.3c0-0.3,0-0.5,0-0.5l-0.2-0.1l0.4-0.2L66,36.9l-0.3,0.2l0-0.6L65.6,36c0,0-0.2-0.5-0.4-0.2   c-0.1,0.4,0.2,0.6,0.2,0.6l-0.2,0.3l0.1,0.4c0,0-0.3,0-0.4,0.4C64.9,38,65,38.5,65,38.5s-0.8,0.7-0.7,0.1c0.2-0.5,0.3-0.5,0.3-0.5   s0.4-0.6,0-0.6c-0.4-0.1-0.4,0-0.4,0l-0.1-0.3l-0.2,0l-0.2-0.5l0.2-0.2l-0.2-0.5c0,0,0-0.4,0.2-0.8c0.2-0.4,0.2-0.4,0.2-0.4   l0.3,0.2l-0.1-0.4l0.2-0.2l-0.2-0.2l-0.1-0.6l0.1-0.3c0,0-0.5-0.1-0.2-0.6c0.3-0.5,0.2-0.4,0.2-0.4L63.9,32l0.3,0.2   c0,0-0.1,0.2,0.1,0.3c0.2,0,0-0.5,0.1-0.5c0.2-0.1,0-0.5,0.1-0.6c0.1-0.1,0.1-0.4,0-0.6c-0.1-0.3,0.1-0.5,0.1-0.5l-0.1-0.4l0.3-0.4   c0,0-0.7,0.4-0.7,0.2c0-0.2,0-0.3,0-0.3l0.2-0.1L64.2,29c0,0-0.3-0.1-0.2-0.3c0.1-0.2,0-0.4-0.2-0.4c-0.2-0.1-0.2,0-0.2,0l0-0.2   L63,27.7l0.2-0.2L63,27.3l-0.4,0.1l-0.2-0.1l0.1-0.5c0,0-0.2-0.3-0.1-0.6c0-0.3-0.3-0.7,0-0.6c0.2,0,0.2,0.2,0.2,0.2l0.3-0.5   l-0.3,0l-0.2,0L61.7,25l-0.1,0.2c0,0,0.2,0.5,0.4,1.3c0.1,0.8,0,1.3,0,1.3l0.1,0.2l-0.2,0.5l-0.3,0c0,0,0.2,1.1,0.3,1.9   c0.1,0.8,0.5,3.3,0.4,3.5c-0.1,0.2-0.1,0.3-0.1,0.3l0.4,0l0.2-0.4l-0.1-0.5l0.1,0.1l0.1,0.4l0.1-0.1l-0.2,0.6l0.3,0.3L63,35.4   l-0.2,0.1l0-0.4l-0.1-0.6c0,0-0.4-0.2-0.3,0.3c0.1,0.5,0.3,1,0.1,1.4c-0.1,0.4-0.1,1.1-0.1,1.1l0.5-0.3l0.3-0.2l-0.1,0.4l0.3,0.3   l-0.6,0.3l0.1-0.5c0,0-0.5-0.2-0.5,0.4c0.1,0.6,0,1,0,1l-0.1,0.4c0,0,0.1,1-0.1,1.3c-0.2,0.3-0.3,0.3-0.3,0.3l-0.3,1l0.3,0L61.7,42   l-0.3-0.2l-0.3,0.8l-0.3,0.2c0,0-0.7,1.8-1,1.9c-0.3,0.1-0.6,0.3-0.6,0.3l-0.6,0c0,0-1.2,0.2-1.3,0.9c-0.1,0.8-0.2,0.9,0.2,1.2   c0.4,0.3,0.7,0.5,0.7,0.5v0.5l0.1,0.2c0,0,0.2,0.5,0.4,0.7c0.3,0.2,0.6,0.2,0.7,0.8c0.1,0.6,0.1,1.5-0.5,2.6c-0.6,1.1-1,1.1-1,1.1   l-0.3,0.5L57,54.6l-0.2,0.3l-0.4,0.1c0,0-0.1,0.6,0.1,0.5c0.2,0,0.5-0.3,0.5-0.3l-0.3,0.6l0.1,0.3l0.4-0.1l0.2,0.4c0,0-0.3,1,0,0.9   c0.4-0.1,1-0.5,1.3-0.5c0.3,0,0.4-0.2,0.4-0.2l0.1-0.2l0.3-0.1l0.2-0.3l0.2-0.1c0,0,0.3-0.6,0.6-0.7c0.3-0.1,0.2-0.2,0.2-0.2   s0.2-0.4,0.7-0.9c0.7-0.7,0.9-0.5,0.9-0.5s0.4-0.9,0.7-1c0.3-0.1,0.5-0.2,0.5-0.2s0.2-0.7,0.5-0.8c0.3-0.1,0.3-0.1,0.3-0.1   s-0.2-0.2,0.1-0.6c0.3-0.4,0.4-0.5,0.4-0.5s-0.4,0-0.2-0.5c0.1-0.5-0.1-0.4,0.4-0.8c0.5-0.4,0-0.7,0.8-0.8c0.8-0.1,1.5,0.2,1.5,0.2   l0.3,0.1l-0.2,0.4l0,0.4L68,49c0,0-0.4-0.3-0.1-0.6c0.3-0.3,0.3-1.1,0.6-1.1c0.3,0,0.6,0,0.8-0.2c0.2-0.2,0.3-0.2,0.3-0.2l0.1-0.4   l0.2-0.2c0,0,0-0.3,0.1-0.5c0.1-0.2,0.2-0.4,0.2-0.4s0.3-0.3,0.2-0.3c-0.1-0.1-0.1-0.3,0.1-0.3c0.2,0,0.1-0.4,0.4-0.6   c0.3-0.2,0.5-0.5,0.5-0.5S71.4,43.3,71.1,43.2L71.1,43.2z M31.4,74.9l-0.2-0.4l0.2,0.1c0,0,0.3,0.1,0.2-0.2   c-0.1-0.3-0.1-0.5-0.1-0.5s0.1-0.6-0.3-0.7c-0.3-0.1-0.6,0.1-0.5,0.5c0,0.5-0.3,0.8-0.3,0.8l-0.1,0.3L30,74.8l-0.2,0.2l0,0.3   c0,0-0.6,0.2-0.5,0.4c0.1,0.2,0.5,0.1,0.6-0.1c0.2-0.2,0.2-0.2,0.2-0.2s0.1,0.3,0.4,0.2c0.2-0.1,0.4-0.2,0.6-0.1   c0.2,0.1,0.4,0,0.5-0.3c0.1-0.3,0.1-0.4,0.1-0.4H31.4z M65.9,35.2c0.2,0,0.1,0,0.1,0l0-0.3l0.2-0.2l-0.1-0.2l0-0.4l-0.3,0.1l0,0.3   l-0.1,0.3l0.2,0.2C65.9,34.8,65.7,35.2,65.9,35.2L65.9,35.2z M65.2,34.2c-0.1,0-0.3,0.2-0.2,0.3C65.2,34.5,65.3,34.2,65.2,34.2z    M55.5,52.5c0.2-0.3-0.1-0.1-0.1-0.1l0.1-0.2l-0.3,0.2l0,0.2l-0.1,0v0.3C55,52.9,55.3,52.7,55.5,52.5L55.5,52.5z M55.2,53.6   c0.2-0.1,0.2-0.2,0.2-0.2S55,53.6,55.2,53.6z M55,53.2c0,0,0.3-0.1,0.4-0.2C55.5,52.8,55,53.2,55,53.2L55,53.2z"/></g></svg>
