<svg xmlns="http://www.w3.org/2000/svg" version="1.1" viewBox="-5.0 -10.0 110.0 135.0">
 <path d="m89.398 44.422-39.027-16.141c-0.23047-0.10156-0.51172-0.10156-0.73828 0l-39.031 16.141c-0.37109 0.16016-0.60156 0.51172-0.60156 0.91016 0 0.39062 0.23047 0.75 0.60156 0.89844l7.5703 3.1289c-0.23828 0.67188-0.37109 1.3906-0.37109 2.1211v7.1797c-0.62109 0.33984-1.0391 1-1.0391 1.7695 0 0.76172 0.42188 1.4219 1.0391 1.7617v2.4688h-0.070312c-0.46875 0-0.87109 0.32812-0.96094 0.78906l-0.91016 4.7695c-0.078125 0.39062 0.03125 0.80078 0.28125 1.1016 0.25 0.30859 0.62891 0.48828 1.0312 0.48828h3.1797c0.39844 0 0.78125-0.17969 1.0312-0.48828 0.25-0.30078 0.35938-0.71094 0.28125-1.1016l-0.91016-4.7695c-0.089844-0.46094-0.48828-0.78906-0.96094-0.78906h-0.070313v-2.4688c0.62109-0.32812 1.0391-1 1.0391-1.7617 0-0.76172-0.42188-1.4219-1.0391-1.7695v-7.1797c0-0.46875 0.078125-0.92969 0.23047-1.3711l6.6602 2.7617v11.398c0 4.1602 3.0586 7.5312 6.8398 7.5312h33.012c3.7812 0 6.8398-3.3789 6.8398-7.5312v-11.398l16.051-6.6406c0.37109-0.14844 0.60156-0.51172 0.60156-0.89844 0.042969-0.41016-0.1875-0.76172-0.55859-0.91016zm-71.477 25.418 0.62109-3.25h0.46875l0.62109 3.25zm53.477-5.5781c0 3.0781-2.1992 5.5781-4.8906 5.5781h-33.02c-2.6914 0-4.8906-2.5-4.8906-5.5781v-10.602l21.02 8.6992c0.12109 0.050781 0.23828 0.070313 0.37109 0.070313 0.12891 0 0.25-0.019532 0.37109-0.070313l21.02-8.6992v10.602zm0.58984-12.953-21.988 9.1016-21.988-9.0898-7-2.8984c0.39844-0.41016 0.89062-0.73828 1.4297-0.96875l16.488-6.9609c0.5-0.19922 0.73047-0.78125 0.53125-1.2812-0.21094-0.5-0.78125-0.71875-1.2812-0.51953l-16.5 6.9609c-1.0195 0.42969-1.9102 1.1211-2.5586 1.9805l-5.5898-2.3086 36.469-15.086 36.469 15.078z"/>
</svg>