<svg xmlns="http://www.w3.org/2000/svg" version="1.1" viewBox="-5.0 -10.0 110.0 135.0">
 <path d="m15.289 69.379 6.3906-1.6992 4.9609 18.66-6.3906 1.6992c-0.53125 0.14063-0.85156 0.69141-0.71094 1.2188 0.10938 0.44141 0.51953 0.74219 0.96094 0.74219 0.078125 0 0.17188-0.011719 0.26172-0.03125l7.3594-1.9609c0.26172-0.070312 0.46875-0.23828 0.60938-0.46094 0.12891-0.23047 0.17188-0.5 0.10156-0.76172l-0.32031-1.1914c1.9297-0.39844 3.9219-0.28906 5.8086 0.33984l4.4492 1.5c1.8594 0.67969 3.7891 1.0195 5.7188 1.0195 2.4219 0 4.8281-0.53125 7.1094-1.5898l23.09-11.801c1.1406-0.60938 1.9102-1.75 2.0586-3.0391 0.070312-0.58984 0-1.1914-0.19141-1.75-0.37109-1.0508-1.1719-1.9102-2.1992-2.3398-1.0312-0.42969-2.1992-0.41016-3.2109 0.058594l-1.1445 0.51953c-1.3711-1.1016-3.2891-1.3516-4.8984-0.57812l-13.801 6.2891c-0.57031-0.62891-1.3398-1.1016-2.25-1.2891l-5.9492-0.96875c-1.1914-0.25-2.2891-0.80078-3.1992-1.5898l-1.0781-0.94922c-0.87109-0.76172-1.7109-1.3516-2.5703-1.7891-3.3086-1.6992-7.3086-2.0195-10.961-0.87109l-1.6484 0.51953-0.28906-1.0703c-0.14062-0.53125-0.69141-0.85156-1.2188-0.71094l-7.3594 1.9609c-0.53125 0.14062-0.85156 0.69141-0.71094 1.2188 0.13281 0.51562 0.68359 0.83594 1.2227 0.69531zm50.66 0.35938c0.55078-0.26172 1.1484-0.32031 1.7188-0.19141l-15.352 6.8789c-0.019531-0.14844-0.039062-0.28906-0.078125-0.44141zm-40.059-1.0781c3.1602-0.98828 6.6094-0.71875 9.4492 0.73828 0.71094 0.37109 1.4219 0.87109 2.1719 1.5195l1.0898 0.94922c1.1602 1.0195 2.5781 1.7188 4.1406 2.0508l5.9609 0.96875c1.0508 0.21875 1.7695 1.1719 1.6484 2.1602-0.070312 0.57031-0.37109 1.0703-0.85156 1.3906-0.42969 0.28906-0.94141 0.39844-1.5117 0.28906l-11.148-1.1797c-0.55859-0.058594-1.0391 0.33984-1.1016 0.89062-0.058593 0.55078 0.33984 1.0391 0.89062 1.1016l11.078 1.1719c0.23828 0.039062 0.46875 0.058593 0.71094 0.058593 0.78125 0 1.5391-0.23047 2.2109-0.67969 0.48047-0.32812 0.87891-0.76172 1.1797-1.25l18.441-8.2383 1.75-0.80078c0.51172-0.23828 1.0703-0.25 1.5898-0.03125 0.51953 0.21875 0.89844 0.62891 1.0898 1.1484 0.089843 0.28125 0.12891 0.57812 0.089843 0.87109-0.070312 0.64063-0.46094 1.1992-1 1.5l-23.051 11.781c-3.5703 1.6602-7.5703 1.8398-11.289 0.48828l-4.4805-1.5117c-2.2617-0.76172-4.6484-0.87891-6.9609-0.37891l-3.8281-14.469z"/>
 <path d="m73.359 13.672 6.3906-1.6992c0.53125-0.14062 0.85156-0.69141 0.71094-1.2188-0.14063-0.53125-0.69141-0.85156-1.2188-0.71094l-7.3594 1.9609c-0.26172 0.070313-0.46875 0.23828-0.60937 0.46094-0.12891 0.23047-0.17188 0.5-0.10156 0.76172l0.32031 1.1914c-1.9297 0.39844-3.9219 0.28906-5.8086-0.33984l-4.4492-1.5c-4.1992-1.5312-8.7383-1.3281-12.828 0.57812l-23.09 11.801c-1.1406 0.60938-1.9102 1.75-2.0586 3.0391-0.070312 0.58984 0 1.1914 0.19141 1.75 0.37109 1.0508 1.1719 1.9102 2.1992 2.3398 0.48828 0.21094 1.0117 0.30859 1.5391 0.30859 0.57031 0 1.1406-0.12109 1.6719-0.37109l1.1797-0.53125c0.82813 0.67187 1.8594 1.0312 2.8984 1.0312 0.67188 0 1.3516-0.14844 1.9805-0.44922l13.801-6.2891c0.57031 0.62891 1.3398 1.1016 2.25 1.2891l5.9492 0.96875c1.1914 0.25 2.2891 0.80078 3.1992 1.5898l1.0781 0.94922c0.87109 0.76172 1.7109 1.3516 2.5703 1.7891 2 1.0312 4.25 1.5508 6.5312 1.5508 1.4883 0 2.9883-0.21875 4.4414-0.67969l1.6484-0.51953 0.28906 1.0703c0.12109 0.44922 0.51953 0.73828 0.96875 0.73828 0.078125 0 0.17188-0.011719 0.26172-0.03125l7.3594-1.9609c0.53125-0.14062 0.85156-0.69141 0.71094-1.2188-0.14062-0.53125-0.69141-0.85156-1.2188-0.71094l-6.3906 1.6992zm-39.309 16.59c-0.55078 0.26172-1.1484 0.32031-1.7188 0.19141l15.352-6.8789c0.019531 0.14844 0.039062 0.28906 0.078125 0.44141zm40.059 1.0781c-3.1602 0.98828-6.6094 0.71875-9.4492-0.73828-0.71094-0.37109-1.4219-0.87109-2.1719-1.5195l-1.0898-0.94922c-1.1602-1.0195-2.5781-1.7188-4.1406-2.0508l-5.9609-0.96875c-1.0508-0.21875-1.7695-1.1719-1.6484-2.1602 0.070312-0.57031 0.37109-1.0703 0.85156-1.3906 0.42969-0.28906 0.94141-0.39844 1.5117-0.28906l11.148 1.1797c0.55078 0.050781 1.0391-0.33984 1.1016-0.89062 0.058593-0.55078-0.33984-1.0391-0.89062-1.1016l-11.07-1.1797c-1.0195-0.19141-2.0508 0.03125-2.9219 0.60938-0.48047 0.32812-0.87891 0.76172-1.1797 1.25l-18.441 8.2383-1.7578 0.82031c-0.51172 0.23828-1.0703 0.25-1.5898 0.03125-0.51953-0.21875-0.89844-0.62891-1.0898-1.1484-0.089843-0.28125-0.12891-0.57812-0.089843-0.87109 0.070312-0.64063 0.46094-1.1992 1-1.5l23.039-11.781c3.5703-1.6602 7.5703-1.8398 11.289-0.48828l4.4805 1.5117c2.2617 0.76172 4.6484 0.87891 6.9609 0.37891l3.8398 14.461z"/>
 <path d="m50.922 39.719c-1.4609-2.4492-4.3008-3.7109-7.1094-3.7109-2.3594 0-4.5508 0.83984-6.1914 2.3789-1.8711 1.7617-2.8594 4.2812-2.8594 7.3008 0 11.852 15 21.148 15.641 21.539 0.16016 0.10156 0.33984 0.14844 0.51953 0.14844s0.35938-0.050781 0.51953-0.14844c0.64062-0.39062 15.641-9.6914 15.641-21.539 0-3.0195-0.98828-5.5391-2.8594-7.3008-1.6445-1.5352-3.8438-2.3867-6.1914-2.3867-2.8203 0-5.6523 1.2695-7.1094 3.7188zm14.156 5.9609c0 9.5586-11.551 17.762-14.16 19.488-2.6211-1.7305-14.16-9.9414-14.16-19.488 0-2.4492 0.76953-4.4688 2.2305-5.8398 1.2617-1.1797 2.9688-1.8398 4.8203-1.8398 2.9414 0 6.1094 1.7305 6.1094 5.5391 0 0.55078 0.44922 1 1 1s1-0.44922 1-1c0-3.8086 3.1719-5.5391 6.1094-5.5391 1.8516 0 3.5586 0.64844 4.8203 1.8398 1.4609 1.3711 2.2305 3.3906 2.2305 5.8398z"/>
 <path d="m43.809 39.109c-2.7383 0-5.9414 1.7188-5.9414 6.5586 0 0.55078 0.44922 1 1 1 0.55078 0 1-0.44922 1-1 0-4.1211 2.7617-4.5586 3.9414-4.5586 0.55078 0 1-0.44922 1-1s-0.44922-1-1-1z"/>
</svg>