<svg xmlns="http://www.w3.org/2000/svg" xmlns:xlink="http://www.w3.org/1999/xlink" version="1.1" x="0px" y="0px" viewBox="0 0 100 125" style="enable-background:new 0 0 100 100;" xml:space="preserve"><path d="M55.74,27.295c-0.04-1.131-0.404-2.18-1.008-3.054c2.185-1.535,3.518-4.039,3.518-6.741c0-4.549-3.701-8.25-8.25-8.25  s-8.25,3.701-8.25,8.25c0,2.702,1.333,5.206,3.518,6.741c-0.604,0.874-0.968,1.923-1.008,3.054  C30.039,29.992,19.25,42.506,19.25,57.5c0,16.956,13.794,30.75,30.75,30.75S80.75,74.456,80.75,57.5  C80.75,42.506,69.961,29.992,55.74,27.295z M48.25,21.75v-3c0-0.276,0.225-0.5,0.5-0.5h2.5c0.275,0,0.5,0.224,0.5,0.5v3H48.25z   M43.25,17.5c0-3.722,3.028-6.75,6.75-6.75s6.75,3.028,6.75,6.75c0,2.273-1.146,4.383-3.026,5.627  c-0.166-0.142-0.339-0.277-0.521-0.399c0.024-0.073,0.046-0.147,0.046-0.228v-3.75c0-1.103-0.897-2-2-2h-2.5c-1.103,0-2,0.897-2,2  v3.75c0,0.081,0.022,0.155,0.046,0.228c-0.182,0.122-0.354,0.257-0.521,0.399C44.396,21.883,43.25,19.773,43.25,17.5z   M45.774,27.045c0.104-0.975,0.55-1.841,1.201-2.506c0.163-0.166,0.338-0.314,0.52-0.45c0.047-0.035,0.091-0.073,0.14-0.105  c0.174-0.119,0.358-0.216,0.546-0.306c0.066-0.031,0.127-0.07,0.195-0.098c0.186-0.078,0.381-0.132,0.578-0.183  c0.073-0.018,0.14-0.047,0.214-0.062C49.439,23.28,49.717,23.25,50,23.25s0.561,0.03,0.832,0.085  c0.074,0.015,0.142,0.044,0.214,0.062c0.196,0.05,0.391,0.105,0.578,0.183c0.068,0.028,0.129,0.067,0.195,0.098  c0.188,0.091,0.372,0.188,0.546,0.306c0.048,0.033,0.093,0.071,0.14,0.105c0.182,0.135,0.357,0.283,0.52,0.45  c0.651,0.665,1.097,1.532,1.201,2.506c-0.037-0.005-0.073-0.006-0.11-0.011c-0.591-0.079-1.188-0.141-1.789-0.186  c-0.124-0.01-0.247-0.02-0.371-0.028C51.308,26.778,50.657,26.75,50,26.75s-1.308,0.028-1.956,0.069  c-0.124,0.008-0.247,0.019-0.371,0.028c-0.601,0.045-1.198,0.107-1.789,0.186C45.848,27.038,45.811,27.04,45.774,27.045z M50,86.75  c-16.129,0-29.25-13.122-29.25-29.25c0-14.494,10.599-26.554,24.453-28.85c0.759-0.125,1.518-0.218,2.276-0.284  c0.084-0.007,0.169-0.013,0.254-0.019c1.512-0.118,3.023-0.118,4.535,0c0.085,0.007,0.169,0.012,0.254,0.019  c0.758,0.066,1.516,0.159,2.276,0.284C68.651,30.946,79.25,43.006,79.25,57.5C79.25,73.628,66.129,86.75,50,86.75z"/><path d="M50,31.75c-14.198,0-25.75,11.551-25.75,25.75S35.802,83.25,50,83.25S75.75,71.699,75.75,57.5S64.198,31.75,50,31.75z   M50,81.75c-13.371,0-24.25-10.878-24.25-24.25S36.629,33.25,50,33.25S74.25,44.128,74.25,57.5S63.371,81.75,50,81.75z"/><path d="M57.344,39.7c1.16,0.479,2.279,1.076,3.328,1.775c0.128,0.085,0.272,0.126,0.415,0.126c0.242,0,0.48-0.117,0.625-0.334  c0.229-0.345,0.137-0.81-0.208-1.04c-1.13-0.753-2.337-1.397-3.588-1.914c-0.382-0.157-0.821,0.023-0.979,0.407  C56.778,39.104,56.961,39.542,57.344,39.7z"/><path d="M50,38.25c1.256,0,2.512,0.122,3.734,0.362c0.049,0.01,0.098,0.014,0.146,0.014c0.351,0,0.665-0.248,0.735-0.605  c0.079-0.406-0.186-0.801-0.592-0.88c-1.317-0.259-2.671-0.39-4.023-0.39h-0.021c-0.414,0-0.739,0.336-0.739,0.75  S49.586,38.25,50,38.25z"/><path d="M42.331,39.773c0.096,0,0.193-0.018,0.288-0.058c1.161-0.482,2.375-0.851,3.607-1.096c0.406-0.081,0.67-0.476,0.589-0.882  c-0.08-0.407-0.475-0.671-0.882-0.59c-1.329,0.264-2.638,0.662-3.891,1.183c-0.382,0.159-0.563,0.598-0.404,0.98  C41.758,39.6,42.037,39.773,42.331,39.773z"/><path d="M65.989,46.778c0.145,0.216,0.382,0.332,0.624,0.332c0.144,0,0.289-0.041,0.417-0.127c0.344-0.231,0.436-0.697,0.205-1.041  c-0.753-1.123-1.623-2.178-2.586-3.138c-0.294-0.293-0.769-0.291-1.061,0.002s-0.292,0.768,0.002,1.061  C64.483,44.757,65.291,45.736,65.989,46.778z"/><path d="M35.85,44.115c0.192,0,0.384-0.073,0.53-0.22c0.89-0.89,1.87-1.696,2.914-2.396c0.344-0.231,0.436-0.697,0.205-1.041  c-0.23-0.344-0.697-0.436-1.041-0.205c-1.124,0.755-2.181,1.624-3.139,2.582c-0.293,0.293-0.293,0.768,0,1.061  C35.466,44.042,35.657,44.115,35.85,44.115z"/><path d="M68.876,53.706c0.071,0.357,0.384,0.604,0.734,0.604c0.049,0,0.098-0.004,0.147-0.015c0.406-0.081,0.67-0.476,0.589-0.882  c-0.265-1.328-0.663-2.637-1.186-3.89c-0.16-0.383-0.602-0.561-0.98-0.404c-0.383,0.16-0.563,0.599-0.404,0.981  C68.261,51.261,68.631,52.475,68.876,53.706z"/><path d="M63.647,71.076c-0.889,0.893-1.867,1.701-2.908,2.403c-0.344,0.231-0.435,0.698-0.203,1.041  c0.145,0.215,0.382,0.331,0.623,0.331c0.144,0,0.29-0.042,0.418-0.128c1.122-0.756,2.177-1.627,3.133-2.589  c0.293-0.293,0.291-0.769-0.002-1.061C64.414,70.781,63.939,70.782,63.647,71.076z"/><path d="M50,76.75c-1.242,0-2.485-0.119-3.693-0.354c-0.403-0.076-0.801,0.187-0.88,0.593s0.187,0.8,0.593,0.879  c1.303,0.253,2.642,0.381,3.98,0.381h0.063c0.414,0,0.719-0.336,0.719-0.75S50.414,76.75,50,76.75z"/><path d="M30.75,57.5c0-1.262,0.123-2.525,0.365-3.754c0.081-0.407-0.184-0.801-0.59-0.881c-0.397-0.077-0.801,0.184-0.881,0.59  c-0.262,1.325-0.395,2.686-0.395,4.045v0.085c0,0.414,0.336,0.708,0.75,0.708S30.75,57.914,30.75,57.5z"/><path d="M57.42,75.269c-1.16,0.485-2.373,0.856-3.605,1.104c-0.406,0.082-0.669,0.477-0.588,0.883  c0.071,0.356,0.385,0.603,0.734,0.603c0.049,0,0.099-0.005,0.148-0.015c1.33-0.267,2.638-0.667,3.889-1.19  c0.383-0.16,0.562-0.599,0.403-0.981C58.24,75.289,57.797,75.11,57.42,75.269z"/><path d="M70,56.729c-0.414,0-0.75,0.357-0.75,0.771c0,1.25-0.12,2.499-0.358,3.714c-0.079,0.407,0.186,0.801,0.593,0.88  c0.048,0.01,0.097,0.014,0.145,0.014c0.352,0,0.665-0.248,0.735-0.606c0.256-1.31,0.386-2.657,0.386-4.002v-0.042  C70.75,57.044,70.414,56.729,70,56.729z"/><path d="M68.893,64.488l-3.512-4.049c-0.17-0.197-0.431-0.291-0.687-0.249c-0.257,0.042-0.474,0.213-0.573,0.453l-0.669,1.616  l-4.62-1.914l6.405-2.135c0.306-0.102,0.513-0.389,0.513-0.711s-0.207-0.609-0.513-0.711l-7.491-2.497l3.531-7.063  c0.145-0.289,0.088-0.638-0.141-0.866c-0.229-0.229-0.578-0.286-0.865-0.141l-7.063,3.531l-2.497-7.491  C50.609,41.957,50.323,41.75,50,41.75s-0.609,0.207-0.712,0.513l-2.497,7.491l-7.063-3.531c-0.288-0.145-0.637-0.088-0.865,0.141  c-0.229,0.228-0.285,0.577-0.141,0.866l3.019,6.039l-4.62-1.914l0.67-1.617c0.099-0.24,0.067-0.515-0.085-0.726  c-0.152-0.21-0.405-0.331-0.661-0.31l-4.304,0.306c0.372-0.755,0.776-1.496,1.244-2.197c0.23-0.344,0.139-0.81-0.206-1.041  s-0.81-0.137-1.04,0.207c-0.756,1.13-1.401,2.336-1.919,3.586c-0.015,0.036-0.012,0.073-0.021,0.109  c-0.009,0.038-0.019,0.076-0.022,0.114c-0.004,0.052-0.003,0.101,0.004,0.153c0.003,0.025,0.009,0.049,0.015,0.074  c0.033,0.144,0.098,0.276,0.207,0.379l3.616,4.169c0.144,0.166,0.351,0.259,0.566,0.259c0.04,0,0.08-0.003,0.12-0.01  c0.257-0.042,0.474-0.213,0.573-0.453l0.669-1.616l4.62,1.914l-6.405,2.135c-0.306,0.102-0.513,0.389-0.513,0.711  s0.207,0.609,0.513,0.711l7.491,2.497l-3.531,7.063c-0.145,0.289-0.088,0.638,0.141,0.866c0.144,0.144,0.336,0.22,0.53,0.22  c0.114,0,0.229-0.026,0.335-0.079l7.063-3.531l2.497,7.491c0.103,0.306,0.389,0.513,0.712,0.513s0.609-0.207,0.712-0.513  l2.497-7.491l7.063,3.531c0.106,0.053,0.221,0.079,0.335,0.079c0.194,0,0.387-0.076,0.53-0.22c0.229-0.228,0.285-0.577,0.141-0.866  l-3.019-6.039l4.62,1.914l-0.67,1.617c-0.099,0.24-0.067,0.515,0.085,0.726c0.142,0.196,0.368,0.312,0.608,0.312  c0.018,0,0.035,0,0.053-0.002l4.304-0.306c-0.367,0.744-0.764,1.473-1.223,2.162c-0.229,0.345-0.137,0.811,0.208,1.04  c0.128,0.085,0.272,0.126,0.415,0.126c0.243,0,0.48-0.117,0.625-0.334c0.752-1.128,1.395-2.335,1.911-3.589  C69.336,65.055,69.195,64.679,68.893,64.488z M34.957,52.661l-1.885-2.173l2.869-0.204l-0.491,1.185  c0,0.001-0.002,0.002-0.002,0.004s0,0.003-0.001,0.004L34.957,52.661z M58.93,48.571l-2.621,5.242l-1.966-0.655l-0.655-1.966  L58.93,48.571z M50,44.872l2.058,6.176c0,0,0,0.001,0,0.001l0.979,2.938c0.075,0.224,0.251,0.399,0.475,0.474l9.115,3.039  l-5.911,1.97l-3.519-1.457c0.093-0.575,0.043-1.18-0.195-1.757c-0.687-1.654-2.59-2.445-4.247-1.759  c-0.576,0.239-1.039,0.631-1.38,1.104l-1.921-0.796l1.032-0.344c0.224-0.075,0.399-0.25,0.475-0.474l0.979-2.938  c0,0,0-0.001,0-0.001L50,44.872z M51.167,58.795c-0.144,0.13-0.307,0.243-0.497,0.322c-0.892,0.369-1.918-0.056-2.286-0.947  c-0.079-0.189-0.114-0.385-0.124-0.579L51.167,58.795z M48.833,56.205c0.144-0.13,0.307-0.243,0.497-0.322  c0.218-0.09,0.444-0.133,0.667-0.133c0.688,0,1.341,0.407,1.619,1.081c0.079,0.189,0.114,0.385,0.124,0.579L48.833,56.205z   M46.312,51.191l-0.655,1.966l-1.966,0.655l-2.621-5.242L46.312,51.191z M41.07,66.429l2.621-5.242l1.966,0.655l0.655,1.966  L41.07,66.429z M50,70.128l-2.058-6.176c0,0,0-0.001,0-0.001l-0.979-2.938c-0.075-0.224-0.251-0.399-0.475-0.474L37.372,57.5  l5.911-1.97l3.519,1.457c-0.093,0.575-0.043,1.18,0.195,1.757c0.519,1.25,1.731,2.006,3.008,2.006c0.413,0,0.834-0.079,1.239-0.247  c0.576-0.239,1.039-0.631,1.38-1.104l1.921,0.796l-1.032,0.344c-0.224,0.075-0.399,0.25-0.475,0.474l-0.979,2.938  c0,0,0,0.001,0,0.001L50,70.128z M53.688,63.809l0.655-1.966l1.966-0.655l2.621,5.242L53.688,63.809z M64.059,64.716l0.49-1.183  c0.001-0.002,0.002-0.003,0.003-0.005c0.001-0.001,0-0.003,0.001-0.004l0.49-1.184l1.885,2.173L64.059,64.716z"/><path d="M31.133,61.334c-0.082-0.406-0.48-0.667-0.884-0.587c-0.406,0.082-0.669,0.478-0.587,0.883  c0.269,1.331,0.67,2.639,1.194,3.888c0.12,0.287,0.398,0.46,0.691,0.46c0.097,0,0.195-0.019,0.29-0.059  c0.382-0.16,0.562-0.6,0.401-0.981C31.754,63.78,31.381,62.567,31.133,61.334z"/><path d="M34.034,68.256c-0.229-0.343-0.697-0.434-1.041-0.203c-0.344,0.231-0.435,0.698-0.203,1.041  c0.756,1.122,1.628,2.176,2.592,3.132c0.146,0.146,0.337,0.218,0.528,0.218c0.192,0,0.386-0.074,0.532-0.222  c0.292-0.294,0.29-0.769-0.004-1.061C35.544,70.274,34.735,69.296,34.034,68.256z"/><path d="M42.693,75.315c-1.16-0.477-2.281-1.071-3.332-1.769c-0.347-0.228-0.811-0.135-1.04,0.21  c-0.229,0.345-0.135,0.811,0.21,1.04c1.133,0.751,2.341,1.393,3.592,1.906c0.094,0.038,0.19,0.056,0.285,0.056  c0.295,0,0.575-0.175,0.693-0.465C43.26,75.911,43.076,75.472,42.693,75.315z"/></svg>