<svg xmlns="http://www.w3.org/2000/svg" version="1.0" viewBox="0 0 2048 2560" preserveAspectRatio="xMidYMid meet" x="0px" y="0px"><g transform="translate(0.000000,2048.000000) scale(0.100000,-0.100000)" fill="#000000" stroke="none"><path d="M12890 17899 c-166 -27 -293 -159 -322 -333 l-11 -67 -111 -66 c-214 -128 -569 -372 -741 -510 -165 -132 -336 -302 -450 -448 l-31 -38 -149 21 c-719 101 -1453 79 -2180 -64 -575 -113 -1131 -305 -1674 -579 -725 -366 -1357 -847 -1910 -1455 -110 -121 -311 -365 -381 -463 -28 -39 -38 -47 -55 -41 -49 16 -295 16 -397 -1 -339 -57 -534 -173 -699 -417 -97 -142 -192 -396 -230 -608 -27 -157 -37 -510 -19 -687 29 -288 138 -804 261 -1233 78 -270 246 -741 419 -1174 l31 -80 -44 -38 c-137 -117 -175 -307 -93 -473 23 -46 52 -88 79 -111 55 -48 148 -92 217 -101 l55 -8 12 -175 c40 -588 51 -696 138 -1365 143 -1094 151 -1142 299 -1805 l84 -375 -39 -34 c-134 -113 -176 -305 -102 -464 128 -272 502 -306 673 -60 20 28 42 70 50 94 7 24 16 47 20 52 3 4 85 16 181 27 364 42 492 60 749 104 408 69 574 101 980 187 1864 397 2986 761 4542 1470 563 256 1506 719 1834 900 89 49 165 89 170 89 5 0 20 -12 34 -27 22 -23 85 -57 143 -77 12 -4 16 -12 13 -23 -3 -10 -42 -223 -86 -473 -44 -250 -126 -705 -180 -1010 -96 -536 -151 -841 -320 -1790 -43 -245 -90 -515 -105 -600 -14 -85 -27 -164 -30 -176 -4 -17 -17 -22 -87 -33 -137 -21 -126 -24 -171 49 -76 123 -307 579 -307 606 0 2 71 40 159 83 198 100 421 226 443 252 15 18 55 166 47 173 -2 2 -71 -36 -154 -85 -281 -167 -684 -361 -991 -477 -738 -280 -1478 -415 -2274 -415 -413 0 -677 21 -1055 84 -966 161 -1861 530 -2676 1103 l-67 47 -86 -12 c-47 -7 -86 -16 -86 -20 0 -13 142 -116 350 -254 814 -542 1759 -897 2740 -1030 362 -49 943 -70 1281 -46 457 32 946 113 1313 217 l88 25 72 -59 c182 -150 446 -329 610 -414 56 -28 168 -82 251 -118 l150 -67 13 -78 c24 -146 99 -246 230 -308 60 -28 77 -32 157 -32 80 0 97 4 157 32 125 59 204 161 229 294 28 155 -50 323 -187 401 -37 20 -51 34 -48 46 25 113 157 837 255 1402 11 63 35 198 54 300 19 102 64 354 100 560 36 206 99 557 140 780 41 223 97 538 124 700 28 162 54 306 58 319 7 19 21 27 82 42 125 32 212 102 269 219 24 49 27 66 27 160 0 99 -2 110 -32 171 -39 80 -111 150 -191 187 -51 24 -69 27 -162 27 -95 -1 -111 -3 -164 -29 -33 -16 -82 -51 -109 -77 -28 -27 -57 -49 -64 -49 -40 0 -1068 496 -1280 617 -144 83 -554 344 -723 461 -223 155 -567 418 -613 470 -18 20 -18 22 9 89 29 73 37 173 21 263 l-8 45 153 65 c346 146 909 451 1438 780 350 218 677 453 975 701 176 147 508 472 600 587 55 70 59 73 89 65 17 -4 65 -7 106 -7 103 2 174 30 250 100 l59 55 143 -94 c369 -241 818 -609 1045 -855 361 -391 511 -620 569 -870 19 -80 15 -226 -8 -290 -17 -45 -78 -152 -88 -152 -3 0 -11 98 -18 218 -17 297 -25 352 -62 421 -81 151 -343 465 -618 740 -192 192 -194 193 -230 188 -20 -3 -145 -24 -277 -47 -203 -35 -269 -43 -425 -47 -259 -8 -490 19 -750 87 -62 16 -77 17 -90 6 -438 -382 -860 -682 -1500 -1066 l-325 -196 -3 -39 c-5 -51 15 -208 32 -266 79 -257 269 -464 586 -637 101 -55 295 -144 698 -318 479 -208 620 -284 659 -356 27 -51 21 -169 -16 -313 -17 -66 -31 -125 -31 -131 0 -6 22 -14 49 -18 74 -10 187 -71 254 -137 240 -240 168 -649 -141 -795 -45 -22 -84 -46 -86 -54 -3 -8 -37 -193 -76 -410 -39 -217 -78 -435 -87 -485 l-16 -89 49 -43 c111 -98 326 -230 485 -298 46 -20 140 -52 208 -71 68 -19 126 -36 129 -38 7 -8 -12 -33 -133 -173 -238 -273 -542 -562 -849 -805 -83 -66 -154 -125 -158 -132 -3 -6 -11 -40 -18 -76 -6 -36 -13 -73 -16 -82 -3 -10 -1 -18 4 -18 5 0 77 51 160 114 1334 1008 2228 2480 2511 4136 52 299 91 704 91 942 l0 107 41 38 c52 48 123 155 155 233 111 274 -3 618 -352 1055 -114 142 -443 471 -609 609 -192 159 -505 394 -662 496 -76 49 -146 95 -156 102 -17 12 -17 18 -6 61 40 162 -51 351 -207 428 l-64 32 0 176 c0 449 -48 871 -140 1246 -179 728 -667 1761 -1155 2450 -111 157 -234 316 -283 368 l-36 37 36 68 c64 119 71 240 18 358 -69 158 -246 251 -420 223z m-284 -560 l18 -42 -104 -95 c-145 -132 -602 -590 -741 -742 -575 -629 -1073 -1344 -1585 -2278 -134 -244 -482 -932 -597 -1182 -57 -124 -152 -331 -212 -461 l-108 -235 -626 -148 c-810 -192 -871 -206 -885 -206 -6 0 -19 21 -30 46 -44 108 -177 206 -302 224 -170 23 -340 -71 -412 -228 -52 -115 -41 -263 29 -373 16 -25 29 -48 29 -52 0 -3 -24 -23 -52 -44 -139 -101 -780 -599 -1088 -844 -311 -247 -524 -415 -1109 -868 l-184 -143 -68 22 c-53 17 -86 21 -151 19 l-83 -4 -38 95 c-92 229 -269 709 -320 865 -70 212 -111 359 -181 644 -145 584 -193 948 -168 1274 19 257 49 393 127 584 59 144 125 244 224 344 130 129 275 194 521 234 110 17 286 20 295 4 4 -5 -42 -85 -102 -177 -267 -408 -436 -730 -612 -1164 -75 -187 -194 -536 -231 -680 l-23 -86 27 -134 c15 -73 31 -137 35 -141 5 -5 16 24 25 65 51 227 163 590 261 843 58 152 205 485 214 485 3 0 20 -58 37 -128 37 -151 100 -313 200 -512 85 -168 159 -279 277 -411 272 -305 594 -518 1046 -690 151 -57 165 -61 187 -48 13 8 193 149 400 314 208 165 381 303 386 306 5 3 -3 41 -18 85 -23 69 -26 90 -21 169 3 49 8 99 12 111 6 18 -10 35 -97 106 -179 148 -278 276 -278 361 0 45 36 75 132 111 177 67 302 77 858 67 230 -4 236 -4 300 20 92 35 174 94 308 222 131 126 189 170 279 215 131 66 352 105 548 96 174 -7 183 -3 247 126 80 161 122 363 134 640 10 225 -21 484 -101 831 -54 237 -106 415 -230 784 -137 410 -218 673 -212 689 6 15 476 106 547 106 6 0 10 -81 10 -231 0 -190 3 -237 16 -264 17 -37 65 -65 111 -65 44 0 123 -51 193 -127 69 -73 101 -126 191 -319 107 -232 206 -372 321 -459 62 -46 204 -123 211 -115 2 3 66 102 142 220 412 644 677 1012 925 1289 49 55 90 104 90 109 0 4 -39 16 -87 25 -47 9 -90 20 -95 25 -11 11 125 165 238 268 171 155 340 283 654 494 106 72 312 199 321 200 3 0 14 -19 25 -41z m213 -194 l36 -12 -2 -79 c-14 -476 -174 -1528 -359 -2349 -105 -470 -479 -1874 -506 -1900 -2 -3 -123 -21 -269 -40 -567 -76 -1077 -169 -1878 -341 -217 -47 -400 -83 -407 -82 -12 3 38 116 333 748 119 256 437 876 596 1160 415 746 851 1384 1312 1920 231 270 600 650 858 886 l168 154 41 -26 c22 -14 57 -32 77 -39z m442 -72 c296 -371 551 -778 799 -1273 419 -836 629 -1517 679 -2195 15 -202 24 -588 13 -603 -5 -7 -39 -19 -77 -27 -87 -19 -138 -49 -209 -126 l-58 -62 -116 22 c-306 57 -528 74 -967 73 -346 -1 -667 -16 -1018 -48 -98 -9 -180 -14 -184 -11 -3 3 35 149 85 324 170 593 431 1613 491 1919 16 82 43 235 60 339 16 105 42 264 56 355 82 514 123 848 146 1181 l12 176 56 11 c31 7 72 20 91 31 19 10 40 19 45 20 6 0 49 -47 96 -106z m689 -4328 c80 -9 204 -27 277 -41 73 -13 134 -24 137 -24 2 0 5 -44 8 -98 3 -82 8 -107 32 -156 16 -32 49 -79 73 -104 40 -42 43 -49 32 -70 -24 -43 -256 -287 -400 -419 -224 -205 -508 -431 -779 -619 -487 -339 -1300 -804 -1877 -1074 l-93 -43 -48 45 c-27 25 -63 53 -80 62 -18 9 -32 18 -32 20 0 2 23 55 51 117 143 320 294 709 425 1092 62 182 369 1149 386 1215 7 30 17 44 32 47 58 14 495 50 826 69 36 2 250 2 475 1 300 -2 449 -8 555 -20z m-2008 -91 c-6 -32 -168 -550 -283 -906 -163 -501 -277 -811 -451 -1218 -99 -232 -126 -283 -145 -276 -26 10 -145 -14 -198 -40 -93 -47 -186 -160 -208 -255 l-7 -27 -197 -1 c-484 -3 -883 -75 -1529 -276 -61 -19 -115 -35 -121 -35 -6 0 -26 23 -44 51 -40 63 -109 119 -184 150 -51 21 -56 25 -50 49 45 192 180 618 345 1090 13 36 36 103 53 150 74 213 420 1067 440 1087 21 20 1164 259 1642 342 335 58 907 142 930 136 6 -1 9 -11 7 -21z m-2735 -506 c-3 -13 -68 -178 -145 -368 -256 -632 -461 -1209 -577 -1620 -96 -345 -83 -313 -135 -322 -114 -19 -238 -123 -280 -235 -109 -287 117 -573 421 -531 177 24 313 171 328 356 l6 76 105 33 c201 64 616 174 785 208 240 48 412 65 689 68 l239 2 20 -68 20 -68 -34 -29 c-19 -16 -37 -29 -41 -30 -6 0 -1639 -1404 -1852 -1592 -17 -15 -37 -27 -44 -28 -65 -2 -1181 303 -1687 460 -613 191 -1498 504 -2020 714 l-160 64 -6 93 c-6 100 -27 163 -76 227 -21 28 -23 36 -12 47 8 7 165 129 349 271 351 270 705 548 1075 844 121 96 383 301 583 455 200 154 374 289 388 300 22 17 28 18 57 6 171 -70 333 -43 451 75 58 57 104 149 113 224 5 40 11 54 27 60 12 5 91 23 176 40 85 17 292 65 460 105 343 83 761 183 774 184 4 1 6 -9 3 -21z m1586 -2591 c132 -101 303 -113 445 -31 24 14 48 22 55 18 6 -5 45 -37 86 -72 233 -203 887 -653 1281 -881 174 -102 1030 -518 1263 -615 l38 -16 -7 -57 c-3 -32 -8 -60 -11 -62 -10 -12 -851 -147 -1118 -180 -397 -50 -870 -76 -1180 -66 -499 16 -1085 76 -1763 181 -398 61 -993 172 -1009 188 -9 8 -93 -66 812 713 435 374 849 732 920 796 72 64 133 116 137 117 4 0 27 -15 51 -33z m-5653 -557 c346 -140 1303 -476 1850 -649 69 -22 152 -49 184 -61 32 -12 174 -52 315 -90 141 -38 387 -104 546 -148 160 -44 352 -94 428 -113 75 -18 137 -36 137 -40 0 -4 -23 -27 -52 -51 -29 -23 -268 -229 -533 -457 -604 -521 -1064 -918 -1902 -1639 l-663 -570 -71 36 c-69 36 -76 37 -178 38 l-106 0 -77 340 c-43 186 -91 422 -108 524 -17 102 -35 201 -41 220 -15 56 -54 322 -118 815 -93 709 -108 837 -141 1170 -48 492 -57 599 -52 608 2 5 23 17 46 27 63 27 123 75 162 130 l36 50 36 -17 c20 -9 156 -64 302 -123z m3830 -1177 c637 -134 1436 -251 2140 -314 300 -26 832 -36 1095 -20 449 28 707 60 1449 182 321 53 331 54 323 10 -7 -45 -1332 -706 -2137 -1066 -1360 -609 -2328 -930 -3892 -1289 -521 -120 -1264 -266 -1608 -315 -155 -23 -568 -71 -657 -77 l-91 -7 -12 44 c-7 24 -21 61 -32 83 l-20 39 24 22 c19 20 483 419 2297 1978 123 105 350 302 505 436 417 361 395 344 425 336 14 -4 100 -22 191 -42z m3880 -3867 c0 -20 196 -409 280 -556 45 -76 69 -129 64 -135 -5 -6 -29 -41 -53 -78 -25 -37 -48 -67 -52 -67 -21 0 -349 155 -444 209 -183 105 -514 341 -515 366 0 6 60 30 133 54 130 43 489 180 537 207 33 17 50 17 50 0z"/><path d="M11850 16229 c-23 -27 -41 -52 -39 -54 2 -2 47 -15 99 -30 155 -43 394 -123 563 -187 87 -34 160 -58 163 -56 2 3 7 34 11 70 5 57 3 66 -13 72 -293 113 -665 236 -716 236 -18 0 -37 -15 -68 -51z"/><path d="M11572 15908 c-66 -79 -159 -195 -205 -258 -235 -322 -635 -934 -617 -945 15 -9 164 16 240 41 244 82 432 275 568 586 71 161 92 257 148 676 3 23 1 42 -4 42 -5 0 -63 -64 -130 -142z"/><path d="M12400 15289 c-455 -381 -688 -635 -757 -826 -86 -237 4 -513 240 -740 95 -91 208 -177 218 -165 3 4 18 57 32 117 14 61 88 361 166 668 145 577 254 1042 249 1058 -2 6 -69 -45 -148 -112z"/><path d="M12936 15878 c-11 -41 -7 -116 7 -121 9 -3 7 -10 -6 -24 -13 -15 -24 -60 -37 -155 -75 -530 -103 -657 -353 -1568 -85 -311 -157 -577 -158 -590 -4 -22 2 -27 46 -42 103 -35 154 -21 295 80 102 73 229 141 325 173 57 19 90 24 175 23 110 -1 124 -4 407 -87 153 -45 271 -61 386 -53 99 8 241 41 343 81 87 35 244 123 251 142 24 63 -142 770 -260 1104 -76 216 -99 254 -198 330 -201 156 -481 341 -729 484 -141 82 -460 245 -478 245 -5 0 -12 -10 -16 -22z"/><path d="M13137 11951 c-54 -48 -308 -474 -443 -743 -66 -131 -154 -337 -154 -358 0 -14 33 5 280 158 237 147 455 292 600 400 177 132 470 364 470 373 0 4 -15 12 -32 18 -18 5 -112 34 -208 65 -405 127 -456 136 -513 87z"/><path d="M8952 10853 c-43 -102 -312 -904 -312 -932 0 -12 19 -31 50 -51 28 -18 72 -57 98 -86 l48 -53 121 39 c166 54 546 154 724 190 80 17 206 37 280 45 117 13 550 45 608 45 14 0 27 13 41 40 11 22 46 70 76 106 l55 65 -48 57 c-166 194 -283 278 -400 289 -83 8 -145 -13 -355 -118 -383 -192 -456 -205 -578 -109 -55 43 -119 127 -259 338 -67 100 -123 182 -125 182 -2 0 -13 -21 -24 -47z"/><path d="M7727 11475 c-117 -108 -308 -152 -472 -110 l-59 16 -45 -33 c-162 -115 -671 -515 -671 -527 0 -3 14 -15 30 -24 67 -40 75 -90 54 -344 -22 -261 -22 -595 0 -745 37 -252 115 -471 234 -653 27 -42 105 -129 196 -218 l151 -149 5 -80 5 -81 55 -19 c120 -41 1010 -287 1280 -354 l189 -47 68 59 c37 33 451 390 918 794 468 403 855 737 860 742 11 11 -257 3 -445 -13 -315 -26 -764 -122 -1000 -212 -151 -58 -172 -74 -194 -147 -21 -68 -77 -159 -127 -207 -117 -110 -294 -157 -444 -118 -230 60 -376 260 -362 495 11 196 130 353 319 422 67 24 55 -3 113 263 37 172 88 333 250 780 l86 240 -28 23 c-104 85 -266 154 -464 197 -68 15 -193 42 -276 61 -84 19 -158 34 -165 34 -7 -1 -35 -21 -61 -45z"/><path d="M10260 9038 c-267 -231 -632 -548 -811 -704 -179 -156 -331 -289 -338 -297 -10 -12 28 -22 251 -66 311 -60 633 -113 665 -109 20 3 31 21 67 110 144 354 647 1004 908 1172 98 64 210 117 295 142 32 9 66 23 76 32 23 20 22 69 -3 109 l-19 32 -53 -24 c-164 -75 -351 -74 -500 1 -26 13 -49 24 -50 24 -2 0 -222 -190 -488 -422z"/><path d="M7127 8174 c-10 -10 -8 -181 3 -314 31 -355 99 -534 275 -728 32 -35 63 -61 70 -58 15 5 890 760 899 775 3 5 -2 12 -12 16 -9 4 -282 74 -607 155 -324 82 -597 151 -606 154 -8 4 -18 3 -22 0z"/><path d="M5030 6087 c0 -13 9 -72 19 -131 l20 -107 94 -112 c128 -152 327 -367 338 -367 5 0 30 19 54 41 l45 41 -83 90 c-147 160 -267 300 -374 436 -58 72 -107 132 -109 132 -2 0 -4 -10 -4 -23z"/><path d="M8704 7687 c-157 -139 -978 -852 -987 -859 -11 -7 -14 -3 92 -147 131 -179 185 -294 307 -656 83 -245 190 -490 220 -502 7 -2 37 0 66 6 103 22 553 144 565 153 13 11 66 166 83 243 6 28 24 120 41 206 34 182 71 304 129 419 71 141 149 208 336 288 64 27 118 59 151 88 62 53 130 159 174 269 34 87 97 320 88 329 -3 3 -120 26 -260 51 -140 25 -399 75 -577 110 -178 36 -331 65 -340 65 -9 0 -49 -29 -88 -63z"/><path d="M5790 5174 l-45 -46 45 -39 c41 -35 50 -39 100 -38 30 0 73 3 94 7 l39 7 -88 78 c-48 42 -91 77 -94 77 -4 0 -27 -21 -51 -46z"/><path d="M14790 14610 c0 -8 22 -109 49 -225 27 -115 54 -258 62 -317 7 -60 16 -108 20 -108 5 0 41 29 82 65 41 36 79 65 84 65 5 0 48 -48 95 -107 375 -475 673 -972 897 -1498 75 -176 175 -445 222 -598 35 -115 33 -126 -16 -127 -53 -1 -42 -18 117 -188 89 -94 163 -170 166 -168 6 6 -53 242 -104 415 -237 806 -633 1565 -1161 2229 -185 232 -512 591 -513 562z"/><path d="M3680 10872 c0 -4 -7 -59 -15 -122 -33 -264 -40 -402 -40 -790 0 -414 7 -525 51 -860 99 -759 356 -1560 715 -2224 104 -194 201 -356 211 -356 5 0 6 17 3 38 -3 20 -12 87 -19 148 l-13 111 -141 284 c-192 388 -318 710 -426 1085 -205 719 -284 1460 -237 2224 l14 215 -43 128 c-23 70 -46 127 -51 127 -5 0 -9 -4 -9 -8z"/><path d="M13986 7323 c-49 -153 -59 -218 -54 -331 6 -99 42 -235 63 -234 5 1 33 128 62 284 29 156 54 295 57 311 5 23 0 31 -34 52 -22 14 -44 25 -49 25 -6 0 -26 -48 -45 -107z"/></g></svg>