<svg xmlns="http://www.w3.org/2000/svg" data-name="Layer 1" viewBox="0 0 1080 1350" x="0px" y="0px"><rect x="454.7" y="454.7" width="170.6" height="170.6"/><path d="M872.45,562.35a51.37,51.37,0,1,0,0-33H745.71v-29h71.07a16.5,16.5,0,0,0,0-33H745.71v-29h25.47c19.49,0,55.77,0,81.84-31.44,9.65-11.63,15.84-19.39,19.75-24.43a51.5,51.5,0,1,0-25.72-20.68c-3.49,4.52-9.49,12-19.43,24-14.94,18-35.22,19.51-56.44,19.51H745.71V377.72a43.48,43.48,0,0,0-43.43-43.43h-22.4V317.24c0-21.21,1.49-41.49,19.5-56.43,5.55-4.6,9.43-7.8,12.16-10.05a51.4,51.4,0,1,0-20.22-26.1c-3.21,2.64-7.56,6.24-13,10.75-31.44,26.07-31.44,62.35-31.44,81.83v17.05H618.32V236.54a16.5,16.5,0,1,0-33,0v97.75H556.5V207.55a51.37,51.37,0,1,0-33,0V334.29h-29V263.22a16.5,16.5,0,0,0-33,0v71.07h-29V308.82c0-19.49,0-55.77-31.44-81.84-11.64-9.65-19.39-15.84-24.43-19.75A51.5,51.5,0,1,0,356,233c4.52,3.49,12.05,9.49,24,19.43,18,14.94,19.51,35.22,19.51,56.44v25.47H377.72a43.48,43.48,0,0,0-43.43,43.43v16.55H317.24c-21.21,0-41.49-1.49-56.43-19.5-4.6-5.55-7.8-9.43-10.05-12.16a51.34,51.34,0,1,0-26.1,20.22c2.64,3.21,6.24,7.56,10.75,13,26.07,31.44,62.35,31.44,81.83,31.44h17.05v28.55H236.54a16.5,16.5,0,0,0,0,33h97.75v28.83H207.55a51.37,51.37,0,1,0,0,33H334.29v29H263.22a16.5,16.5,0,0,0,0,33h71.07v29H308.82c-19.49,0-55.77,0-81.84,31.44-9.65,11.63-15.84,19.39-19.75,24.43A51.5,51.5,0,1,0,233,718.15c3.49-4.52,9.49-12,19.43-24,14.94-18,35.22-19.5,56.44-19.5h25.47v27.68a43.48,43.48,0,0,0,43.43,43.43h33.73v17c0,21.21-1.49,41.49-19.5,56.43-5.55,4.6-9.43,7.8-12.16,10A51.4,51.4,0,1,0,400,855.34c3.21-2.64,7.56-6.24,13-10.75,31.44-26.07,31.44-62.34,31.44-81.83v-17H473v97.75a16.5,16.5,0,0,0,33,0V745.71h28.82V872.45a51.37,51.37,0,1,0,33,0V745.71h29v71.07a16.5,16.5,0,0,0,33,0V745.71h29v25.47c0,19.49,0,55.77,31.43,81.84,11.64,9.65,19.39,15.84,24.43,19.75a51.5,51.5,0,1,0,20.68-25.72c-4.52-3.49-12.05-9.49-24-19.43-18-14.94-19.5-35.22-19.5-56.44V745.71h10.49a43.48,43.48,0,0,0,43.43-43.43V685.73h17c21.21,0,41.49,1.49,56.43,19.5,4.6,5.55,7.8,9.43,10,12.16a51.34,51.34,0,1,0,26.1-20.22c-2.64-3.21-6.24-7.56-10.75-13-26.07-31.44-62.34-31.44-81.83-31.44h-17V624.17h97.75a16.5,16.5,0,0,0,0-33H745.71V562.35Zm48.63-34.87a18.37,18.37,0,1,1-18.37,18.37A18.39,18.39,0,0,1,921.08,527.48ZM890.35,315.9A18.37,18.37,0,1,1,872,334.27,18.39,18.39,0,0,1,890.35,315.9ZM739.88,189.58A18.37,18.37,0,1,1,721.51,208,18.39,18.39,0,0,1,739.88,189.58ZM540,140.55a18.37,18.37,0,1,1-18.37,18.37A18.39,18.39,0,0,1,540,140.55ZM328.41,208a18.37,18.37,0,1,1,18.37-18.37A18.4,18.4,0,0,1,328.41,208ZM189.58,334.27A18.37,18.37,0,1,1,208,352.63,18.39,18.39,0,0,1,189.58,334.27ZM158.92,552.52a18.37,18.37,0,1,1,18.37-18.37A18.39,18.39,0,0,1,158.92,552.52ZM189.65,764.1A18.37,18.37,0,1,1,208,745.73,18.39,18.39,0,0,1,189.65,764.1Zm161.8,126.32a18.37,18.37,0,1,1,18.37-18.37A18.39,18.39,0,0,1,351.45,890.42Zm199.88,49a18.37,18.37,0,1,1,18.37-18.37A18.39,18.39,0,0,1,551.33,939.45ZM762.92,872a18.37,18.37,0,1,1-18.37,18.37A18.39,18.39,0,0,1,762.92,872ZM658.3,641.8a16.5,16.5,0,0,1-16.5,16.5H438.2a16.5,16.5,0,0,1-16.5-16.5V438.2a16.5,16.5,0,0,1,16.5-16.5H641.8a16.5,16.5,0,0,1,16.5,16.5ZM890.42,745.73a18.37,18.37,0,1,1-18.37-18.36A18.39,18.39,0,0,1,890.42,745.73Z"/></svg>