<svg xmlns="http://www.w3.org/2000/svg" version="1.1" viewBox="-5.0 -10.0 110.0 135.0">
 <path d="m11.301 60.602h7.1992c0.5 0 1-0.30078 1.1992-0.80078l3.8008-9 7.1992 17.199c0.19922 0.5 0.69922 0.80078 1.1992 0.80078s1-0.30078 1.1992-0.80078l5.1016-12.199 2.5 4.1992c0.19922 0.39844 0.69922 0.60156 1.1016 0.60156h11.199c1.6992 1.5 3.1016 2.8008 4.5 3.8984 2.6992 2.1992 5.1992 4.1016 7.6992 5.6992 0.19922 0.10156 0.5 0.19922 0.69922 0.19922 0.19922 0 0.5-0.10156 0.69922-0.19922 6-3.8984 11.199-8.6016 15.602-12.699 5.6992-5.3984 8.3008-10.801 7.6992-16.102-0.39844-3.8984-2.6992-7.5-6.1016-9.6992-3.1992-2.1016-7-2.6016-10.5-1.5-3.8984 1.3008-6.1992 4-7.3984 6.3008-1.1992-2.1992-3.3984-5-7.3984-6.3008-3.5-1.1016-7.3008-0.60156-10.5 1.5-3.3984 2.1992-5.6992 5.8008-6.1016 9.6992-0.30078 3 0.39844 6.1016 2.1992 9.3008 0.39844 0.60156 1.1016 0.80078 1.8008 0.5 0.60156-0.39844 0.80078-1.1016 0.5-1.8008-1.5-2.6016-2.1016-5.1992-1.8008-7.6992 0.39844-3.1016 2.1992-6 5-7.8008 2.6016-1.6992 5.6016-2.1016 8.3008-1.1992 5.5 1.6992 6.8008 7.1992 6.8984 7.5 0.10156 0.60156 0.69922 1 1.3008 1 0.60156 0 1.1016-0.39844 1.3008-1 0.10156-0.19922 1.3984-5.6992 6.8984-7.5 2.6992-0.89844 5.8008-0.39844 8.3008 1.1992 2.6992 1.8008 4.6016 4.6992 5 7.8008 0.5 4.3984-1.8008 9.1016-6.8984 13.898-4.1016 3.8984-9 8.3008-14.5 11.898-2.1992-1.3984-4.3984-3.1016-6.6992-5-1.5-1.1992-3-2.5-4.8008-4.1992 0 0-0.10156-0.10156-0.19922-0.10156-0.10156-0.10156-0.19922-0.10156-0.19922-0.10156-0.10156 0-0.19922 0-0.30078-0.10156h-0.19922l-11.199 0.007812-3.3984-5.6992c-0.30078-0.39844-0.69922-0.60156-1.1992-0.60156s-0.89844 0.30078-1.1016 0.80078l-5 11.699-7.2031-17.199c-0.19922-0.5-0.69922-0.80078-1.1992-0.80078s-1 0.30078-1.1992 0.80078l-4.6992 11h-6.3008c-0.69922 0-1.3008 0.60156-1.3008 1.3008s0.60156 1.3008 1.3008 1.3008z"/>
</svg>