<svg xmlns="http://www.w3.org/2000/svg" viewBox="0 0 32 40" x="0px" y="0px"><path d="m11.95947265625,1.5c-1.09521484375,0-2.1318359375.7724609375-2.9189453125,2.173828125-.7060546875,1.2587890625-1.1103515625,2.8603515625-1.10888671875,4.396484375.00146484375,1.5322265625.3974609375,2.8408203125,1.14599609375,3.783203125.3704833984375.46630859375.81756591796875.8240966796875,1.3148193359375,1.06591796875.150390625.17803955078125.6436767578125.8712158203125.5499267578125,2.21142578125-.0517578125.7265625-.185546875,1.96484375-.333984375,3.3388671875-.2265625,2.0986328125-.4833984375,4.4775390625-.54248046875,5.888671875-.0595703125,1.451171875.0654296875,3.2099609375.1806640625,4.4296875.0849609375.8994140625.830078125,1.5771484375,1.73291015625,1.5771484375h.0029296875c.90478515625,0,1.64990234375-.6796875,1.7333984375-1.580078125.11328125-1.22265625.2353515625-2.9833984375.1728515625-4.4296875-.06005859375-1.4091796875-.32080078125-3.7861328125-.55078125-5.8837890625-.150390625-1.375-.28662109375-2.615234375-.33935546875-3.3427734375-.0968017578125-1.33404541015625.39373779296875-2.0302734375.54608154296875-2.2120361328125.4964599609375-.2425537109375.942626953125-.6011962890625,1.31231689453125-1.0682373046875.74658203125-.943359375,1.14111328125-2.251953125,1.1396484375-3.7841796875-.00244140625-3.10546875-1.6611328125-6.564453125-4.037109375-6.564453125Zm.0419921875,13.701171875c.052734375.7353515625.18994140625,1.9892578125.34228515625,3.3798828125.228515625,2.0810546875.4873046875,4.4404296875.5458984375,5.8173828125.06005859375,1.390625-.05908203125,3.103515625-.169921875,4.294921875-.03515625.3828125-.3525390625.671875-.73876953125.671875h-.0009765625c-.384765625,0-.70166015625-.2880859375-.73828125-.6708984375-.1123046875-1.189453125-.23388671875-2.8994140625-.1767578125-4.294921875.0576171875-1.376953125.3125-3.7392578125.53759765625-5.8232421875.14990234375-1.3876953125.28515625-2.640625.3369140625-3.375.0582275390625-.82867431640625-.0721435546875-1.4686279296875-.248046875-1.951904296875.09210205078125.00689697265625.1798095703125.031005859375.2734375.031005859375h.00390625c.0947265625-.00006103515625.18341064453125-.02447509765625.27655029296875-.0316162109375-.17529296875.4837646484375-.3040771484375,1.1239013671875-.24383544921875,1.9525146484375Zm2.0712890625-3.9736328125c-.54443359375.6884765625-1.2724609375,1.052734375-2.10498046875,1.052734375-.85546875-.021484375-1.5615234375-.361328125-2.10693359375-1.048828125-.60693359375-.763671875-.92822265625-1.857421875-.92919921875-3.1611328125-.0009765625-1.3701171875.3564453125-2.7939453125.98095703125-3.90625.59375-1.0576171875,1.33935546875-1.6640625,2.046875-1.6640625,1.5302734375,0,3.03466796875,2.7568359375,3.037109375,5.564453125.0009765625,1.3046875-.318359375,2.3984375-.923828125,3.1630859375Z"/><path d="m23.49755859375,4.2822265625c-.232421875-1.2421875-.40478515625-1.9892578125-.54150390625-2.3515625-.083984375-.2216796875-.31201171875-.3525390625-.5419921875-.3173828125-.23291015625.03515625-.40966796875.2275390625-.4248046875.462890625l-.41162109375,6.4755859375c-.017578125.275390625.19189453125.5126953125.46728515625.5302734375.26953125.02734375.5126953125-.19140625.53076171875-.4677734375l.1748046875-2.7529296875c.08544921875.5283203125.162109375,1.029296875.22021484375,1.439453125.1435546875.98046875.1298828125,1.8359375-.04248046875,2.615234375-.365234375,1.6298828125-1.24951171875,2.6376953125-2.31201171875,2.6376953125h-.02392578125c-.0001220703125,0-.00018310546875.00006103515625-.00030517578125.00006103515625-.00006103515625,0-.0001220703125-.00006103515625-.00018310546875-.00006103515625-1.06689453125-.0146484375-1.92919921875-1.0498046875-2.25-2.7001953125-.150390625-.78515625-.140625-1.6416015625.0302734375-2.6171875.0927734375-.5224609375.18359375-1.0185546875.271484375-1.48046875l.109375,2.81640625c.0107421875.2763671875.2587890625.4921875.51904296875.48046875.27587890625-.0107421875.49072265625-.2431640625.47998046875-.51953125l-.25146484375-6.494140625c-.0087890625-.2333984375-.1787109375-.4296875-.408203125-.4716796875-.22998046875-.044921875-.458984375.078125-.55078125.2939453125-.34619140625.8056640625-.87158203125,3.6044921875-1.154296875,5.2021484375-.1923828125,1.09765625-.201171875,2.072265625-.02734375,2.9794921875.26190185546875,1.34619140625.84613037109375,2.37640380859375,1.632568359375,2.962890625.1087646484375.12353515625.6595458984375.82275390625.538330078125,2.244140625-.0625.7275390625-.21484375,1.966796875-.38427734375,3.3408203125-.25732421875,2.09375-.54931640625,4.4658203125-.62841796875,5.873046875-.08251953125,1.4501953125.0166015625,3.2109375.11376953125,4.43359375.07177734375.9013671875.80810546875,1.58984375,1.71240234375,1.6025390625h.02490234375c.892578125,0,1.634765625-.6640625,1.73095703125-1.5537109375.1318359375-1.2197265625.2802734375-2.9775390625.23974609375-4.427734375-.0400390625-1.41015625-.26513671875-3.7919921875-.46337890625-5.8935546875-.13037109375-1.3759765625-.24755859375-2.6171875-.28955078125-3.3447265625-.08599853515625-1.502197265625.5545654296875-2.18365478515625.61248779296875-2.2413330078125.79779052734375-.56622314453125,1.4068603515625-1.57470703125,1.70489501953125-2.9051513671875.19921875-.9013671875.21728515625-1.875.05615234375-2.9755859375-.109375-.775390625-.28564453125-1.8740234375-.462890625-2.8759765625Zm-2.61669921875,14.4365234375c.19677734375,2.0859375.42041015625,4.4501953125.458984375,5.8271484375.0390625,1.39453125-.10546875,3.1044921875-.23388671875,4.29296875-.041015625.37890625-.35693359375.6611328125-.7373046875.6611328125h-.0107421875c-.38525390625-.0048828125-.69873046875-.298828125-.72900390625-.6826171875-.09521484375-1.1904296875-.19140625-2.9033203125-.11279296875-4.296875.07763671875-1.3740234375.3671875-3.7294921875.623046875-5.8076171875.1708984375-1.388671875.3251953125-2.642578125.3876953125-3.376953125.06341552734375-.74188232421875-.0286865234375-1.340576171875-.17120361328125-1.80914306640625.07427978515625.0072021484375.14544677734375.02569580078125.22137451171875.02679443359375.000244140625,0,.0003662109375.0001220703125.0006103515625.0001220703125h.0400390625c.0660400390625,0,.128173828125-.01580810546875.193115234375-.02044677734375-.15570068359375.46435546875-.2645263671875,1.06024169921875-.221923828125,1.80364990234375.0419921875.7353515625.16064453125,1.9912109375.2919921875,3.3818359375Z"/><path d="m20.65283203125,9.1044921875c.27294921875,0,.49609375-.2197265625.5-.4931640625l.09130859375-6.4677734375c.00390625-.2763671875-.216796875-.5029296875-.4931640625-.5068359375h-.0068359375c-.27294921875,0-.49609375.21875-.5.4931640625l-.09130859375,6.4677734375c-.00390625.2763671875.216796875.5029296875.4931640625.5068359375h.0068359375Z"/></svg>