<svg xmlns="http://www.w3.org/2000/svg" xmlns:xlink="http://www.w3.org/1999/xlink" xml:space="preserve" version="1.1" style="shape-rendering:geometricPrecision;text-rendering:geometricPrecision;image-rendering:optimizeQuality;" viewBox="0 0 60000 75000" x="0px" y="0px" fill-rule="evenodd" clip-rule="evenodd"><defs><style type="text/css">
   
    .fil0 {fill:black;fill-rule:nonzero}
   
  </style></defs><g><path class="fil0" d="M50589.6 21945.5l0 -16193.48c0,-539.11 -39.8,-911.27 -197.22,-1112.4 -137.69,-175.93 -426.55,-256.89 -950.17,-256.89l-27286.85 0c-523.61,0 -812.47,80.96 -950.17,256.89 -157.41,201.13 -197.22,573.29 -197.22,1112.4l0 954.54 1790.66 820c41.25,-254.19 119.46,-465.3 257.77,-642.01 257.57,-329.1 659.4,-480.53 1317.21,-480.53l22850.35 0c657.84,0 1059.64,151.43 1317.22,480.53 237.86,303.91 298,709.52 298,1261.17l0 15444.8c25.53,-5.41 51.5,-11.32 77.77,-17.74 9.4,-2.68 18.85,-5.05 28.33,-7.09 90.78,-23.22 184.46,-52.26 274.93,-86.65 166,-63.1 305.67,-136.1 356.19,-207.45 61.83,-87.34 129.01,-201.58 200.02,-322.36 161.31,-274.34 339.89,-578.02 592.85,-822.7 71.17,-68.84 144.89,-129.06 220.33,-181.03zm-25900.53 21264.42c-146.27,0 -264.85,-111.93 -264.85,-250 0,-138.07 118.58,-250 264.85,-250l6091.78 0c146.28,0 264.86,111.93 264.86,250 0,138.07 -118.58,250 -264.86,250l-6091.78 0zm9068.79 0c-146.27,0 -264.85,-111.93 -264.85,-250 0,-138.07 118.58,-250 264.85,-250l3996.97 0c146.27,0 264.85,111.93 264.85,250 0,138.07 -118.58,250 -264.85,250l-3996.97 0zm-8434.89 2726.5c-146.27,0 -264.85,-111.93 -264.85,-250 0,-138.07 118.58,-250 264.85,-250l2480.8 0c146.27,0 264.85,111.93 264.85,250 0,138.07 -118.58,250 -264.85,250l-2480.8 0zm5457.81 0c-146.28,0 -264.86,-111.93 -264.86,-250 0,-138.07 118.58,-250 264.86,-250l3996.96 0c146.28,0 264.86,111.93 264.86,250 0,138.07 -118.58,250 -264.86,250l-3996.96 0zm4823.87 2891.49c146.27,0 264.85,111.93 264.85,250 0,138.07 -118.58,250 -264.85,250l-6091.79 0c-146.27,0 -264.86,-111.93 -264.86,-250 0,-138.07 118.59,-250 264.86,-250l6091.79 0zm-9068.8 0c146.27,0 264.85,111.93 264.85,250 0,138.07 -118.58,250 -264.85,250l-1502.4 0c-146.28,0 -264.86,-111.93 -264.86,-250 0,-138.07 118.58,-250 264.86,-250l1502.4 0zm5540.53 2975.88c146.27,0 264.85,111.93 264.85,250 0,138.07 -118.58,250 -264.85,250l-6091.78 0c-146.27,0 -264.85,-111.93 -264.85,-250 0,-138.07 118.58,-250 264.85,-250l6091.78 0zm-1812.52 -36028.32l80.92 494.14 -523.49 76.38 -80.92 -494.14 523.49 -76.38zm2054.07 6038.44l-296.46 -348.19 -412.9 313.22 296.46 348.19 412.9 -313.22zm-1291.94 -1517.4l-412.9 313.22 -331.82 -389.73 412.9 -313.22 331.82 389.73zm-1561.57 -1834.06l-412.89 313.22 -331.82 -389.73 412.89 -313.22 331.82 389.73zm-4513.12 4698.33l171.24 -416.44 -493.81 -180.92 -171.25 416.44 493.82 180.92zm746.23 -1814.8l-493.81 -180.92 191.66 -466.12 493.81 180.92 -191.66 466.12zm901.93 -2193.53l-493.81 -180.92 191.66 -466.12 493.81 180.92 -191.66 466.12zm-2065.53 -1997l-80.92 -494.14 523.49 -76.38 80.92 494.14 -523.49 76.38zm799.44 -2686.97l412.89 -313.22 331.82 389.73 -412.89 313.22 -331.82 -389.73zm4513.11 -4698.33l-171.23 416.43 493.81 180.92 171.23 -416.43 -493.81 -180.92zm-746.22 1814.8l493.81 180.92 -191.66 466.12 -493.81 -180.92 191.66 -466.12zm-901.94 2193.53l493.82 180.92 -191.66 466.12 -493.81 -180.92 191.65 -466.12zm6567.19 1340.11l-467.68 68.25 80.92 494.14 467.67 -68.25 -80.91 -494.14zm-2038.15 297.41l80.92 494.14 -523.49 76.38 -80.92 -494.14 523.49 -76.38zm-3157.43 2496.3c-126.27,-68.49 -169.81,-220.65 -97.25,-339.84 72.55,-119.19 233.76,-160.29 360.03,-91.8l1169.34 637.25c126.27,68.49 169.81,220.65 97.25,339.84 -72.56,119.19 -233.76,160.29 -360.03,91.8l-1169.34 -637.25zm2365.94 1289.93c-126.27,-69.03 -169.35,-221.63 -96.22,-340.82 73.14,-119.19 234.8,-159.85 361.07,-90.82l2461.29 1341.33c126.27,69.03 169.35,221.63 96.22,340.82 -73.13,119.19 -234.8,159.85 -361.07,90.82l-2461.29 -1341.33zm-2124.94 -3787.57c-126.28,68.49 -287.48,27.39 -360.04,-91.8 -72.56,-119.19 -29.01,-271.35 97.26,-339.84l1169.35 -637.26c126.27,-68.49 287.47,-27.39 360.03,91.8 72.56,119.19 29.02,271.35 -97.25,339.84l-1169.35 637.26zm2366.97 -1289.94c-126.27,68.49 -287.47,27.39 -360.03,-91.8 -72.56,-119.19 -29.02,-271.35 97.26,-339.84l2461.28 -1341.32c126.28,-68.49 287.48,-27.39 360.04,91.8 72.56,119.19 29.01,271.35 -97.26,339.84l-2461.29 1341.32zm-4535.93 -156.9c0,138.07 -118.58,250 -264.85,250 -146.28,0 -264.86,-111.93 -264.86,-250l0 -1274.52c0,-138.07 118.58,-250 264.86,-250 146.27,0 264.85,111.93 264.85,250l0 1274.52zm0 -2579.87c0,138.07 -118.58,250 -264.85,250 -146.28,0 -264.86,-111.93 -264.86,-250l0 -2682.64c0,-138.07 118.58,-250 264.86,-250 146.27,0 264.85,111.93 264.85,250l0 2682.64zm-2414.11 3630.68c126.27,68.49 169.81,220.65 97.25,339.84 -72.55,119.19 -233.76,160.29 -360.03,91.8l-1169.35 -637.26c-126.27,-68.49 -169.81,-220.65 -97.25,-339.84 72.56,-119.19 233.76,-160.29 360.03,-91.8l1169.35 637.26zm-241.01 2497.63c126.28,-68.49 287.48,-27.39 360.04,91.8 72.56,119.19 29.01,271.35 -97.26,339.84l-1169.35 637.26c-126.27,68.49 -287.47,27.39 -360.03,-91.8 -72.56,-119.19 -29.02,-271.35 97.25,-339.84l1169.35 -637.26zm2168.97 1446.85c0,-138.07 118.58,-250 264.85,-250 146.27,0 264.86,111.93 264.86,250l0 1274.51c0,138.07 -118.59,250 -264.86,250 -146.27,0 -264.85,-111.93 -264.85,-250l0 -1274.51zm0 2579.86c0,-138.07 118.58,-250 264.85,-250 146.27,0 264.86,111.93 264.86,250l0 2682.65c0,138.07 -118.59,250 -264.86,250 -146.27,0 -264.85,-111.93 -264.85,-250l0 -2682.65zm20835.83 2095.89l0 -15493.14c0,-389.2 -26.08,-654.46 -129.16,-786.17 -83.36,-106.52 -277.3,-155.53 -638.53,-155.53l-22850.35 0c-361.23,0 -555.16,49.01 -638.53,155.53 -103.08,131.71 -129.15,396.97 -129.15,786.17l0 45231.72c0,389.2 26.07,654.46 129.15,786.17 83.37,106.52 277.3,155.53 638.53,155.53l9627.8 0c3.04,-7.1 6.28,-14.17 9.78,-21.18l9662.14 -19258.67c-44,-5.17 -87.89,-16.99 -130.09,-36.04 -3129.69,-1413.36 -5827.84,-2767.48 -7573.4,-3905.76 -1590.62,-1037.26 -2435.6,-1965.37 -2203.6,-2707.7 -16.78,-125.48 29.85,-256.4 137.26,-347.12 1799.47,-1522.7 3959.74,-2568.24 6252.94,-3257.83 2552.8,-767.65 5270.64,-1093.52 7835.21,-1145.98zm-13055.42 30680.28l1713.78 0c5.54,-17.09 12.34,-34.02 20.49,-50.7l10632.79 -21601.35c10.44,-21.35 22.63,-41.41 36.32,-60.11 -213.21,-94.7 -428.15,-189.63 -644.71,-284.73 -200.66,-88.12 -400.29,-175.31 -598.82,-261.57 -6.42,22.26 -14.98,44.29 -25.77,65.88l-11134.08 22192.58zm2641.97 0l9645.76 0c361.23,0 555.17,-49.01 638.53,-155.53 103.08,-131.71 129.16,-396.97 129.16,-786.17l0 -16447.4c-471.71,-194.58 -952.82,-396.69 -1441.67,-605.34 -32.58,-13.86 -62.41,-31.16 -89.2,-51.2l-8882.58 18045.64zm11260.98 -17043.59l0 16101.89c0,551.65 -60.14,957.26 -298,1261.17 -257.58,329.1 -659.38,480.53 -1317.22,480.53l-22850.35 0c-657.81,0 -1059.64,-151.43 -1317.21,-480.53 -83.88,-107.16 -145.63,-226.99 -190.47,-361.39l-15767.14 5141.04c-542.94,177.03 -987.56,283.32 -1441.62,290.05 -467.31,6.93 -920.28,-89.84 -1462.46,-320.35l-1681.14 -714.71c-380.17,-161.62 -608.33,-339.21 -752.26,-595.31 -135.33,-240.79 -168.14,-508.31 -168.14,-873.37l0 -54743.91c0,-473.51 52.44,-781.95 253.01,-1037.73 201.92,-257.52 500.83,-393.33 990.9,-517.86l0.29 1c11.28,-2.83 22.78,-5.27 34.48,-7.25l3263.7 -552.45c364.56,-109.76 818.43,-58.06 1377.2,180.09l-0.11 0.25 10.05 4.43 12637.75 5787.3 0 -566.42c0,-701.57 73.88,-1214.08 366.07,-1587.4 311.9,-398.53 808.65,-581.89 1628.85,-581.89l27286.85 0c820.2,0 1316.95,183.36 1628.85,581.89 292.19,373.32 366.07,885.83 366.07,1587.4l0 15935.86c162.17,6.31 317.71,43.75 459.82,108.99 213.55,98.02 394.1,256.66 518.65,464.57 143.39,239.37 212.33,541.44 167.94,884.79 -41.96,324.47 -166.59,633.07 -279.65,913.01 -54.55,135.06 -106.14,262.8 -133.53,352.1 -25,81.56 6.23,230.03 62.48,391.85 44.09,126.87 101.68,251.37 161.92,359.1 7.89,12.15 15.13,24.77 21.66,37.83 50.28,85.74 101.49,158.81 147.45,211.04 1735.53,1971.91 3357.29,4280.21 4449.04,6776.76 917.91,2099.04 1461.92,4331.54 1387.09,6611.21 -3.99,136.96 -80.72,255.87 -194.31,324.7 -454.75,643.75 -1750.15,631.3 -3612.1,151.8 -911.52,-234.75 -1977.15,-577.25 -3156.46,-1003.38l0 17498.89c0,701.57 -73.88,1214.08 -366.07,1587.4 -311.9,398.53 -808.65,581.89 -1628.85,581.89l-27286.85 0c-820.2,0 -1316.95,-183.36 -1628.85,-581.89 -292.19,-373.32 -366.07,-885.83 -366.07,-1587.4 0,-220.91 189.73,-400 423.77,-400 234.03,0 423.76,179.09 423.76,400 0,539.11 39.81,911.27 197.22,1112.4 137.7,175.93 426.56,256.89 950.17,256.89l27286.85 0c523.62,0 812.48,-80.96 950.17,-256.89 157.42,-201.13 197.22,-573.29 197.22,-1112.4l0 -17812c-562.9,-212.28 -1147.67,-440.92 -1750.42,-683.59zm-4822.72 -2920.2l1289.08 -2569.41c9.27,-18.55 19.86,-36.11 31.61,-52.63 -2976.6,-1274.33 -5661.74,-2306.71 -7660.24,-2863.01 -1765.22,-491.37 -2911.67,-638.3 -3092.83,-270.76 -164.37,333.5 552.5,985.27 1865.8,1841.69 1708.98,1114.43 4367.39,2447.76 7457.55,3843.26 41.18,18.59 77.68,42.68 109.03,70.86zm4077.41 -1410.89c-5.88,19.23 -13.35,38.28 -22.5,57.01l-1263.89 2567.67c30.41,5.82 60.64,14.9 90.12,27.44 3126.52,1334.47 5920.25,2395.86 7917.81,2910.29 1540.1,396.62 2529.82,495.03 2693.48,162.98 181.94,-369.16 -675.21,-1102.9 -2210.38,-2060.88 -1729.23,-1079.07 -4276.3,-2344.63 -7204.64,-3664.51zm9413.63 4280.23c-151.66,-1622.78 -610.97,-3213.12 -1275.91,-4733.65 -905.04,-2069.6 -2190.08,-4009.49 -3600.06,-5727.64 70.43,1964.05 -413.84,4354.75 -955.57,6967.82 1605.2,786.28 3002.54,1533.93 4089.35,2212.13 718.33,448.25 1307.56,877.36 1742.19,1281.34zm-5873.75 -11718.51c-78.63,-142.62 -151.11,-299.87 -205.41,-456.11 -102.55,-295.05 -147.12,-606.12 -69.09,-860.61 44.37,-144.67 97.37,-275.91 153.39,-414.6 95.27,-235.9 200.3,-495.95 229.98,-725.51 21.34,-165.09 -4.63,-298.39 -62,-394.15 -38.59,-64.42 -91.15,-112.03 -151.16,-139.57 -60.15,-27.61 -130.6,-37.28 -204.86,-25.84 -110.29,16.99 -231.1,78.51 -349.47,193 -176,170.24 -325.43,424.36 -460.42,653.94 -79.59,135.38 -154.91,263.44 -236.45,378.62 -155.42,219.51 -437,387.79 -743.53,504.31 -109.74,41.72 -225.26,77.68 -340.18,107.45 -973.2,490.05 -1986.64,1315.71 -3031.93,2340.02 -978.95,959.3 -1983.41,2091.68 -3008.09,3286.95 1232.27,494.68 2541.53,1048.97 3894.62,1643.17 1354.08,594.65 2647.46,1183.3 3842.68,1754.66 643.5,-3109.94 1181.57,-5880.08 741.92,-7845.73zm-4160.41 -1055.61c-2331.7,83.07 -4768.95,404.12 -7061.98,1093.65 -1660.33,499.28 -3244.87,1192.12 -4657.57,2128.18 607.62,53.36 1335.19,202.27 2161.49,432.28 1250.3,348.04 2756.5,875.42 4427.62,1527.92 1090.5,-1275.93 2160.66,-2489.78 3210.55,-3518.59 646.63,-633.64 1286.47,-1197.51 1919.89,-1663.44zm-24714.34 29018.8c-0.41,-30.19 -0.61,-60.82 -0.61,-91.93l0 -44982.25 -15593.2 -7140.72 -0.05 0.11c-295.14,-125.79 -520.51,-174.76 -685.68,-156.83l-61.88 10.48c-72.53,17.12 -131.2,49.65 -177.07,96.51 -208.02,212.5 -294.54,669.96 -294.82,1307.97l50.13 54711.39c-0.09,181.56 28.88,346.56 82.22,492.31 84.38,230.58 232.41,415.62 423.56,542.47 192.29,127.61 430.56,197.82 694.11,197.93 172.86,0.07 356.98,-29.28 547.21,-91.3l0.31 -0.09 15015.77 -4896.05zm-16786.05 5413.95c-312.71,-219.63 -554.1,-528.57 -692.78,-907.53 -83.42,-227.93 -128.7,-480.1 -128.58,-751.69l-50.13 -54711.39c0.21,-468.65 47.85,-875.22 153.74,-1207.72l-2203.84 373.04c-296.85,75.61 -461.45,136.95 -526.5,219.9 -66.71,85.08 -84.16,261.18 -84.16,562.73l0 54743.91c0,240.96 13.44,402.93 68.83,501.49 46.79,83.25 153.88,155 351.65,239.07l1681.15 714.71c424.7,180.56 765.53,256.57 1101.6,251.59 107.16,-1.59 216.12,-11.2 329.02,-28.11z"/></g></svg>