<svg xmlns="http://www.w3.org/2000/svg" version="1.1" viewBox="-5.0 -10.0 110.0 135.0">
 <path d="m50.094 6c-5.5117 0-10 4.4883-10 10s4.4883 10 10 10 10-4.4883 10-10-4.4883-10-10-10zm0 2c4.4297 0 8 3.5703 8 8s-3.5703 8-8 8-8-3.5703-8-8 3.5703-8 8-8zm-24.191 2c-4.957 0-9 4.043-9 9s4.043 9 9 9c4.957 0 9-4.043 9-9s-4.043-9-9-9zm48.191 0c-4.957 0-9 4.043-9 9s4.043 9 9 9 9-4.043 9-9-4.043-9-9-9zm-48.191 2c3.8789 0 7 3.1211 7 7s-3.1211 7-7 7-7-3.1211-7-7 3.1211-7 7-7zm48.191 0c3.8789 0 7 3.1211 7 7s-3.1211 7-7 7-7-3.1211-7-7 3.1211-7 7-7zm-24 18c-2.6641 0-9.7578 0.023438-13.906 3.4062-2.707-0.99219-6.0898-1.4062-10.246-1.4062-6.0781 0-10.535 0.88281-13.559 3.1719-3.0234 2.2891-4.3828 5.9414-4.3828 10.828v11c0 1.7305 0.65625 3.082 1.6445 3.8984 0.98828 0.81641 2.2148 1.1016 3.3438 1.1016 1.0078 0 2.0664-0.28906 2.9883-0.90625v27.906c0 0.23438 0.30469 1.375 1.0234 2.5312 0.71875 1.1523 2.0234 2.4688 3.9609 2.4688 1.9414 0 3.3984-1.2344 4.3672-2.3438 0.39453-0.44922 0.37109-0.52344 0.61719-0.90234 0.24609 0.375 0.22266 0.44922 0.61328 0.90234 0.96484 1.1055 2.4258 2.3438 4.3672 2.3438 1.9414 0 3.2461-1.3203 3.9609-2.4688 0.73047-1.1719 1.0234-2.3086 1.0234-2.5312v-29.109c0.91016 0.17578 2.5898 0.27344 4.1836-0.80469v29.914c0 0.23828 0.30469 1.375 1.0234 2.5312 0.71875 1.1523 2.0312 2.4688 3.9766 2.4688s3.4102-1.2344 4.3789-2.3398c0.39844-0.45312 0.375-0.53125 0.62109-0.90625 0.24609 0.37891 0.22656 0.45312 0.625 0.90625 0.96875 1.1055 2.4336 2.3398 4.3789 2.3398 1.9453 0 3.2539-1.3164 3.9727-2.4688 0.73047-1.168 1.0273-2.3047 1.0273-2.5312v-29.91c1.4961 1.0117 3.0625 0.98438 3.9922 0.83203v29.078c0 0.21875 0.29297 1.3555 1.0234 2.5312 0.71875 1.1523 2.0234 2.4688 3.9609 2.4688 1.9414 0 3.4023-1.2344 4.3672-2.3438 0.39453-0.44922 0.37109-0.52344 0.61328-0.90234 0.24609 0.375 0.22266 0.44922 0.61719 0.90234 0.96484 1.1055 2.4258 2.3438 4.3672 2.3438 1.9414 0 3.2461-1.3203 3.9609-2.4688 0.71875-1.1562 1.0234-2.293 1.0234-2.5312v-27.906c0.92187 0.62109 1.9766 0.90625 2.9883 0.90625 1.125 0 2.3516-0.28516 3.3438-1.1016 0.98828-0.81641 1.6445-2.168 1.6445-3.8984v-11c0-4.8867-1.3594-8.5391-4.3828-10.828-3.0234-2.2891-7.4805-3.1719-13.559-3.1719-4.0898 0-7.4297 0.40625-10.113 1.3594-4.1484-3.3281-11.152-3.3633-13.848-3.3594zm0 2c5.9023 0 9.9297 0.91016 12.398 2.7656 2.4648 1.8594 3.6016 4.6992 3.6016 9.2344v11c0 1.2656-0.39062 1.918-0.91797 2.3516-0.53125 0.4375-1.3008 0.64844-2.082 0.64844-0.79688 0-1.5664-0.21484-2.0898-0.64844-0.52734-0.43359-0.91016-1.082-0.91016-2.3516v-13c0-0.55078-0.44922-1-1-1s-1 0.44922-1 1v46.824c-0.015625 0.0625-0.21484 0.83203-0.72656 1.6484-0.53125 0.84766-1.2188 1.5312-2.2734 1.5312s-2.0898-0.76562-2.8711-1.6562c-0.55859-0.64062-0.94922-1.2773-1.1289-1.5938v-21.75c0-0.55078-0.44922-1-1-1s-1 0.44922-1 1v21.746c-0.17578 0.3125-0.56641 0.95312-1.1289 1.5938-0.78125 0.89453-1.8164 1.6562-2.8711 1.6562s-1.7461-0.68359-2.2773-1.5312c-0.50781-0.8125-0.70312-1.5742-0.72266-1.6445v-46.828c0-0.55078-0.44922-1-1-1s-1 0.44922-1 1v13c0 1.2695-0.38672 1.918-0.91406 2.3516-0.52734 0.43359-1.2969 0.64844-2.0859 0.64844-0.80469 0-1.5703-0.21094-2.0938-0.64453-0.52344-0.43359-0.90625-1.082-0.90625-2.3555v-11c0-4.5312 1.1367-7.375 3.6016-9.2344 2.4648-1.8594 6.4961-2.7656 12.398-2.7656zm-24.152 2c3.5469 0 6.4336 0.32812 8.6875 1-1.7383 2.2383-2.5352 5.2578-2.5352 9v11c0 2.3672 1.1641 3.5586 1.8164 4.0391v29.785c-0.015625 0.0625-0.21484 0.83203-0.72266 1.6484-0.52734 0.84766-1.2148 1.5273-2.2617 1.5273s-2.082-0.76172-2.8594-1.6562c-0.60156-0.69141-1.0078-1.3828-1.1602-1.6602v-21.68c0-0.55078-0.44922-1-1-1s-1 0.44922-1 1v21.809c-0.1875 0.32812-0.5625 0.93359-1.0859 1.5312-0.77734 0.89453-1.8086 1.6562-2.8594 1.6562-1.0469 0-1.7383-0.67969-2.2656-1.5273-0.50781-0.81641-0.70312-1.582-0.71875-1.6484 0.027344-34.824 0.027344-38.66-0.070312-44.824-0.007812-0.55078-0.44922-1-1-1s-1 0.44922-1 1c0.046875 4.4375-0.09375 8.9102 0.058594 13.336-0.0625 1.0547-0.42188 1.625-0.89844 2.0195-0.52344 0.43359-1.2852 0.64453-2.0781 0.64453-0.77344 0-1.543-0.21094-2.0703-0.64844-0.52734-0.43359-0.91406-1.0859-0.91406-2.3516v-11c0-4.5312 1.1328-7.375 3.5898-9.2344 2.457-1.8555 6.4727-2.7695 12.352-2.7656zm48.117 0c5.8789 0 9.8945 0.91016 12.352 2.7656 2.457 1.8555 3.5898 4.6992 3.5898 9.2344v11c0 1.2695-0.38672 1.918-0.91797 2.3516-0.52734 0.43359-1.2969 0.64844-2.0703 0.64844-0.79297 0-1.5547-0.21094-2.0781-0.64453-0.47656-0.39453-0.83594-0.96484-0.89844-2.0195 0.14062-4.4258 0.058594-8.8984 0.058594-13.336 0-0.55078-0.44922-1-1-1s-0.99609 0.44922-1 1c-0.09375 11 0.03125 19.5-0.070312 44.824-0.015626 0.0625-0.21484 0.83203-0.71875 1.6484-0.52734 0.84766-1.2188 1.5273-2.2656 1.5273-1.0469 0-2.0781-0.76172-2.8594-1.6562-0.52344-0.60156-0.89844-1.2031-1.0859-1.5312v-21.809c0-0.55078-0.44922-1-1-1s-1 0.44922-1 1v21.68c-0.15234 0.27734-0.55859 0.97266-1.1602 1.6602-0.77734 0.89453-1.8125 1.6562-2.8594 1.6562s-1.7344-0.67969-2.2617-1.5273c-0.50781-0.81641-0.70703-1.582-0.72266-1.6484v-29.664c0.71484-0.47656 2.0078-1.6797 2.0078-4.1602v-11c0-3.7656-0.8125-6.8047-2.5703-9.0469 2.2344-0.64062 5.0664-0.95312 8.5352-0.95312z"/>
</svg>