<svg xmlns="http://www.w3.org/2000/svg" data-name="Layer 1" viewBox="0 0 110 137.5" x="0px" y="0px"><path d="M15.27,85.41H43V96H40a6.95,6.95,0,0,0-6.93,7,1,1,0,0,0,1,1H75.91a1,1,0,0,0,1-1A6.93,6.93,0,0,0,70,96H67V85.41H94.73A9.28,9.28,0,0,0,104,76.14V15.44A9.44,9.44,0,0,0,94.57,6H15.27A9.27,9.27,0,0,0,6,15.26V76.14A9.28,9.28,0,0,0,15.27,85.41ZM73.48,99.5a5,5,0,0,1,1.34,2.5H35.19A5,5,0,0,1,40,98H70A4.92,4.92,0,0,1,73.48,99.5ZM65,96H45V85.41H65ZM8,15.26A7.27,7.27,0,0,1,15.27,8h79.3A7.45,7.45,0,0,1,102,15.44v60.7a7.28,7.28,0,0,1-7.27,7.27H66.05l-.08,0H44l-.08,0H15.27A7.28,7.28,0,0,1,8,76.14ZM55,72.31a4,4,0,1,0,4,4A4,4,0,0,0,55,72.31Zm0,6a2,2,0,1,1,2-2A2,2,0,0,1,55,78.31Zm-39.86-9H94.86a1,1,0,0,0,1-1V15.16a1,1,0,0,0-1-1H15.14a1,1,0,0,0-1,1V68.29A1,1,0,0,0,15.14,69.29Zm1-53.13H93.86V67.29H16.14ZM26.06,54a1,1,0,1,1,1.41-1.42l2.28,2.28,4.76-4.76a1,1,0,0,1,1.42,0,1,1,0,0,1,0,1.41L30.46,57a1,1,0,0,1-.71.3A1,1,0,0,1,29,57Zm63.27-6.08a1,1,0,0,1-1,1H62.11a1,1,0,0,1,0-2H88.33A1,1,0,0,1,89.33,47.93Zm-43.6,0a1,1,0,0,1,1-1H55a1,1,0,0,1,0,2H46.73A1,1,0,0,1,45.73,47.93Zm43.6,5.62a1,1,0,0,1-1,1H46.73a1,1,0,0,1,0-2h41.6A1,1,0,0,1,89.33,53.55Zm0,5.62a1,1,0,0,1-1,1H82.18a1,1,0,0,1,0-2h6.15A1,1,0,0,1,89.33,59.17Zm-12.3,0a1,1,0,0,1-1,1H46.73a1,1,0,0,1,0-2H76A1,1,0,0,1,77,59.17ZM39.19,44.35H22.79a1,1,0,0,0-1,1v16.4a1,1,0,0,0,1,1h16.4a1,1,0,0,0,1-1V45.35A1,1,0,0,0,39.19,44.35Zm-1,16.4H23.79V46.35h14.4ZM26.06,30.36a1,1,0,0,1,1.41-1.42l2.28,2.28,4.76-4.76a1,1,0,0,1,1.42,0,1,1,0,0,1,0,1.41l-5.47,5.47a1,1,0,0,1-.71.3,1,1,0,0,1-.71-.3Zm63.27-6.08a1,1,0,0,1-1,1H46.73a1,1,0,1,1,0-2h41.6A1,1,0,0,1,89.33,24.28Zm0,5.62a1,1,0,0,1-1,1H68a1,1,0,0,1,0-2H88.33A1,1,0,0,1,89.33,29.9Zm-43.6,0a1,1,0,0,1,1-1h16a1,1,0,0,1,0,2h-16A1,1,0,0,1,45.73,29.9Zm43.6,5.62a1,1,0,0,1-1,1h-7a1,1,0,0,1,0-2h7A1,1,0,0,1,89.33,35.52Zm-43.6,0a1,1,0,0,1,1-1H75.22a1,1,0,0,1,0,2H46.73A1,1,0,0,1,45.73,35.52ZM39.19,20.7H22.79a1,1,0,0,0-1,1V38.1a1,1,0,0,0,1,1h16.4a1,1,0,0,0,1-1V21.7A1,1,0,0,0,39.19,20.7Zm-1,16.4H23.79V22.7h14.4Z"/></svg>