<svg xmlns="http://www.w3.org/2000/svg" version="1.1" viewBox="-5.0 -10.0 110.0 135.0">
 <path d="m33.594 29.297h23.828c1.293 0 2.3438-1.0508 2.3438-2.3438v-7.4219c0-1.293-1.0508-2.3438-2.3438-2.3438h-23.828c-1.293 0-2.3438 1.0508-2.3438 2.3438v7.4219c0 1.293 1.0508 2.3438 2.3438 2.3438zm0-9.7656h23.738v7.4219h-23.738z"/>
 <path d="m32.402 44.922h23.152c0.64453 0 1.1719-0.52344 1.1719-1.1719s-0.52734-1.1719-1.1719-1.1719h-23.152c-0.64453 0-1.1719 0.52344-1.1719 1.1719s0.52734 1.1719 1.1719 1.1719z"/>
 <path d="m32.402 52.93h41.477c0.64453 0 1.1719-0.52344 1.1719-1.1719 0-0.64844-0.52734-1.1719-1.1719-1.1719h-41.477c-0.64453 0-1.1719 0.52344-1.1719 1.1719 0 0.64844 0.52734 1.1719 1.1719 1.1719z"/>
 <path d="m32.402 61.133h41.477c0.64453 0 1.1719-0.52344 1.1719-1.1719 0-0.64844-0.52734-1.1719-1.1719-1.1719h-41.477c-0.64453 0-1.1719 0.52344-1.1719 1.1719 0 0.64844 0.52734 1.1719 1.1719 1.1719z"/>
 <path d="m32.402 69.141h41.477c0.64453 0 1.1719-0.52344 1.1719-1.1719s-0.52734-1.1719-1.1719-1.1719h-41.477c-0.64453 0-1.1719 0.52344-1.1719 1.1719s0.52734 1.1719 1.1719 1.1719z"/>
 <path d="m32.402 77.344h41.477c0.64453 0 1.1719-0.52344 1.1719-1.1719s-0.52734-1.1719-1.1719-1.1719h-41.477c-0.64453 0-1.1719 0.52344-1.1719 1.1719s0.52734 1.1719 1.1719 1.1719z"/>
 <path d="m27.148 12.891c0.64844 0 1.1719-0.52344 1.1719-1.1719v-0.93359c0-0.64844-0.52344-1.1719-1.1719-1.1719-0.64844 0-1.1719 0.52344-1.1719 1.1719v0.93359c0 0.64844 0.52344 1.1719 1.1719 1.1719z"/>
 <path d="m27.148 32.227c0.64844 0 1.1719-0.52344 1.1719-1.1719v-15.074c0-0.64844-0.52344-1.1719-1.1719-1.1719-0.64844 0-1.1719 0.52344-1.1719 1.1719v15.074c0 0.64844 0.52344 1.1719 1.1719 1.1719z"/>
 <path d="m19.781 96.094h54.938c2.8008 0 5.1641-2.2773 5.1641-5.0781v-1.1719h0.33594c2.8203-0.015625 5.1055-2.2891 5.1328-5.1094v-65.281c-0.011718-0.30469-0.13672-0.59375-0.35156-0.80859l-13.785-14.375h-0.003906c-0.22656-0.23438-0.53516-0.36328-0.85938-0.36328h-44.289c-2.8008 0-5.1641 2.2773-5.1641 5.0781v1.1719h-1.1172c-2.8203 0.015625-5.1055 2.2891-5.1328 5.1094v75.75c0.027343 2.8125 2.3203 5.0781 5.1328 5.0781zm51.703-88.098 9.8945 10.363h-8.6836c-0.66797-0.035156-1.1992-0.57812-1.2109-1.25zm-54.492 7.2695c0.003906-1.5273 1.2383-2.7617 2.7656-2.7656h1.1406v14.453c0 0.64844 0.52344 1.1719 1.1719 1.1719 0.64844 0 1.1719-0.52344 1.1719-1.1719v-17.969c0-1.5117 1.2227-2.7344 2.7344-2.7344h43.164v10.859c0.003906 1.9844 1.6133 3.5898 3.5938 3.5938h10.273v64.008c-0.003906 1.5391-1.25 2.7852-2.7891 2.7891h-54.156c-1.5547-0.003906-2.8164-1.2656-2.8203-2.8203v-49.523c0-0.64844-0.52344-1.1719-1.1719-1.1719-0.64844 0-1.1719 0.52344-1.1719 1.1719v49.523c0.007812 2.8477 2.3164 5.1562 5.1641 5.1641h51.477v1.1719c0 0.72656-0.28906 1.4219-0.80078 1.9336s-1.207 0.80078-1.9336 0.80078h-55.023c-1.5391-0.003906-2.7852-1.25-2.7891-2.7891z"/>
</svg>