<svg xmlns="http://www.w3.org/2000/svg" xmlns:xlink="http://www.w3.org/1999/xlink" version="1.1" x="0px" y="0px" viewBox="0 0 100 125" enable-background="new 0 0 100 100" xml:space="preserve"><g><path d="M89.567,80.033v-2.752c0-2.005-1.633-3.639-3.641-3.639h-3.961v-5.896h8.829V52.918h-8.926v-6.322   c0-3.939-3.206-7.146-7.147-7.146H50.834v-9.18h12.387V10.128H36.969v20.143h12.389v9.18h-23.89c-3.94,0-7.147,3.206-7.147,7.146   v6.322H9.449v14.828h8.85v5.896h-3.832c-2.008,0-3.641,1.634-3.641,3.639v2.752H5v9.839h12.577v-9.839h-5.274v-2.752   c0-1.192,0.971-2.163,2.165-2.163h9.269c1.194,0,2.166,0.971,2.166,2.163v2.752h-5.668v9.839h12.577v-9.839h-5.434v-2.752   c0-2.005-1.633-3.639-3.641-3.639h-3.962v-5.896h8.872V52.918h-8.85v-6.322c0-3.126,2.543-5.67,5.671-5.67h23.89v11.993h-8.862   v14.827h8.862v5.896h-3.832c-2.008,0-3.64,1.634-3.64,3.639v2.752H36.06v9.839h12.576v-9.839h-5.275v-2.752   c0-1.192,0.97-2.163,2.164-2.163h9.269c1.194,0,2.165,0.971,2.165,2.163v2.752h-5.668l0.002,9.839h12.575v-9.839h-5.431v-2.752   c0-2.005-1.633-3.639-3.641-3.639h-3.961v-5.896h8.86V52.919h-8.86V40.926h23.891c3.128,0,5.671,2.544,5.671,5.67v6.322h-8.799   l0.002,14.828h8.893v5.896h-3.832c-2.008,0-3.641,1.634-3.641,3.639v2.752h-5.826v9.839H79.77v-9.839h-5.277v-2.752   c0-1.192,0.969-2.163,2.165-2.163h9.27c1.192,0,2.165,0.971,2.165,2.163v2.752h-5.669l0.001,9.839H95v-9.839H89.567z    M38.444,11.604h23.302v17.191H38.444V11.604z M16.101,88.396H6.476v-6.888h9.625V88.396z M31.334,88.396h-9.625v-6.888h9.625   V88.396z M27.17,66.271H10.924V54.394H27.17V66.271z M47.159,88.396h-9.625v-6.888h9.625V88.396z M62.393,88.396h-9.622   l-0.002-6.888h9.624V88.396z M58.217,66.271H41.972V54.395h16.247v11.876H58.217z M73.07,54.394h16.247v11.877H73.072L73.07,54.394   z M78.292,88.396h-9.627v-6.888h9.627V88.396z M93.524,88.396H83.9l-0.001-6.888h9.625V88.396z"/></g></svg>