<svg xmlns="http://www.w3.org/2000/svg" version="1.1" viewBox="-5.0 -10.0 110.0 135.0">
 <path d="m15.133 81.992h69.734v8.4258h-69.734z"/>
 <path d="m86.785 47.559c3.3281 6.9102-0.92969 20.637-8.8477 18.438-8.1836-2.2734-4.9336-18.312 6.2305-19.805-4.4414-6.6406-2.8633-11.949-1.0938-20.715-4.6758 8.3438-9.2266 11.938-17.57 11.484 4.2344 7.332 3.9297 22.637-5.6836 21.699-8.6641-0.84766-6.7188-16.355 2.7539-22.234-8.8984-3.8867-12.574-22.395-12.574-26.844 0 4.4492-3.6758 22.953-12.574 26.844 9.4727 5.8789 11.418 21.387 2.7539 22.234-9.6133 0.9375-9.918-14.367-5.6836-21.699-8.3477 0.45312-12.895-3.1367-17.57-11.484 1.7695 8.7656 3.3477 14.074-1.0938 20.715 11.164 1.4922 14.414 17.523 6.2305 19.805-7.918 2.2031-12.176-11.531-8.8477-18.438-5.9844 0.21094-9.1836-1.2656-13.215-6.4766l15.621 38.09h68.758l15.621-38.09c-4.0234 5.2109-7.2305 6.6836-13.215 6.4766zm-36.785 26.895c-1.0078-3.0859-3.2734-5.6016-6.2383-6.9219 2.9609-1.3203 5.2305-3.832 6.2383-6.9141 1.0078 3.0859 3.2734 5.6016 6.2383 6.9219-2.9609 1.3203-5.2266 3.832-6.2383 6.9141z"/>
<text x="0.0" y="117.5" font-size="5.0" font-weight="bold" font-family="Arbeit Regular, Helvetica, Arial-Unicode, Arial, Sans-serif" fill="#000000">Created by VectorRecipe7</text><text x="0.0" y="122.5" font-size="5.0" font-weight="bold" font-family="Arbeit Regular, Helvetica, Arial-Unicode, Arial, Sans-serif" fill="#000000">from Noun Project</text></svg>