<svg xmlns="http://www.w3.org/2000/svg" version="1.1" viewBox="-5.0 -10.0 110.0 135.0">
 <path d="m37.535 6.5156c-4.5508 0-9.1133 1.75-12.594 5.2305-6.9609 6.9609-6.9609 18.238 0 25.199l9.293 9.293 14.723 14.73c0.27734 0.27734 0.65234 0.43359 1.043 0.43359s0.76562-0.15625 1.043-0.43359l14.449-14.461c0.27734-0.27734 0.43359-0.64844 0.43359-1.0391v0.60547l9.1289-9.1289c6.9609-6.9609 6.9609-18.238 0-25.199-3.4805-3.4805-8.0508-5.2305-12.602-5.2305-4.4961 0-8.9961 1.707-12.457 5.0977-3.4648-3.3906-7.9648-5.0977-12.461-5.0977zm0 2.9414c3.8008 0 7.6016 1.4531 10.52 4.375l0.89844 0.90234h0.003906c0.27734 0.27734 0.65234 0.43359 1.043 0.43359s0.76562-0.15625 1.043-0.43359l0.90234-0.90234c2.9219-2.9219 6.707-4.375 10.508-4.375s7.6016 1.4531 10.52 4.375c5.8438 5.8438 5.8438 15.184 0 21.027l-9.5547 9.5664c-0.27734 0.27344-0.43359 0.64844-0.43359 1.043v-0.60938l-12.984 12.98-13.68-13.676-9.2891-9.3047c-5.8438-5.8438-5.8438-15.184 0-21.027 2.9219-2.9219 6.707-4.375 10.508-4.375zm-27.453 17.324c-0.24609 0-0.49219 0.007812-0.73828 0.03125-3.9609 0.38672-6.7812 4.0039-6.3633 7.9805l3.625 34.48v0.011718c0.27734 2.4375 1.3633 4.7148 3.0859 6.4609l9.6953 9.9023c0.62891 0.64062 0.98828 1.4961 0.98828 2.3672l0.011719 4.0039v-0.003906c0 0.39062 0.15625 0.76562 0.43359 1.043 0.27734 0.27344 0.65234 0.42969 1.043 0.42578 0.80859-0.003906 1.4609-0.66016 1.4648-1.4688l-0.011719-4.0039c-0.003906-1.668-0.67969-3.2539-1.8359-4.4297l-9.6836-9.9023v0.003906h-0.011719c-1.2578-1.2773-2.0547-2.957-2.2578-4.7344l-3.625-34.457c-0.25781-2.4648 1.3594-4.5156 3.7227-4.7461 2.3633-0.23047 4.5234 1.5039 4.7656 3.9297l2.0117 20.16c-0.56641 0.31641-1.0977 0.71875-1.5781 1.2031-2.793 2.8359-2.7305 7.4414 0.074219 10.305l12.93 13.191h0.003906c0.27344 0.28125 0.64453 0.44141 1.0352 0.44531 0.39453 0.003906 0.76953-0.14844 1.0508-0.42188 0.27734-0.27344 0.4375-0.64844 0.44531-1.0391 0.003907-0.39062-0.14844-0.76953-0.42578-1.0469l-12.93-13.18c-1.7305-1.7617-1.75-4.5-0.085937-6.1914 0.4375-0.44531 0.94531-0.76953 1.4883-0.98047 0.003906 0 0.003906 0 0.007813-0.003906v0.003906c0.035156-0.011719 0.066406-0.023438 0.10156-0.039063 1.4844-0.52344 3.1992-0.16406 4.4375 1.0977l16.793 17.109c0.89453 0.90625 1.4023 2.1328 1.4141 3.3984l0.10547 14.34c0.007813 0.39062 0.16406 0.76172 0.44531 1.0352 0.27734 0.27344 0.65234 0.42578 1.043 0.41797 0.80859-0.007813 1.4609-0.66797 1.457-1.4766l-0.10938-14.34c-0.015625-2.0391-0.82812-3.9922-2.2578-5.4414l-16.793-17.105c-1.4062-1.4297-3.2695-2.1641-5.125-2.1836-0.21484-0.003906-0.43359 0.003906-0.64844 0.023437l-1.957-19.574c-0.375-3.7617-3.5781-6.582-7.2422-6.6016zm79.824 0c-3.6641 0.019531-6.8555 2.8359-7.2305 6.6016l-1.957 19.578c-0.21875-0.019532-0.4375-0.027344-0.66016-0.027344-1.8555 0.015625-3.707 0.75-5.1133 2.1836l-16.793 17.109c-1.4297 1.4492-2.2539 3.4023-2.2695 5.4414l-0.097656 14.34 0.003906-0.003906c-0.003906 0.80859 0.64453 1.4688 1.4531 1.4766 0.80859 0.003906 1.4648-0.64453 1.4766-1.4531l0.10938-14.34c0.007813-1.2617 0.52734-2.4883 1.4219-3.3984l16.793-17.109c1.7227-1.7578 4.3633-1.7656 6.0273-0.078126 1.6641 1.6875 1.6523 4.4258-0.078124 6.1914l-12.93 13.18c-0.27344 0.27734-0.42578 0.65625-0.42188 1.0469s0.16406 0.76562 0.44141 1.0391c0.58203 0.5625 1.5078 0.55078 2.0742-0.023438l12.93-13.191c2.8047-2.8633 2.8672-7.4688 0.074218-10.305-0.48047-0.48828-1.0117-0.88672-1.5781-1.2031l2.0117-20.16c0.24219-2.4258 2.4023-4.1602 4.7656-3.9297 2.3633 0.23047 3.9961 2.2812 3.7383 4.7461l-3.6406 34.457c-0.20312 1.7812-1 3.457-2.2578 4.7344l-9.6953 9.9023h0.011719c-1.1562 1.1758-1.8398 2.7617-1.8438 4.4297v4.0039l0.003906-0.003906c0.003907 0.80859 0.65625 1.4648 1.4648 1.4648 0.39062 0.003906 0.76562-0.14844 1.043-0.42578 0.27734-0.27344 0.43359-0.64844 0.43359-1.0391v-4.0039c0-0.87109 0.37109-1.7266 1-2.3672l9.6953-9.9023h-0.011719c1.7227-1.7461 2.8164-4.0234 3.0938-6.4609v0.003906-0.003906-0.003906-0.003906l3.625-34.48c0.41797-3.9727-2.4102-7.5938-6.3711-7.9805-0.24609-0.023438-0.49219-0.03125-0.73828-0.03125z"/>
<text x="0.0" y="117.5" font-size="5.0" font-weight="bold" font-family="Arbeit Regular, Helvetica, Arial-Unicode, Arial, Sans-serif" fill="#000000">Created by Larea</text><text x="0.0" y="122.5" font-size="5.0" font-weight="bold" font-family="Arbeit Regular, Helvetica, Arial-Unicode, Arial, Sans-serif" fill="#000000">from Noun Project</text></svg>