<svg xmlns="http://www.w3.org/2000/svg" version="1.1" viewBox="-5.0 -10.0 110.0 135.0">
 <path d="m98.164 46.957-16.164-25.332c-1.1602-1.8164-3.5703-2.3516-5.3906-1.1953l-7.9336 5.0625c-1.5117 0.96875-2.168 2.8438-1.5938 4.543-0.35938 0-0.73438 0-1.1211-0.023437-1.4102-0.09375-2.7773-0.5-4.0078-1.1953-2.9336-1.4375-5.3906-2.1289-11.645 1.2539-2.3164-3.0195-6.1562-2.0703-9.5859-1.2148-2.6484 0.65625-5.375 1.332-7.8828 0.70312v-0.003906c0.70312-1.7422 0.066406-3.7383-1.5195-4.7539l-7.9297-5.0625c-1.8203-1.1523-4.2266-0.62109-5.3906 1.1914l-16.164 25.336c-1.1523 1.8164-0.62109 4.2266 1.1953 5.3906l7.9336 5.0625v-0.003906c0.62109 0.39844 1.3438 0.61328 2.0859 0.61328 0.28516 0 0.57422-0.03125 0.85547-0.09375 1.0078-0.22266 1.8867-0.83594 2.4414-1.7109l1.043-1.6406c0.082031 0.082032 0.16797 0.16406 0.25 0.23828-1.668 1.8594-3.1914 3.9922-2.9531 6.793l0.003906 0.003907c0.027344 1.707 0.8125 3.3125 2.1406 4.3828 1.3203 0.87109 2.9219 1.2109 4.4844 0.95703 0.17188 1.4727 0.83984 2.8359 1.8945 3.8789 1.3477 1.168 3.0781 1.8008 4.8633 1.7773 0.3125 1.3047 1.0859 2.4531 2.1758 3.2344 1.6758 1.0156 3.6797 1.332 5.5859 0.87891 0.92187 2.4453 3.3359 3.9922 5.9414 3.8086h0.3125c1.6484-0.25391 3.1562-1.082 4.2539-2.3398 3.2617 2.2461 6.0898 3.3789 8.4453 3.3789 0.70703 0.007812 1.4102-0.10547 2.0781-0.33203 1.8477-0.70312 3.293-2.1836 3.9453-4.0508 1.6797 0.65234 3.5508 0.60547 5.1953-0.125 1.7461-1 3.0039-2.668 3.4766-4.6211 1.6406 0.26562 3.3164-0.11328 4.6836-1.0586 1.2031-0.98047 1.9961-2.3789 2.2227-3.918 2.4531 0.375 4.9453-0.36719 6.7969-2.0234 0.082031-0.074219 0.16016-0.16016 0.22266-0.25391 1.2422-1.6289 1.7539-3.6992 1.4141-5.7227-0.28906-1.2461-0.91406-2.3906-1.8086-3.3086 0.035156-0.027344 0.066406-0.054688 0.097656-0.082032l0.53906 0.84375h-0.003906c0.55469 0.87109 1.4375 1.4883 2.4453 1.707 0.28125 0.0625 0.56641 0.09375 0.85547 0.09375 0.73828 0 1.4648-0.21094 2.0859-0.60938l7.9336-5.0625c1.8203-1.1602 2.3516-3.5742 1.1953-5.3945zm-84.141 7.082c-0.34375 0.52344-1.043 0.67969-1.5742 0.34375l-7.9336-5.0625v0.003907c-0.52734-0.33984-0.68359-1.043-0.34766-1.5742l16.164-25.332c0.16406-0.25391 0.42188-0.43359 0.71484-0.49609 0.082031-0.019531 0.16797-0.027344 0.25391-0.027344 0.21484 0 0.42578 0.058594 0.60547 0.17578l7.9336 5.0625c0.52734 0.33984 0.67969 1.0391 0.34766 1.5703zm4.4453 9.0352-0.003906-0.003907c-0.66406-0.61328-1.0352-1.4844-1.0195-2.3906-0.18359-2.1367 1.4727-3.8945 3.2227-5.7578 0.34766-0.36719 0.70703-0.75 1.043-1.1289 0.67578-0.78125 1.7344-1.1172 2.7383-0.86719 1.1484 0.28125 2.0742 1.1289 2.4609 2.25-1.1641 3.0352-2.8906 5.8242-5.082 8.2227-1.1211 0.33203-2.3242 0.21484-3.3555-0.32813zm5.5078 2.0625c3.7617-4.4922 5.1406-7.6914 5.6406-9.332h-0.003907c1.3867-1.4297 3.4609-1.9609 5.3594-1.3711 1.2109 0.50781 1.9375 1.75 1.7891 3.0508l-8.2812 11.668v-0.003906c-1.2148 0.09375-2.418-0.27344-3.375-1.0273-0.73828-0.81641-1.1406-1.8828-1.125-2.9844zm7.8477 7.7344h-0.003907c-0.63281-0.49609-1.0469-1.2188-1.1523-2.0195l8.2734-11.66c1.9102-0.32031 3.3516-0.03125 4.0938 0.83594 0.77734 0.91406 0.80859 2.5547 0.089844 4.5234-2.0469 2.4844-3.668 4.4531-4.8633 5.9062l-2.2422 2.7227c-1.8945 0.38672-3.3359 0.28125-4.1914-0.30859zm10.176 4.1992c-1.6406 0.26953-3.2266-0.72656-3.6914-2.3242 0.36719-0.44531 1-1.2148 2.0859-2.5312 1.1094-1.3555 2.5938-3.1562 4.4492-5.4062 1.7422 0.51953 2.7461 1.2617 3 2.2109 0.20312 0.77734-0.44531 2.7695-2.043 4.9062-1.5078 2.0117-3.082 3.1211-3.8008 3.1445zm39.203-14.266c-1.5391 1.2148-3.5703 1.6094-5.4531 1.0625l-15.246-10.305c-0.63281-0.41016-1.4766-0.23828-1.8984 0.38281-0.42188 0.625-0.26562 1.4727 0.35156 1.9062l14.785 9.9922c-0.054688 1.0078-0.5 1.9531-1.2383 2.6328-1.0625 0.60938-2.3281 0.75-3.4961 0.39453l-11.754-7.668c-0.30469-0.20703-0.68359-0.28125-1.0469-0.20703-0.36328 0.070312-0.68359 0.28906-0.88281 0.59766-0.20312 0.30859-0.27344 0.6875-0.19531 1.0508s0.30078 0.67578 0.61328 0.875l11.148 7.2695c-0.25781 1.2734-1.0195 2.3906-2.1133 3.0977-0.98828 0.49219-2.3711 0.35156-4.1094-0.41016l-6.9375-4.9297v-0.003906c-0.625-0.41406-1.4648-0.26172-1.8984 0.34766-0.43359 0.60938-0.30078 1.4531 0.29688 1.9062l6.2227 4.4219c-0.35156 1.2109-1.2227 2.2031-2.3789 2.707-1.7695 0.60938-4.457-0.26953-7.8125-2.543 0.89062-1.2227 3.0195-4.5195 2.3594-7.0586-0.47656-1.832-1.9609-3.1797-4.4219-4.0156 0.71094-2.0586 0.35156-4.3359-0.96094-6.0742-1.4727-1.5273-3.5977-2.2344-5.6914-1.8906-0.22656-2.0195-1.5547-3.7461-3.4492-4.4805-2.4141-0.84375-5.0859-0.46875-7.1719 1.0078-0.86719-1.3281-2.207-2.2734-3.75-2.6406-1.9883-0.47266-4.0742 0.19141-5.418 1.7266l-0.125 0.13672h-0.003906c-0.21094-0.19141-0.41016-0.39844-0.58594-0.62109l12.418-19.473c3.4219 1.1797 6.9102 0.3125 10.027-0.46094 3.6484-0.90625 5.4648-1.1914 6.5938 0.054688-6.75 5.2617-11.008 11.652-10.453 15.824 0.12891 1.4258 1.0547 2.6523 2.3906 3.1641 0.57422 0.21094 1.1797 0.31641 1.7891 0.30859 3.4805 0 8.7031-2.8125 15.016-8.1406 0.011719-0.007812 1.0391-0.78516 6.4453 2.3086 3.5547 2.0312 7.6523 4.9492 10.945 7.2969 1.9727 1.4062 3.6797 2.6211 4.8555 3.3516 1.8242 1.1562 2.8828 2.3789 3.1484 3.6328l-0.003907-0.003906c0.17578 1.2344-0.15234 2.4805-0.91016 3.4688zm-0.39844-9.1992c-0.12109-0.082031-0.24219-0.16406-0.37109-0.24219-1.1094-0.69141-2.7852-1.8906-4.7188-3.2617-10.16-7.2344-17.59-12.152-20.773-9.4648-7.6719 6.4727-12.352 8.0117-14.027 7.3633-0.39453-0.14844-0.65234-0.52734-0.64844-0.94922-0.32031-2.4102 2.668-8.332 10.316-13.969 6.3398-3.6562 7.9414-2.8711 10.156-1.7852 1.5625 0.85938 3.293 1.3633 5.0742 1.4805 0.94531 0.058594 1.8945 0.035156 2.8359-0.070313l12.934 20.273c-0.20312 0.26953-0.46875 0.48438-0.77344 0.625zm14.676-3.5898-7.9258 5.0625c-0.53125 0.33203-1.2305 0.17578-1.5703-0.34766l-16.16-25.332-0.003907-0.003907c-0.33594-0.52734-0.17969-1.2305 0.34766-1.5703l7.9336-5.0625c0.53125-0.33203 1.2266-0.17578 1.5664 0.34766l16.164 25.336c0.33594 0.52734 0.17969 1.2305-0.34766 1.5703z"/>
<text x="0.0" y="117.5" font-size="5.0" font-weight="bold" font-family="Arbeit Regular, Helvetica, Arial-Unicode, Arial, Sans-serif" fill="#000000">Created by Andi wiyanto</text><text x="0.0" y="122.5" font-size="5.0" font-weight="bold" font-family="Arbeit Regular, Helvetica, Arial-Unicode, Arial, Sans-serif" fill="#000000">from Noun Project</text></svg>