<svg xmlns="http://www.w3.org/2000/svg" version="1.0" viewBox="0 0 1024 1280" preserveAspectRatio="xMidYMid meet" x="0px" y="0px"><g transform="translate(0.000000,1024.000000) scale(0.100000,-0.100000)" fill="#000000" stroke="none"><path d="M5165 7799 c-44 -49 -74 -112 -75 -155 0 -43 27 -129 46 -145 14 -11 22 -7 59 33 49 51 70 111 60 167 -8 50 -35 130 -45 136 -4 3 -25 -14 -45 -36z"/><path d="M4900 7763 c-35 -94 -37 -142 -6 -208 25 -56 77 -115 100 -115 17 0 55 83 62 133 8 56 -24 138 -77 200 -22 26 -44 47 -49 47 -5 0 -18 -26 -30 -57z"/><path d="M5486 7719 c-72 -63 -89 -106 -84 -204 5 -104 9 -109 56 -89 78 32 112 85 112 174 0 62 -16 147 -30 155 -4 3 -29 -14 -54 -36z"/><path d="M4608 7645 c-9 -9 11 -97 26 -120 17 -25 81 -66 90 -58 15 16 5 101 -15 127 -29 37 -86 66 -101 51z"/><path d="M4784 7550 c-39 -57 -48 -79 -52 -125 -6 -69 17 -134 60 -170 l30 -25 19 24 c68 87 79 197 30 302 -16 35 -32 64 -34 64 -3 0 -26 -31 -53 -70z"/><path d="M4520 7503 c0 -69 4 -85 31 -131 24 -43 40 -58 82 -78 78 -36 87 -33 87 24 -1 90 -43 165 -128 227 -68 50 -72 48 -72 -42z"/><path d="M5687 7557 c-72 -89 -107 -143 -113 -173 -8 -42 -15 -43 -34 -2 -21 44 -33 44 -53 3 -21 -44 -22 -107 -2 -145 19 -38 31 -38 53 -1 l18 29 12 -50 c16 -70 35 -89 73 -76 74 26 139 124 139 209 -1 60 -51 230 -68 229 -4 -1 -15 -11 -25 -23z"/><path d="M5897 7515 c-51 -88 -72 -171 -58 -236 14 -62 41 -117 75 -148 l26 -25 31 30 c67 63 89 148 65 245 -16 59 -82 199 -95 199 -3 0 -23 -29 -44 -65z"/><path d="M5273 7530 c-60 -34 -100 -82 -117 -140 l-12 -40 -38 51 c-21 28 -40 49 -42 46 -3 -3 8 -29 25 -58 43 -78 109 -250 127 -333 25 -114 21 -300 -9 -417 -25 -97 -83 -249 -95 -249 -4 0 -15 49 -25 108 -46 284 -139 477 -302 630 -70 65 -197 143 -211 130 -3 -3 17 -22 44 -41 98 -72 200 -202 276 -351 107 -210 135 -397 143 -963 6 -423 -2 -554 -37 -624 -33 -64 -78 -49 -172 58 -94 106 -159 222 -184 330 -23 96 -14 289 21 453 38 182 42 284 16 397 -23 102 -27 186 -10 230 5 15 26 51 46 80 52 76 56 133 15 216 -30 59 -86 128 -142 172 -25 20 -25 20 -10 0 8 -11 28 -36 44 -55 47 -55 89 -155 90 -214 0 -42 -6 -62 -36 -111 -56 -94 -62 -123 -52 -249 13 -170 9 -312 -10 -396 -30 -133 -36 -150 -52 -150 -18 0 -24 15 -99 230 -31 90 -77 205 -101 255 -45 92 -45 92 -27 -20 l6 -40 -69 63 c-121 110 -296 215 -419 252 -27 8 -48 23 -63 46 -30 45 -84 80 -157 99 -67 17 -165 20 -165 5 0 -6 14 -40 32 -75 71 -148 176 -218 295 -200 l46 7 -6 49 c-3 27 -3 49 0 49 12 0 213 -129 213 -137 0 -2 -9 1 -19 7 -29 15 -116 13 -130 -4 -9 -11 -5 -19 19 -40 36 -30 82 -34 135 -12 34 14 36 14 77 -21 31 -25 37 -34 21 -29 -13 3 -32 8 -43 12 -23 6 -88 -10 -115 -30 -20 -14 -20 -14 0 -36 43 -49 132 -64 201 -35 20 8 40 12 46 9 5 -3 36 -40 69 -81 116 -146 190 -332 211 -527 10 -104 10 -117 -6 -141 -14 -21 -23 -25 -43 -20 -14 3 -104 59 -201 123 -180 119 -369 222 -522 285 -139 57 -321 116 -380 123 -51 6 -31 -6 250 -148 468 -238 686 -369 818 -493 93 -86 103 -128 34 -141 -52 -10 -151 17 -299 81 -338 148 -439 178 -649 194 -134 11 -203 27 -262 63 -36 22 -49 41 -74 108 l-16 45 -1 -44 c-2 -84 61 -171 154 -212 23 -10 112 -27 200 -39 88 -11 174 -23 190 -26 67 -14 199 -60 360 -126 94 -39 247 -97 342 -129 95 -32 196 -70 225 -85 214 -108 338 -290 338 -494 0 -69 -3 -81 -21 -93 -27 -20 -60 -10 -157 47 -111 65 -156 82 -332 125 -178 45 -198 53 -348 153 -272 180 -505 247 -820 235 -128 -4 -281 -32 -304 -55 -4 -4 43 -5 103 -4 217 7 476 -26 662 -84 110 -35 258 -112 337 -176 l64 -53 -44 -9 c-25 -5 -166 -10 -315 -10 -292 -1 -371 8 -519 60 -38 13 -71 22 -73 20 -7 -6 95 -65 156 -90 146 -59 269 -75 676 -86 354 -9 406 -18 548 -92 104 -55 222 -167 265 -253 78 -156 98 -304 88 -665 -11 -410 -27 -721 -41 -796 -37 -195 -175 -332 -390 -389 -86 -22 -307 -45 -529 -54 -133 -6 86 -9 729 -11 506 -2 990 -4 1075 -4 85 -1 385 1 665 3 l510 4 -305 8 c-808 19 -1080 68 -1236 223 -59 60 -88 111 -109 194 -21 85 -39 499 -39 902 0 333 1 360 21 431 48 170 146 296 288 371 119 62 174 71 365 63 320 -15 346 -10 485 95 89 68 163 108 245 135 88 28 86 38 -9 32 -76 -5 -94 -10 -173 -51 -296 -154 -260 -140 -356 -140 -48 0 -124 8 -170 18 -56 12 -114 16 -182 14 -55 -2 -100 -2 -100 -1 0 6 102 97 144 129 68 52 192 111 272 130 53 12 100 15 199 11 131 -5 150 -9 395 -77 307 -85 471 -120 564 -119 59 0 108 7 141 18 l49 18 -73 42 c-162 95 -161 95 -366 87 -175 -6 -184 -6 -270 19 -374 109 -566 121 -775 50 -152 -52 -257 -125 -460 -321 -138 -134 -185 -168 -222 -162 -57 8 -46 97 32 253 129 260 414 467 729 530 135 28 350 16 564 -29 329 -70 500 -71 663 -6 92 36 121 57 49 35 -136 -42 -295 -45 -445 -9 l-75 18 60 6 c75 8 110 26 162 83 39 43 93 119 93 133 0 4 -42 5 -92 2 -75 -3 -101 -9 -136 -28 -69 -39 -136 -159 -101 -181 23 -15 1 -10 -105 20 -173 51 -237 62 -371 68 -198 8 -318 -17 -562 -116 -29 -11 -53 -19 -53 -16 0 7 230 263 273 303 l35 34 26 -27 c14 -14 48 -36 74 -48 89 -41 265 -23 346 36 17 12 12 17 -45 55 -91 59 -152 83 -227 90 l-66 7 55 47 c30 25 79 59 109 74 75 38 152 37 340 -6 135 -30 155 -32 285 -28 129 4 148 7 245 41 57 20 106 34 108 32 2 -2 -1 -12 -7 -23 -16 -30 -13 -59 5 -66 9 -3 46 -6 84 -6 58 0 78 5 132 33 52 27 74 47 122 111 44 58 56 80 46 86 -7 5 -48 11 -91 15 -107 10 -173 -10 -236 -71 -59 -56 -150 -84 -303 -91 l-105 -5 22 23 c12 13 27 37 33 54 20 53 14 185 -9 185 -17 0 -77 -47 -97 -77 -26 -39 -37 -99 -25 -141 9 -29 8 -32 -13 -32 -28 0 -126 29 -126 37 0 3 23 36 51 74 61 83 134 150 195 179 54 26 53 34 -2 19 -71 -20 -128 -57 -206 -133 -42 -41 -91 -82 -109 -91 -35 -19 -96 -17 -191 6 -73 17 -150 3 -217 -40 -43 -28 -457 -439 -645 -641 -169 -182 -290 -300 -324 -316 -34 -16 -36 -16 -50 2 -18 25 -10 277 12 379 48 219 173 501 312 708 114 170 144 195 319 282 83 40 175 81 205 92 49 16 52 18 25 21 -16 1 -84 -13 -150 -31 -66 -19 -122 -32 -125 -30 -2 2 47 54 110 115 124 119 326 276 455 353 138 82 189 144 201 248 7 61 -12 187 -28 187 -16 0 -104 -67 -137 -106 -17 -19 -38 -51 -46 -71 -19 -45 -19 -143 -1 -187 l14 -34 -72 -27 c-39 -15 -105 -45 -146 -66 -302 -155 -702 -628 -929 -1099 l-38 -79 -7 52 c-11 92 -6 299 9 398 15 105 73 295 113 374 44 88 83 138 194 248 84 82 115 107 136 107 90 0 192 80 225 176 25 76 23 85 -15 78 -142 -25 -212 -76 -239 -174 -12 -43 -22 -59 -48 -74 l-32 -18 8 28 c4 16 8 61 8 99 -1 58 -6 79 -29 122 -16 29 -37 60 -47 69 -16 14 -20 11 -54 -50 -48 -86 -57 -173 -27 -258 l20 -57 -23 -15 c-22 -15 -22 -15 -29 51 -8 75 -29 144 -85 274 l-40 91 44 41 c52 51 78 125 73 216 l-3 61 -52 -30z"/><path d="M4029 7406 c-54 -115 -40 -224 42 -326 32 -40 49 -50 49 -29 0 6 14 41 30 79 32 73 37 128 19 189 -12 41 -78 142 -97 149 -7 2 -25 -24 -43 -62z"/><path d="M4306 7414 c28 -115 66 -173 135 -208 94 -46 131 -29 109 50 -26 93 -106 161 -213 180 -38 6 -38 6 -31 -22z"/><path d="M6187 7398 c-14 -18 -41 -65 -59 -103 -26 -56 -33 -82 -32 -130 1 -69 29 -137 74 -180 44 -42 74 -30 108 43 51 110 39 239 -31 351 l-34 53 -26 -34z"/><path d="M5053 7324 c-33 -78 -9 -187 49 -229 22 -15 24 -14 35 12 21 48 16 124 -12 180 -39 77 -51 84 -72 37z"/><path d="M5348 7269 c-47 -24 -70 -59 -72 -107 -1 -31 2 -37 22 -40 38 -6 69 23 92 84 20 54 21 85 3 84 -4 -1 -25 -10 -45 -21z"/><path d="M4911 7225 c-27 -71 -27 -153 -2 -203 24 -47 86 -106 100 -97 6 3 20 24 31 45 26 50 26 131 1 186 -19 42 -86 124 -101 124 -5 0 -18 -25 -29 -55z"/><path d="M3841 7211 c10 -69 29 -112 68 -155 20 -22 22 -28 8 -23 -10 4 -43 10 -73 13 -49 6 -54 5 -54 -13 0 -11 16 -52 36 -91 54 -109 127 -162 223 -162 l33 0 -7 48 c-9 62 -30 111 -63 145 l-26 28 24 -3 c24 -3 25 -1 24 50 -2 76 -43 155 -98 187 -23 14 -56 28 -73 31 l-30 6 8 -61z"/><path d="M4220 7182 c0 -159 92 -272 223 -272 24 0 27 4 28 33 3 102 -10 145 -62 195 -28 28 -161 102 -183 102 -3 0 -6 -26 -6 -58z"/><path d="M4495 7123 c9 -67 34 -143 57 -173 23 -30 86 -70 110 -70 58 0 44 146 -20 213 -29 31 -81 60 -125 71 l-28 7 6 -48z"/><path d="M6016 7090 c-46 -51 -56 -77 -56 -146 0 -59 13 -94 34 -94 23 0 85 77 92 115 7 37 -10 143 -25 158 -4 4 -25 -11 -45 -33z"/><path d="M6630 7083 c-93 -38 -160 -108 -183 -189 -9 -33 -17 -70 -17 -82 0 -21 -4 -22 -83 -22 -73 0 -91 -4 -144 -30 -34 -17 -73 -46 -88 -65 -34 -45 -59 -105 -48 -116 5 -5 31 -13 58 -18 65 -12 133 2 185 40 38 28 43 29 85 18 25 -6 52 -8 61 -5 12 5 15 2 10 -10 -3 -9 -9 -33 -12 -53 -7 -46 7 -53 85 -40 100 15 174 78 239 198 38 72 34 77 -56 68 -90 -10 -151 -35 -199 -84 -42 -41 -45 -43 -66 -28 -26 18 -58 19 -77 3 -8 -7 -6 -2 3 12 63 92 60 90 102 90 89 1 171 68 200 162 19 62 32 178 19 178 -5 -1 -38 -13 -74 -27z"/><path d="M5796 6926 c-77 -54 -100 -95 -104 -182 -5 -82 5 -104 44 -104 30 0 90 53 115 101 15 30 19 59 19 129 0 104 -3 107 -74 56z"/><path d="M4140 6896 c0 -34 42 -146 69 -183 35 -48 118 -93 173 -93 36 0 38 1 38 33 0 62 -30 139 -69 178 -57 57 -211 104 -211 65z"/><path d="M4400 6848 c0 -51 28 -138 57 -177 26 -33 109 -79 121 -66 4 4 7 33 6 65 -2 103 -65 189 -152 206 -31 6 -32 6 -32 -28z"/><path d="M5561 6811 c-25 -46 -24 -99 3 -154 25 -52 85 -101 102 -84 14 13 16 105 4 142 -12 37 -74 115 -91 115 -4 0 -13 -8 -18 -19z"/><path d="M6960 6679 c-75 -30 -134 -110 -145 -194 -3 -27 -8 -65 -11 -82 l-5 -33 62 30 c34 16 72 39 85 51 37 34 66 105 73 175 7 60 6 64 -13 63 -12 0 -32 -5 -46 -10z"/><path d="M3314 6608 c-26 -91 -25 -200 4 -263 13 -27 33 -60 45 -73 33 -35 94 -64 130 -60 38 4 45 22 46 128 1 110 -30 166 -155 283 l-51 47 -19 -62z"/><path d="M3555 6622 c21 -111 82 -204 159 -242 34 -16 59 -20 108 -18 l63 3 -3 33 c-7 74 -66 168 -123 198 -16 8 -70 25 -120 38 l-91 24 7 -36z"/><path d="M4804 6611 c-63 -38 -95 -102 -86 -174 5 -44 23 -55 58 -36 51 27 87 133 67 201 l-8 28 -31 -19z"/><path d="M5402 6594 c-38 -26 -62 -86 -59 -148 1 -36 6 -56 14 -56 36 0 116 24 139 42 26 21 63 89 64 117 0 13 -36 12 -97 -5 -21 -6 -23 -3 -23 30 0 40 -5 43 -38 20z"/><path d="M7108 6585 c-79 -26 -166 -140 -156 -207 3 -22 7 -23 88 -23 75 0 91 4 132 28 25 15 63 46 82 69 45 52 90 127 82 136 -14 14 -182 11 -228 -3z"/><path d="M6126 6516 c-32 -14 -63 -29 -69 -35 -13 -13 97 -97 152 -116 25 -8 66 -15 92 -15 52 0 174 34 185 52 9 15 -63 78 -125 109 -69 35 -159 37 -235 5z"/><path d="M3000 6509 c0 -22 56 -124 85 -152 41 -41 84 -57 155 -57 71 0 73 6 36 87 -30 63 -86 107 -157 122 -64 14 -119 14 -119 0z"/><path d="M6662 6475 c-33 -25 -85 -72 -116 -105 -65 -71 -86 -128 -86 -237 l0 -73 48 0 c99 1 186 72 216 179 17 62 23 281 7 281 -5 0 -36 -20 -69 -45z"/><path d="M5863 6429 c-45 -8 -103 -35 -103 -47 1 -20 60 -90 101 -119 92 -66 212 -66 314 -2 l47 30 -63 40 c-152 94 -213 114 -296 98z"/><path d="M6850 6382 c-45 -25 -68 -57 -76 -109 -6 -38 -4 -43 12 -43 54 0 127 80 122 134 -4 37 -15 41 -58 18z"/><path d="M2850 6328 c0 -48 25 -139 50 -180 27 -47 84 -85 161 -108 35 -11 66 -20 68 -20 2 0 1 27 -2 60 -12 114 -69 190 -180 243 -92 43 -97 43 -97 5z"/><path d="M3982 6271 c-16 -92 12 -175 71 -211 l32 -20 12 23 c18 32 16 132 -3 170 -20 39 -73 97 -90 97 -7 0 -16 -26 -22 -59z"/><path d="M3675 6280 c30 -86 91 -157 157 -184 42 -18 133 -21 143 -6 9 15 -14 91 -40 132 -33 49 -110 85 -203 94 l-72 7 15 -43z"/><path d="M7275 6309 c-95 -14 -151 -37 -203 -84 -59 -53 -94 -127 -90 -188 l3 -42 53 -3 c119 -7 206 52 267 179 36 76 55 150 39 148 -5 -1 -36 -5 -69 -10z"/><path d="M3178 6190 c-47 -14 -51 -20 -32 -48 54 -86 116 -122 214 -122 36 0 75 3 87 6 21 6 21 7 -13 54 -68 95 -166 137 -256 110z"/><path d="M5999 6166 c-112 -45 -155 -97 -183 -216 -26 -107 -25 -108 37 -99 82 13 133 37 172 81 49 53 66 97 72 185 6 72 6 73 -18 73 -13 0 -49 -11 -80 -24z"/><path d="M2920 6014 c0 -31 62 -106 104 -125 42 -19 116 -26 116 -10 0 4 -5 23 -11 42 -24 71 -84 109 -171 109 -28 0 -38 -4 -38 -16z"/><path d="M3540 5942 c-25 -10 -63 -30 -84 -44 l-38 -26 43 -28 c118 -74 234 -84 325 -28 69 42 68 61 -3 104 -49 30 -67 35 -127 37 -51 2 -84 -2 -116 -15z"/><path d="M2840 5903 c0 -30 51 -121 86 -155 58 -55 114 -69 203 -52 40 8 39 24 -1 92 -27 44 -44 59 -95 84 -70 34 -193 54 -193 31z"/><path d="M6292 5912 c-10 -6 -7 -16 11 -43 29 -42 60 -59 115 -59 l44 0 -19 31 c-10 18 -29 40 -43 51 -29 21 -89 33 -108 20z"/><path d="M6575 5877 c-99 -33 -107 -54 -42 -114 87 -80 202 -94 320 -39 50 23 57 29 46 43 -17 19 -115 85 -152 101 -44 19 -128 23 -172 9z"/><path d="M7056 5855 c-60 -21 -61 -28 -12 -78 78 -77 183 -97 272 -50 21 11 39 24 41 30 5 14 -82 69 -147 94 -59 22 -100 23 -154 4z"/><path d="M3276 5823 l-39 -26 23 -19 c47 -38 118 -35 164 7 33 30 33 43 0 55 -48 18 -107 12 -148 -17z"/><path d="M2630 5753 c-30 -9 -57 -18 -59 -20 -9 -7 74 -85 117 -110 23 -14 61 -29 84 -35 54 -12 140 6 176 37 l27 24 -35 37 c-75 79 -185 103 -310 67z"/><path d="M3055 5661 c-52 -24 -120 -84 -112 -98 11 -17 96 -43 142 -43 50 0 130 38 171 81 28 30 29 31 9 45 -50 37 -148 44 -210 15z"/><path d="M3339 5580 c-20 -5 -63 -21 -95 -35 l-58 -26 98 -64 c118 -77 177 -94 264 -78 77 15 132 38 132 58 0 25 -74 99 -124 123 -51 26 -159 37 -217 22z"/><path d="M7208 5557 c-54 -16 -106 -52 -144 -102 -21 -29 -24 -38 -14 -50 16 -19 74 -35 129 -35 82 0 121 19 196 94 l69 70 -31 13 c-49 19 -152 24 -205 10z"/><path d="M2756 5479 c26 -52 92 -135 127 -162 79 -60 180 -88 261 -73 32 6 36 10 36 37 0 43 -37 114 -78 150 -64 56 -114 72 -245 77 l-119 4 18 -33z"/><path d="M3695 5374 c-11 -3 -31 -7 -44 -10 -23 -5 -19 -11 59 -89 94 -95 149 -128 235 -144 78 -15 121 -4 117 30 -8 67 -78 156 -151 190 -45 21 -170 34 -216 23z"/><path d="M6175 5375 c-5 -2 -22 -6 -37 -9 -30 -7 -63 -47 -74 -91 l-7 -28 47 6 c25 4 57 14 70 22 23 15 64 80 56 88 -8 8 -45 15 -55 12z"/><path d="M6294 5331 c-45 -20 -88 -70 -99 -113 -6 -24 -3 -28 20 -34 41 -10 114 4 161 31 40 24 104 92 104 113 0 8 -77 22 -125 22 -11 0 -39 -9 -61 -19z"/><path d="M7308 5323 c-77 -42 -73 -76 13 -113 85 -36 189 -18 278 49 l24 18 -73 37 c-94 47 -170 50 -242 9z"/><path d="M2715 5260 c-28 -11 -68 -37 -89 -59 l-39 -39 70 -21 c124 -37 203 -26 276 39 45 39 40 50 -39 80 -67 25 -114 25 -179 0z"/><path d="M6961 5241 c-59 -21 -128 -81 -116 -101 18 -29 110 -60 176 -60 56 0 77 6 137 35 100 50 104 59 45 88 -103 52 -171 62 -242 38z"/><path d="M7340 5131 c-40 -13 -85 -38 -100 -56 -17 -20 3 -43 66 -74 62 -31 111 -36 175 -17 49 14 139 76 139 95 0 12 -148 52 -205 57 -27 2 -61 0 -75 -5z"/><path d="M3117 5115 c-42 -16 -147 -83 -147 -94 0 -9 116 -63 174 -81 90 -28 239 2 290 59 19 21 19 22 -5 47 -13 15 -51 40 -84 55 -68 33 -161 38 -228 14z"/><path d="M2879 4907 c-69 -26 -173 -107 -157 -123 3 -3 29 -11 58 -19 146 -38 231 -28 305 37 25 22 45 44 45 49 0 17 -108 60 -162 65 -31 2 -68 -1 -89 -9z"/><path d="M6622 4863 c-30 -14 -72 -75 -72 -103 0 -16 93 -12 117 5 26 18 63 76 63 99 0 22 -63 21 -108 -1z"/><path d="M7363 4824 c-21 -54 73 -181 154 -208 52 -18 123 -21 123 -6 0 5 -9 35 -21 65 -26 69 -71 122 -124 146 -51 24 -123 25 -132 3z"/><path d="M3169 4806 c-59 -16 -125 -55 -168 -100 l-34 -35 29 -12 c183 -73 299 -62 394 36 l34 35 -24 25 c-42 45 -159 71 -231 51z"/><path d="M6820 4813 c-8 -2 -21 -6 -28 -9 -21 -6 25 -79 85 -134 62 -57 117 -75 209 -67 36 2 67 7 70 10 10 10 -45 103 -83 139 -21 20 -55 44 -75 53 -35 14 -144 20 -178 8z"/><path d="M7156 4794 c14 -60 57 -143 92 -177 36 -35 119 -79 176 -93 24 -6 28 -4 23 12 -3 11 -13 45 -21 76 -31 108 -122 190 -230 204 l-47 7 7 -29z"/><path d="M3486 4730 c-91 -36 -152 -112 -176 -220 -6 -30 -14 -63 -17 -72 -6 -25 39 -24 123 4 121 39 195 133 205 258 l4 45 -45 2 c-26 2 -66 -6 -94 -17z"/><path d="M6595 4714 c-11 -3 -39 -12 -62 -20 -50 -18 -49 -25 17 -93 57 -59 110 -81 190 -80 134 2 152 19 98 89 -54 71 -170 120 -243 104z"/><path d="M3742 4684 c-73 -36 -126 -113 -147 -211 -7 -33 -7 -33 34 -33 63 0 141 34 188 82 46 47 82 118 83 161 0 26 -2 27 -53 27 -37 0 -69 -8 -105 -26z"/><path d="M6207 4654 c-7 -13 35 -101 71 -151 44 -60 136 -103 236 -110 65 -5 76 -4 76 10 0 36 -44 132 -78 169 -56 62 -102 81 -208 86 -50 2 -94 0 -97 -4z"/><path d="M2951 4606 c-77 -28 -152 -125 -176 -230 l-6 -29 78 7 c82 8 153 33 191 68 30 29 67 94 80 141 10 36 9 39 -14 48 -34 12 -111 10 -153 -5z"/><path d="M3215 4574 c-76 -28 -128 -103 -145 -211 -18 -106 -13 -110 68 -69 62 31 118 94 132 146 13 48 10 142 -5 146 -5 1 -28 -4 -50 -12z"/></g><text x="0" y="1039" fill="#000000" font-size="5px" font-weight="bold" font-family="'Helvetica Neue', Helvetica, Arial-Unicode, Arial, Sans-serif">Created by styleaaa</text><text x="0" y="1044" fill="#000000" font-size="5px" font-weight="bold" font-family="'Helvetica Neue', Helvetica, Arial-Unicode, Arial, Sans-serif">from the Noun Project</text></svg>