<svg xmlns="http://www.w3.org/2000/svg" version="1.1" viewBox="-5.0 -10.0 110.0 135.0">
 <path d="m83.617 99.992h-67.234c-0.63281 0-1.1445-0.51172-1.1445-1.1445v-19.324c0-11.289 9.1836-20.469 20.469-20.469h3.707c0.30469 0 0.59375 0.12109 0.80859 0.33594l9.7773 9.7773 9.7773-9.7773c0.21484-0.21484 0.50781-0.33594 0.80859-0.33594h3.707c11.285 0 20.469 9.1836 20.469 20.469v19.324c0 0.63281-0.51172 1.1445-1.1445 1.1445zm-66.09-2.2891h64.945v-18.18c0-10.023-8.1562-18.18-18.18-18.18h-3.2305l-10.25 10.25c-0.44922 0.44922-1.1719 0.44922-1.6211 0l-10.25-10.25h-3.2344c-10.023 0-18.18 8.1562-18.18 18.18z" fill-rule="evenodd"/>
 <path d="m49.988 81.035h-0.015625c-3.3242-0.003906-7.1328-2.0078-8.1523-6.4609-0.14062-0.61719 0.24609-1.2305 0.85938-1.3711 0.61719-0.14062 1.2305 0.24609 1.3711 0.85938 0.78906 3.4492 3.6836 4.6797 5.9258 4.6836h0.011719c2.25 0 5.1562-1.2266 5.9609-4.6875 0.14453-0.61719 0.75781-1 1.375-0.85547 0.61719 0.14453 1 0.75781 0.85547 1.375-1.0391 4.4609-4.8594 6.457-8.1914 6.457z" fill-rule="evenodd"/>
 <path d="m64.922 79.395c-0.17578 0-0.35156-0.039062-0.51172-0.12109l-14.41-7.207-14.41 7.207c-0.39844 0.19922-0.875 0.14844-1.2266-0.12891-0.34766-0.27734-0.50391-0.73047-0.40234-1.1641l4.3359-18.051c0.14844-0.61328 0.76562-0.99219 1.3828-0.84766 0.61328 0.14844 0.99219 0.76562 0.84766 1.3789l-3.7617 15.66 12.719-6.3633c0.32422-0.16016 0.70312-0.16016 1.0234 0l12.719 6.3633-3.7617-15.66c-0.14844-0.61328 0.23047-1.2344 0.84766-1.3789 0.61328-0.14844 1.2344 0.23047 1.3828 0.84766l4.3359 18.051c0.10547 0.43359-0.050781 0.88672-0.40234 1.1641-0.20703 0.16406-0.45703 0.25-0.71094 0.25z" fill-rule="evenodd"/>
 <path d="m57.508 99.992h-15.02c-0.33594 0-0.65234-0.14453-0.87109-0.39844s-0.3125-0.58984-0.26172-0.92188l3.1406-20.34c0.0625-0.39453 0.32422-0.73047 0.69141-0.88281 0.36719-0.15234 0.78906-0.10547 1.1133 0.13281 1.0312 0.75 2.3398 1.1641 3.6836 1.1641 1.3516 0 2.6641-0.41797 3.7031-1.1719 0.32422-0.23438 0.74609-0.28516 1.1133-0.13281 0.36719 0.15234 0.63281 0.48828 0.69141 0.88281l3.1445 20.352c0.050781 0.33203-0.042969 0.66797-0.26172 0.92188s-0.53516 0.39844-0.87109 0.39844zm-13.684-2.2891h12.348l-2.6875-17.391c-1.0859 0.47266-2.2852 0.72656-3.5 0.72656-1.207 0-2.3984-0.25-3.4766-0.71875z" fill-rule="evenodd"/>
 <path d="m50 57.855c-9.9062 0-17.59-12.672-17.59-23.574 0-3.8984 0.99219-7.6758 2.8672-10.922 0.23438-0.40625 0.69531-0.62891 1.1602-0.55859 6.3359 0.94141 11.371 4.5664 13.562 6.3906 2.1914-1.8242 7.2266-5.4492 13.562-6.3906 0.46484-0.070312 0.92578 0.15234 1.1602 0.55859 1.875 3.2461 2.8672 7.0234 2.8672 10.922 0 10.902-7.6836 23.574-17.59 23.574zm-13.117-32.66c-1.4297 2.7383-2.1797 5.8633-2.1797 9.0859 0 9.6406 6.8242 21.285 15.301 21.285 8.4766 0 15.301-11.645 15.301-21.285 0-3.2227-0.75391-6.3477-2.1836-9.0859-6.2344 1.1836-11 5.1328-12.352 6.3555-0.4375 0.39453-1.1016 0.39453-1.5352 0-1.3516-1.2227-6.1133-5.1758-12.352-6.3555zm13.117-5.1484c-0.12109 0-0.24219-0.019531-0.35938-0.058594l-6.1875-2.0469c-0.45703-0.15234-0.76953-0.57031-0.78516-1.0547-0.015625-0.48047 0.27344-0.92188 0.72266-1.0977 0.25-0.097656 0.52734-0.10937 0.78125-0.023437l5.8281 1.9258 5.8281-1.9258c0.23438-0.078125 0.48828-0.078125 0.72266 0 0.46875 0.15625 0.78516 0.59375 0.78516 1.0859 0 0.49219-0.31641 0.92969-0.78516 1.0859l-6.1875 2.0469c-0.11719 0.039063-0.23828 0.058594-0.35938 0.058594z" fill-rule="evenodd"/>
 <path d="m34.797 43.156c-0.027344 0-0.050781 0-0.078125-0.003906-3.5312-0.24219-6.3008-3.207-6.3008-6.75 0-3.1055 2.1016-5.8047 5.1133-6.5625 0.37109-0.09375 0.76562 0.003906 1.0508 0.26562 0.28516 0.25781 0.41797 0.64453 0.35938 1.0234-0.16016 1.0312-0.24219 2.0938-0.24219 3.1523 0 2.332 0.40234 4.8516 1.1641 7.2969 0.054688 0.13281 0.085938 0.27734 0.085938 0.43359 0 0.63281-0.51172 1.1445-1.1445 1.1445h-0.003907zm-2.3438-10.301c-1.0742 0.82812-1.7422 2.1211-1.7422 3.5469 0 1.7266 0.99219 3.2461 2.4531 3.9922-0.49609-2.0664-0.75391-4.1484-0.75391-6.1133 0-0.47656 0.015625-0.95312 0.042969-1.4258z" fill-rule="evenodd"/>
 <path d="m65.203 43.156c-0.34766 0-0.67969-0.16016-0.89844-0.4375-0.23438-0.29688-0.30469-0.69141-0.19141-1.0508 0.77734-2.4727 1.1914-5.0234 1.1914-7.3828 0-1.0586-0.082032-2.1211-0.24219-3.1523-0.058594-0.37891 0.074219-0.76172 0.35938-1.0234 0.28516-0.25781 0.67969-0.35938 1.0508-0.26562 3.0078 0.75781 5.1133 3.4531 5.1133 6.5625 0 3.543-2.7656 6.5078-6.3008 6.75-0.027344 0-0.050781 0.003906-0.078125 0.003906zm2.3438-10.301c0.03125 0.47656 0.042969 0.94922 0.042969 1.4258 0 1.9648-0.25781 4.0469-0.75391 6.1133 1.457-0.74219 2.4531-2.2617 2.4531-3.9922 0-1.4258-0.66797-2.7227-1.7422-3.5469z" fill-rule="evenodd"/>
 <path d="m39.414 61.344c-0.097656 0-0.19922-0.011719-0.29687-0.039062-0.60938-0.16406-0.97266-0.79297-0.80859-1.4023l1.9531-7.2969c0.16406-0.60938 0.79297-0.97266 1.4023-0.80859 0.60938 0.16406 0.97266 0.79297 0.80859 1.4023l-1.9531 7.2969c-0.13672 0.51172-0.60156 0.84766-1.1055 0.84766z" fill-rule="evenodd"/>
 <path d="m60.586 61.344c-0.50391 0-0.96875-0.33594-1.1055-0.84766l-1.9531-7.2969c-0.16406-0.60938 0.19922-1.2383 0.80859-1.4023 0.60937-0.16406 1.2383 0.19922 1.4023 0.80859l1.9531 7.2969c0.16406 0.60938-0.19922 1.2383-0.80859 1.4023-0.097656 0.027343-0.19922 0.039062-0.29687 0.039062z" fill-rule="evenodd"/>
 <path d="m50 31.852c-0.27344 0-0.55078-0.097656-0.76953-0.29687-1.7344-1.5703-8.0039-6.6953-15.844-6.6953-0.90234 0-1.8086 0.070313-2.6953 0.21094-0.36719 0.058594-0.74219-0.066406-1-0.33594-0.25781-0.26953-0.37109-0.64453-0.30078-1.0117l2.0859-10.785c0.0625-0.32422 0.26172-0.60547 0.54297-0.76953 0.28516-0.16797 0.625-0.20312 0.9375-0.097657l17.035 5.6328 17.035-5.6328c0.3125-0.10156 0.65625-0.066406 0.9375 0.097657 0.28516 0.16797 0.48438 0.44531 0.54688 0.76953l2.0703 10.691c0.027344 0.097656 0.042969 0.20312 0.042969 0.3125 0 0.63281-0.51172 1.1445-1.1406 1.1445-0.0625 0-0.12109-0.003907-0.18359-0.015626-0.88281-0.14062-1.7891-0.21094-2.6953-0.21094-7.8398 0-14.109 5.125-15.844 6.6953-0.21875 0.19922-0.49219 0.29687-0.76953 0.29687zm-16.613-9.2812c7.7344 0 14.016 4.4531 16.613 6.6211 2.5977-2.168 8.8789-6.6211 16.613-6.6211 0.48438 0 0.96875 0.019532 1.4492 0.054688l-1.543-7.9766-16.16 5.3438c-0.23438 0.078124-0.48438 0.078124-0.71875 0l-16.16-5.3438-1.543 7.9766c0.48438-0.035156 0.96875-0.054688 1.4531-0.054688z" fill-rule="evenodd"/>
 <path d="m50 20.051c-0.12109 0-0.24219-0.019531-0.35938-0.058593l-26.844-8.875c-0.46875-0.15625-0.78516-0.59375-0.78516-1.0859s0.31641-0.93359 0.78516-1.0859l26.844-8.875c0.23438-0.078125 0.48438-0.078125 0.71875 0l26.844 8.875c0.46875 0.15625 0.78516 0.59375 0.78516 1.0859s-0.31641 0.93359-0.78516 1.0859l-26.844 8.875c-0.11719 0.039062-0.23828 0.058593-0.35938 0.058593zm-23.195-10.02 23.195 7.668 23.195-7.668-23.195-7.668z" fill-rule="evenodd"/>
 <path d="m33.812 32.098c-0.42969 0-0.84375-0.24219-1.0391-0.66016l-3.2969-7.0156c-0.26953-0.57422-0.023437-1.2539 0.55078-1.5234 0.57422-0.26953 1.2539-0.023438 1.5234 0.55078l3.2969 7.0156c0.26953 0.57422 0.023438 1.2539-0.55078 1.5234-0.15625 0.074219-0.32422 0.10938-0.48438 0.10938z" fill-rule="evenodd"/>
 <path d="m66.188 32.098c-0.16406 0-0.32812-0.035156-0.48438-0.10938-0.57422-0.26953-0.82031-0.94922-0.55078-1.5234l3.293-7.0156c0.26953-0.57422 0.95313-0.81641 1.5234-0.55078 0.57422 0.26953 0.82031 0.94922 0.55078 1.5234l-3.293 7.0156c-0.19531 0.41406-0.60547 0.66016-1.0391 0.66016z" fill-rule="evenodd"/>
 <path d="m23.156 34.551c-0.63281 0-1.1445-0.51172-1.1445-1.1445v-23.379c0-0.63281 0.51172-1.1445 1.1445-1.1445s1.1445 0.51172 1.1445 1.1445v23.379c0 0.63281-0.51172 1.1445-1.1445 1.1445z" fill-rule="evenodd"/>
 <path d="m27.453 51.082h-0.003906-8.5898c-0.32812 0-0.64062-0.14062-0.85938-0.38672-0.21875-0.24609-0.31641-0.57422-0.27734-0.90234l1.5977-12.586c0.074219-0.57031 0.55859-1 1.1367-1h5.3945c0.57813 0 1.0625 0.42969 1.1367 1l1.5859 12.488c0.015625 0.078126 0.023437 0.15625 0.023437 0.23828 0 0.63281-0.51172 1.1445-1.1445 1.1445zm-7.293-2.2891h5.9883l-1.3086-10.293h-3.375l-1.3086 10.293z" fill-rule="evenodd"/>
 <path d="m25.852 38.496h-5.3945c-0.63281 0-1.1445-0.51172-1.1445-1.1445v-3.9453c0-0.63281 0.51172-1.1445 1.1445-1.1445h5.3945c0.63281 0 1.1445 0.51172 1.1445 1.1445v3.9453c0 0.63281-0.51172 1.1445-1.1445 1.1445zm-4.2461-2.2891h3.1016v-1.6562h-3.1016z" fill-rule="evenodd"/>
 <path d="m26.625 99.992c-0.63281 0-1.1445-0.51172-1.1445-1.1445v-11.957c0-0.63281 0.51172-1.1445 1.1445-1.1445s1.1445 0.51172 1.1445 1.1445v11.957c0 0.63281-0.51172 1.1445-1.1445 1.1445z" fill-rule="evenodd"/>
 <path d="m26.625 92.859h-10.242c-0.63281 0-1.1445-0.51172-1.1445-1.1445 0-0.63281 0.51172-1.1445 1.1445-1.1445h10.242c0.63281 0 1.1445 0.51172 1.1445 1.1445 0 0.63281-0.51172 1.1445-1.1445 1.1445z" fill-rule="evenodd"/>
 <path d="m73.375 99.992c-0.63281 0-1.1445-0.51172-1.1445-1.1445v-11.957c0-0.63281 0.51172-1.1445 1.1445-1.1445s1.1445 0.51172 1.1445 1.1445v11.957c0 0.63281-0.51172 1.1445-1.1445 1.1445z" fill-rule="evenodd"/>
 <path d="m83.617 92.859h-10.242c-0.63281 0-1.1445-0.51172-1.1445-1.1445 0-0.63281 0.51172-1.1445 1.1445-1.1445h10.242c0.63281 0 1.1445 0.51172 1.1445 1.1445 0 0.63281-0.51172 1.1445-1.1445 1.1445z" fill-rule="evenodd"/>
<text x="0.0" y="117.5" font-size="5.0" font-weight="bold" font-family="Arbeit Regular, Helvetica, Arial-Unicode, Arial, Sans-serif" fill="#000000">Created by Amir Ali</text><text x="0.0" y="122.5" font-size="5.0" font-weight="bold" font-family="Arbeit Regular, Helvetica, Arial-Unicode, Arial, Sans-serif" fill="#000000">from Noun Project</text></svg>