<svg xmlns="http://www.w3.org/2000/svg" version="1.1" viewBox="-5.0 -10.0 110.0 135.0">
 <path d="m37.602 20c-2.8984-2.8008-6.5-3.8984-10-2.8008-4.5 1.3008-7.5 5.6992-7.3008 10.398 0.39844 8.6016 6.5 15.602 16.398 18.602l0.5 0.10156h0.89844l0.5-0.10156c7.6016-2.3984 15.898-8.5 16.398-18.602 0.19922-4.6992-2.8008-9.1016-7.3008-10.5-3.5938-0.99609-7.1953 0.10156-10.094 2.9023zm14.598 7.5c-0.39844 8.6992-7.6992 14-14.398 16.102h-0.30078c-8.6992-2.6992-14.102-8.6992-14.398-16.102-0.19922-3.5 2.1016-6.6992 5.3008-7.6992 2.8984-0.89844 5.8008 0.30078 8.1016 3.1016l1.1016 1.3008 1.1016-1.3008c2.3008-2.8984 5.1992-4 8.1016-3.1016 3.293 1 5.4922 4.1992 5.3906 7.6992z"/>
 <path d="m89.301 58-6.3008-3.6992c-0.69922-0.39844-1.5-0.19922-1.8984 0.5l-0.89844 1.5-10.102-6.6016c-1.6016-1.1016-3.6016-1.5-5.5-1.3008l-22.5 3c-3 0.39844-5.3008 2.8008-5.5 5.6992l-18.5-13.496c-0.89844-0.60156-1.8984-1-3-1-1.5 0-2.8984 0.69922-3.8984 1.8008-1.8008 2.1016-1.6016 5.3008 0.5 7.1992l25.699 22.602c2.5 2.1992 5.6992 3.3984 8.8984 3.3984 0.80078 0 1.5-0.10156 2.3008-0.19922l16-2.6992c1.3984-0.19922 2.8008 0 4 0.80078l0.39844 0.19922-1 1.7969c-0.19922 0.30078-0.19922 0.69922-0.10156 1 0.10156 0.39844 0.30078 0.69922 0.60156 0.80078l6.3984 3.6992c0.19922 0.10156 0.5 0.19922 0.69922 0.19922 0.5 0 0.89844-0.19922 1.1992-0.69922l13.102-22.699c0.19922-0.30078 0.19922-0.69922 0.10156-1-0.10156-0.30078-0.39844-0.60156-0.69922-0.80078zm-19.199 15c-1.8008-1.1016-3.8984-1.5-5.8984-1.1016l-16 2.6992c-3.1992 0.5-6.5-0.39844-9-2.5l-25.703-22.598c-1-0.80078-1.1016-2.3008-0.19922-3.3008 0.80078-0.89844 2.1992-1.1016 3.1992-0.39844l21.102 15.5c0.39844 0.60156 0.80078 1.1016 1.3984 1.5 0.69922 0.60156 1.5 0.89844 2.3984 1.1016 0.5 0.10156 1 0.19922 1.5 0.19922 0.30078 0 0.60156 0 0.80078-0.10156l11.398-1.5c0.80078-0.10156 1.3008-0.80078 1.1992-1.5-0.10156-0.80078-0.80078-1.3008-1.5-1.1992l-11.398 1.5c-0.39844 0.10156-0.89844 0-1.3008-0.10156-0.5-0.10156-1-0.30078-1.3984-0.60156-0.39844-0.30078-0.69922-0.60156-0.89844-1 0 0 0-0.10156-0.10156-0.10156-0.19922-0.39844-0.39844-0.89844-0.5-1.3008-0.30078-2 1.1992-3.8984 3.1992-4.1016l22.5-3c1.3008-0.19922 2.6016 0.10156 3.6016 0.80078l10.301 6.6992-8.3984 14.5zm4.8984 7-4-2.3008 10.801-18.699s0-0.10156 0.10156-0.10156l0.89844-1.5 4 2.3008z"/>
<text x="0.0" y="117.5" font-size="5.0" font-weight="bold" font-family="Arbeit Regular, Helvetica, Arial-Unicode, Arial, Sans-serif" fill="#000000">Created by Rahmad romadoni</text><text x="0.0" y="122.5" font-size="5.0" font-weight="bold" font-family="Arbeit Regular, Helvetica, Arial-Unicode, Arial, Sans-serif" fill="#000000">from Noun Project</text></svg>