<svg xmlns="http://www.w3.org/2000/svg" version="1.1" viewBox="-5.0 -10.0 110.0 135.0">
 <path d="m44.812 77.832h10.559v2h-10.559z"/>
 <path d="m63.754 71.371c-2.0859-2.3984-2.6016-5.8711-1.3477-9.0664 0.53516-1.3594 0.77344-2.8008 0.70703-4.2812-0.23438-5.2383-4.4062-9.4102-9.6875-9.8984v-28.602l1.1641-1.8984v-0.92969h1.2188v-2h-1.2188v-1.1445h1.2188v-2h-1.2188v-1.1445h1.2188v-2h-1.2188v-0.09375c0-1.8984-1.543-3.4375-3.4414-3.4375h-2.1133c-1.8984 0-3.4375 1.543-3.4375 3.4375v0.09375h-1.3125v2h1.3125v1.1445h-1.3125v2h1.3125v1.1445h-1.3125v2h1.3125v0.90625l1.1641 2.1133v28.41c-5.2812 0.48828-9.4531 4.6602-9.6875 9.8984-0.066407 1.4805 0.17188 2.9219 0.70703 4.2812 1.2539 3.1953 0.73828 6.6719-1.3477 9.0664-2.2227 2.5547-3.3828 5.832-3.2656 9.2266 0.25 7.1094 6.4141 12.891 13.75 12.891h6.3555c7.3359 0 13.5-5.7812 13.746-12.891 0.11719-3.3984-1.0391-6.6719-3.2617-9.2266zm-13.664-12.551c1.6367 0 2.9648 1.3281 2.9648 2.9648 0 1.6367-1.3281 2.9648-2.9648 2.9648-1.6367 0-2.9648-1.3281-2.9648-2.9648 0-1.6367 1.332-2.9648 2.9648-2.9648zm0-2c-0.46484 0-0.90625 0.085938-1.332 0.20313v-36.68h2.668v36.68c-0.42578-0.12109-0.86719-0.20313-1.332-0.20313zm-2.4961-48.504c0-0.79297 0.64453-1.4375 1.4375-1.4375h2.1133c0.79297 0 1.4414 0.64453 1.4414 1.4375v8.7461l-0.78516 1.2812h-3.5156l-0.69141-1.2578zm5.6758 83.176h-6.3555c-6.2695 0-11.539-4.9141-11.75-10.961-0.10156-2.8867 0.88281-5.6719 2.7734-7.8438 2.5781-2.9609 3.2266-7.2188 1.6992-11.109-0.42969-1.0977-0.625-2.2617-0.57031-3.4609 0.18359-4.0938 3.5391-7.4766 7.6914-7.9688v7.9883c-0.99609 0.91016-1.6328 2.2031-1.6328 3.6562 0 2.7383 2.2266 4.9648 4.9648 4.9648 2.7383 0 4.9648-2.2266 4.9648-4.9648 0-1.4492-0.63672-2.7461-1.6328-3.6562v-7.9883c4.1484 0.49219 7.5078 3.875 7.6875 7.9688 0.054687 1.1953-0.13672 2.3594-0.57031 3.4609-1.5273 3.8906-0.875 8.1484 1.6992 11.109 1.8906 2.1719 2.875 4.957 2.7734 7.8438-0.21094 6.043-5.4805 10.961-11.75 10.961z"/>
<text x="0.0" y="117.5" font-size="5.0" font-weight="bold" font-family="Arbeit Regular, Helvetica, Arial-Unicode, Arial, Sans-serif" fill="#000000">Created by bis kim</text><text x="0.0" y="122.5" font-size="5.0" font-weight="bold" font-family="Arbeit Regular, Helvetica, Arial-Unicode, Arial, Sans-serif" fill="#000000">from Noun Project</text></svg>