<svg xmlns="http://www.w3.org/2000/svg" version="1.1" viewBox="-5.0 -10.0 110.0 135.0">
 <path d="m64.488 37.211 0.089844-0.39063c0.41016-1.75 0.26953-3.5703-0.41016-5.25-0.011719-0.039062-0.03125-0.070312-0.050781-0.10937l-3.2812-7.3398c0.58984-1.9492 0.35937-4.3906-0.69922-6.5117-1.1719-2.3398-4.3203-6.2617-12.238-6.2617-0.30078 0-0.60156 0-0.91016 0.019532-8.1289 0.30078-29.719 1.1016-35.328 21.961 0 0.03125-0.019531 0.070313-0.03125 0.10156-3.3594 14.551 2.1992 19.68 11.41 28.191l0.23047 0.21094c2.3203 2.3711 2.9805 7.8516 2.7695 9.2383-1.2812 8.8086-4.5 12.559-4.5312 12.602-0.80859 0.87891-1.0117 2.1289-0.53125 3.2188 0.48047 1.0898 1.5703 1.7812 2.7617 1.7812h28.219c0.92188 0 1.7891-0.42188 2.3516-1.1406 0.57031-0.71875 0.78125-1.6602 0.55859-2.5586-0.67188-2.8398-0.98047-6.0312-0.82031-7.9219 3.0117-0.078125 5.6602-0.41016 7.4414-0.69922 3.1016-0.51172 5.25-3.3594 4.8984-6.4883-0.19922-1.6914-0.14844-2.5508-0.10156-2.9219 0.91016-0.87891 1.6211-2.0391 2.0586-3.3789 0.58984-1.7812-0.10938-3.75-1.7188-4.7617l-2.9219-1.8516 2.5312-1.2617c1.75-0.89062 2.6406-2.8906 2.1406-4.7617-0.019531-0.070312-0.039062-0.12891-0.058594-0.19141 1.5586-0.94141 3.0703-2.2383 3.5781-3.8906 0.37891-1.2188 0.19922-2.4883-0.51953-3.5508-0.82812-1.25-3.9492-3.8086-6.8906-6.0781zm-0.039062 12.09 1.0312 2.3984c0.14062 0.51953-0.10938 1.0586-0.57812 1.3008l-6.0195 3.0117c-0.55078 0.28125-0.58984 1.0508-0.070312 1.3789l6.2305 3.9492c0.42969 0.26953 0.62891 0.80078 0.46875 1.2812-0.23047 0.69922-0.67969 1.6797-1.5508 2.3906-0.87109 0.71094-0.76953 3.1914-0.53906 5.1719 0.17188 1.5391-0.87109 2.9492-2.3984 3.1992-2.0312 0.32813-4.9805 0.67969-8.2305 0.67969-0.32031 0-0.64062 0-0.96875-0.011719-1.8906 3.1094 0.14062 11.609 0.14062 11.609h-28.227s3.8086-4.1406 5.2695-14.172c0.30078-2.0508-0.42969-8.6211-3.6484-11.84-9.2617-8.5586-13.789-12.59-10.801-25.559 4.8594-18.09 23.102-19.391 32.539-19.738 0.26953-0.011718 0.53906-0.019531 0.80078-0.019531 10.262 0 11.238 7.6484 9.6602 9.7617h-0.011719l3.8281 8.5781c0.44141 1.1016 0.53906 2.3008 0.26953 3.4609l-0.53125 2.2812s6.8516 5.1797 7.7617 6.5391c1.3516 2.0195-4.4414 4.3398-4.4414 4.3398z"/>
 <path d="m75.422 52.121c0.32812 0 0.64844-0.10938 0.92969-0.32031l7.1602-5.6602c0.64844-0.51172 0.76172-1.4609 0.25-2.1094s-1.4609-0.76172-2.1094-0.25l-7.1602 5.6602c-0.64844 0.51172-0.76172 1.4609-0.25 2.1094 0.30078 0.37109 0.73047 0.57031 1.1797 0.57031z"/>
 <path d="m84.328 67.898-7.6211-5.4219c-0.67188-0.48047-1.6094-0.32031-2.0898 0.35156-0.48047 0.67969-0.32031 1.6094 0.35156 2.0898l7.6211 5.4219c0.26172 0.19141 0.57031 0.28125 0.87109 0.28125 0.46875 0 0.92969-0.21875 1.2188-0.62891 0.48047-0.67969 0.32031-1.6094-0.35156-2.0898z"/>
 <path d="m86.352 55.559-9.1992 0.089844c-0.82812 0-1.4883 0.69141-1.4883 1.5117 0 0.82031 0.67969 1.4883 1.5 1.4883h0.011719l9.1992-0.089844c0.82812 0 1.4883-0.69141 1.4883-1.5117s-0.71875-1.4805-1.5117-1.4883z"/>
<text x="0.0" y="117.5" font-size="5.0" font-weight="bold" font-family="Arbeit Regular, Helvetica, Arial-Unicode, Arial, Sans-serif" fill="#000000">Created by creacuatro</text><text x="0.0" y="122.5" font-size="5.0" font-weight="bold" font-family="Arbeit Regular, Helvetica, Arial-Unicode, Arial, Sans-serif" fill="#000000">from Noun Project</text></svg>