<svg xmlns="http://www.w3.org/2000/svg" xmlns:xlink="http://www.w3.org/1999/xlink" version="1.1" x="0px" y="0px" viewBox="0 0 66 82.5" style="enable-background:new 0 0 66 66;" xml:space="preserve"><path d="M63.67,48.49L46.95,31.77l7.67-7.67c0,0,0,0,0,0l4.86-4.86l2.69-2.69c0.39-0.39,0.68-0.83,0.89-1.32s0.31-1.02,0.31-1.56  c0-1.09-0.42-2.11-1.2-2.88l-6.95-6.95c-0.77-0.77-1.79-1.2-2.88-1.2c-1.09,0.01-2.12,0.42-2.89,1.19l-4.18,4.18l0,0L34.23,19.05  L17.51,2.33c-1.32-1.32-3.46-1.32-4.78,0L2.34,12.73c-0.64,0.64-1,1.5-0.99,2.4c0,0.9,0.36,1.75,0.99,2.38l2.4,2.4  c0,0.01,0.01,0.01,0.01,0.02c0,0.01,0.01,0.01,0.02,0.01l6.51,6.51c0.01,0.01,0.01,0.01,0.01,0.02c0.01,0.01,0.01,0.01,0.02,0.01  L17.83,33c0.01,0.01,0.01,0.01,0.01,0.02c0.01,0.01,0.01,0.01,0.02,0.01l1.2,1.2L6.58,46.7c0,0,0,0,0,0  c-0.07,0.07-0.12,0.15-0.16,0.24C6.4,46.97,6.39,47,6.38,47.02c-0.01,0.02-0.02,0.05-0.03,0.07L3.01,60.56  c-0.17,0.7,0.03,1.42,0.52,1.91c0.38,0.38,0.88,0.58,1.41,0.58c0.17,0,0.34-0.02,0.5-0.06l13.45-3.35c0.03-0.01,0.05-0.02,0.08-0.03  c0.02-0.01,0.05-0.02,0.07-0.03c0.09-0.04,0.17-0.09,0.24-0.16c0,0,0,0,0,0l12.47-12.47l16.72,16.72c0.66,0.66,1.52,0.99,2.39,0.99  c0.87,0,1.73-0.33,2.4-0.99l10.39-10.39c0,0,0,0,0,0C64.98,51.95,64.98,49.8,63.67,48.49z M18.7,57.64l-4.58-4.57l34.13-34.13  l4.58,4.57L18.7,57.64z M45.87,9.79l10.34,10.34l-2.19,2.19L43.68,11.97L45.87,9.79z M52.34,4.31c0.64,0,1.24,0.25,1.7,0.71  l6.95,6.95c0.45,0.45,0.7,1.05,0.7,1.69s-0.25,1.24-0.7,1.69l-3.59,3.59L47.05,8.6l3.59-3.59c0.34-0.34,0.74-0.57,1.21-0.66  C52,4.33,52.17,4.31,52.34,4.31z M20.24,33.04l-0.62-0.62l1.93-1.93c0.33-0.33,0.33-0.86,0-1.19c-0.33-0.33-0.86-0.33-1.19,0  l-1.93,1.93l-5.35-5.35l3.48-3.48c0.33-0.33,0.33-0.86,0-1.19c-0.33-0.33-0.86-0.33-1.19,0l-3.48,3.48l-5.35-5.35l1.93-1.93  c0.33-0.33,0.33-0.86,0-1.19c-0.33-0.33-0.86-0.33-1.19,0l-1.93,1.93l-1.83-1.83c-0.32-0.32-0.5-0.74-0.5-1.2  c0-0.46,0.18-0.89,0.5-1.21L13.92,3.52c0.33-0.33,0.77-0.5,1.2-0.5s0.87,0.16,1.2,0.5l16.72,16.72l-8.02,8.02L20.24,33.04z   M25.5,30.16l9.33-9.32c0.01-0.01,0.01-0.01,0.01-0.02l7.65-7.65l4.58,4.58L12.94,51.88L8.36,47.3L25.5,30.16z M5.05,61.36  c-0.18,0.04-0.29-0.03-0.33-0.07c-0.05-0.05-0.12-0.15-0.08-0.32l2.98-12.02l9.43,9.43L5.05,61.36z M62.48,52.09L52.09,62.48  c-0.67,0.66-1.75,0.66-2.41,0l-3.89-3.89l1.93-1.93c0.33-0.33,0.33-0.86,0-1.19s-0.86-0.33-1.19,0l-1.93,1.93l-5.35-5.35l3.49-3.49  c0.33-0.33,0.33-0.86,0-1.19s-0.86-0.33-1.19,0l-3.49,3.49l-5.1-5.1l12.81-12.81l16.72,16.72C63.14,50.34,63.14,51.42,62.48,52.09z"/><path d="M17.68,7.01c-1.3-1.3-3.58-1.3-4.88,0c-1.35,1.35-1.35,3.53,0,4.88c0.65,0.65,1.52,1.01,2.44,1.01  c0.92,0,1.79-0.36,2.44-1.01c0.65-0.65,1.01-1.52,1.01-2.44S18.33,7.66,17.68,7.01L17.68,7.01z M16.49,10.7  c-0.67,0.67-1.84,0.67-2.5,0c-0.69-0.69-0.69-1.81,0-2.5c0.33-0.33,0.78-0.52,1.25-0.52c0.47,0,0.92,0.18,1.25,0.52c0,0,0,0,0,0  c0.33,0.33,0.52,0.78,0.52,1.25S16.83,10.36,16.49,10.7z"/><text x="0" y="81" fill="#000000" font-size="5px" font-weight="bold" font-family="'Helvetica Neue', Helvetica, Arial-Unicode, Arial, Sans-serif">Created by Candy Design</text><text x="0" y="86" fill="#000000" font-size="5px" font-weight="bold" font-family="'Helvetica Neue', Helvetica, Arial-Unicode, Arial, Sans-serif">from the Noun Project</text></svg>