<svg xmlns="http://www.w3.org/2000/svg" version="1.1" viewBox="-5.0 -10.0 110.0 135.0">
 <path d="m28.23 33.891c2.1406 0 3.8789-1.7383 3.8789-3.8789 0-0.37109-0.070313-0.71875-0.17188-1.0586l8.3086-5.3789c0.67969 0.57031 1.5391 0.92969 2.4883 0.92969 1.2383 0 2.3203-0.58984 3.0391-1.4883l7.6211 2.9609c-0.011719 0.10156-0.03125 0.19141-0.03125 0.28906 0 2.1406 1.7383 3.8789 3.8789 3.8789 2.1406 0 3.8789-1.7383 3.8789-3.8789 0-0.48828-0.10156-0.94922-0.26953-1.3789l8.6602-6.7383c0.62891 0.44922 1.3984 0.71875 2.2305 0.71875 2.1406 0 3.8789-1.7383 3.8789-3.8789s-1.7383-3.8789-3.8789-3.8789c-2.1406 0-3.8789 1.7383-3.8789 3.8789 0 0.48828 0.10156 0.94922 0.26953 1.3789l-8.6602 6.7383c-0.62891-0.44922-1.3984-0.71875-2.2305-0.71875-1.2383 0-2.3203 0.58984-3.0391 1.4883l-7.6211-2.9609c0.011719-0.10156 0.03125-0.19141 0.03125-0.28906 0-2.1406-1.7383-3.8789-3.8789-3.8789s-3.8789 1.7383-3.8789 3.8789c0 0.37109 0.070312 0.71875 0.17188 1.0586l-8.3086 5.3789c-0.67969-0.57031-1.5391-0.92969-2.4883-0.92969-2.1406 0-3.8789 1.7383-3.8789 3.8789 0 2.1367 1.7383 3.8789 3.8789 3.8789zm43.539-20.562c0.89844 0 1.6289 0.73047 1.6289 1.6289 0 0.89844-0.73047 1.6289-1.6289 1.6289-0.89844 0-1.6289-0.73047-1.6289-1.6289 0-0.89844 0.73047-1.6289 1.6289-1.6289zm-14.52 11.281c0.89844 0 1.6289 0.73047 1.6289 1.6289 0 0.89844-0.73047 1.6289-1.6289 1.6289s-1.6289-0.73047-1.6289-1.6289c0-0.89844 0.73828-1.6289 1.6289-1.6289zm-14.512-5.6406c0.89844 0 1.6289 0.73047 1.6289 1.6289 0 0.89844-0.73047 1.6289-1.6289 1.6289-0.89844 0-1.6289-0.73047-1.6289-1.6289 0-0.89844 0.74219-1.6289 1.6289-1.6289zm-14.508 9.4102c0.89844 0 1.6289 0.73047 1.6289 1.6289 0 0.89844-0.73047 1.6289-1.6289 1.6289-0.90234 0.003906-1.6211-0.73828-1.6211-1.6367s0.73047-1.6211 1.6211-1.6211zm56.281 43.121h6.6211c2.8398 0 5.1484-2.3086 5.1484-5.1484v-55.602c0-2.8398-2.3086-5.1484-5.1484-5.1484h-82.262c-2.8398 0-5.1484 2.3086-5.1484 5.1484v55.602c0 2.8398 2.3086 5.1484 5.1484 5.1484h32.18c-1.0781 5.6094-3.25 10.691-5.5117 12.871h-3.25c-2.8398 0-5.1484 2.3086-5.1484 5.1484v1.7305c0 1.7305 1.4102 3.1406 3.1406 3.1406h39.43c1.7305 0 3.1406-1.4102 3.1406-3.1406v-1.7305c0-2.8398-2.3086-5.1484-5.1484-5.1484h-3.25c-2.2617-2.1719-4.4297-7.2617-5.5117-12.871h3.1797c3.0312 2.5508 6.9297 4.1016 11.191 4.1016 2.1094 0 4.1211-0.39844 5.9883-1.0898l1.7617 3.0508c-0.87109 0.69141-1.1406 1.9297-0.57031 2.9219l6.6094 11.449c0.64844 1.1289 1.7109 1.9414 2.9805 2.2812 0.42969 0.10938 0.85938 0.17188 1.2891 0.17188 0.85156 0 1.6914-0.21875 2.4414-0.66016 2.3516-1.3516 3.1484-4.3594 1.8008-6.7109l-6.6094-11.449c-0.30078-0.53125-0.80078-0.89844-1.3789-1.0586-0.48047-0.12891-0.98047-0.089843-1.4297 0.089844l-1.7617-3.0391c0.027344-0.019532 0.046875-0.039063 0.078125-0.058594zm6.6172-2.25h-4.3789c1.6719-2.0312 2.8711-4.4414 3.4883-7.0781h3.7812v4.1914c0 1.5859-1.3008 2.8867-2.8906 2.8867zm-82.258-61.379h82.262c1.5898 0 2.8906 1.3008 2.8906 2.8906v49.148h-3.3984c0.050781-0.55859 0.089844-1.1211 0.089844-1.6914 0-8.25-5.7812-15.16-13.5-16.93l-0.003906-15.051c0-1.6602-1.3516-3.0117-3.0117-3.0117h-4.8594c-1.6602 0-3.0117 1.3516-3.0117 3.0117v16.07c-1.3008 0.57812-2.5195 1.3086-3.6289 2.1719v-6.9492c0-1.6602-1.3516-3.0117-3.0117-3.0117h-4.8594c-1.6602 0-3.0117 1.3516-3.0117 3.0117v16.922h-3.6289l0.003906-22.574c0-1.6602-1.3516-3.0117-3.0117-3.0117h-4.8594c-1.6602 0-3.0117 1.3516-3.0117 3.0117v22.559h-3.6289v-13.148c0-1.6602-1.3516-3.0117-3.0117-3.0117l-4.8672 0.003906c-1.6602 0-3.0117 1.3516-3.0117 3.0117v13.16h-2c-0.62109 0-1.1289 0.51172-1.1289 1.1289 0 0.62109 0.51172 1.1289 1.1289 1.1289h35.211c-0.039062 0.5-0.078125 1-0.078125 1.5117 0 0.57031 0.03125 1.1289 0.089844 1.6914l-50.031-0.003906v-49.148c0-1.6016 1.2891-2.8906 2.8906-2.8906zm66.078 33.039c-0.53906-0.050781-1.0781-0.078125-1.6289-0.078125-1.6406 0-3.2305 0.23828-4.7305 0.67188v-15.266c0-0.41016 0.33984-0.75 0.75-0.75h4.8594c0.41016 0 0.75 0.33984 0.75 0.75zm-18.598 13.531h-2.2812v-16.91c0-0.41016 0.33984-0.75 0.75-0.75h4.8594c0.41016 0 0.75 0.33984 0.75 0.75v9.0508c-1.9805 2.1875-3.4102 4.8789-4.0781 7.8594zm-10.422 0h-6.3711v-22.562c0-0.41016 0.33984-0.75 0.75-0.75h4.8594c0.41016 0 0.75 0.33984 0.75 0.75l0.003906 22.562zm-14.52 0h-6.3711v-13.152c0-0.41016 0.33984-0.75 0.75-0.75h4.8594c0.41016 0 0.75 0.33984 0.75 0.75v13.152zm-25.43 11.918v-4.1914l50.418 0.003906c0.62109 2.6406 1.8203 5.0586 3.4883 7.0781h-51.016c-1.6016 0-2.8906-1.3008-2.8906-2.8906zm64.621 23.16v1.7305c0 0.48828-0.39062 0.87891-0.87891 0.87891h-39.441c-0.48828 0-0.87891-0.39062-0.87891-0.87891v-1.7305c0-1.5898 1.3008-2.8906 2.8906-2.8906h35.41c1.5977 0 2.8984 1.293 2.8984 2.8906zm-9.1133-5.1484h-22.988c2.4297-3.3711 4.0586-8.6016 4.8398-12.871h13.309c0.78125 4.2695 2.4102 9.5 4.8398 12.871zm-3.2969-26.16c0-8.3398 6.7891-15.129 15.129-15.129 8.3398 0 15.129 6.7891 15.129 15.129 0 8.3398-6.7891 15.129-15.129 15.129-8.3516 0.011718-15.129-6.7812-15.129-15.129zm28.867 18.488 6.6094 11.449c0.73047 1.2695 0.30078 2.8906-0.96875 3.6289-0.60938 0.35156-1.3281 0.44922-2.0117 0.26172-0.67969-0.19141-1.2617-0.62109-1.6094-1.2305l-6.6094-11.449c-0.011719-0.011719 0-0.019531 0.011719-0.03125l4.5586-2.6289c0-0.007813 0.011719 0 0.019532 0zm-2.8281-0.98828-1.2188 0.69922-1.6211-2.8086c0.42188-0.21875 0.82031-0.46094 1.2109-0.71094zm-10.91-30.473c-7.1484 0-12.969 5.8203-12.969 12.969 0 7.1484 5.8203 12.969 12.969 12.969 7.1484 0 12.969-5.8203 12.969-12.969 0-7.1484-5.8203-12.969-12.969-12.969zm0 23.691c-5.9102 0-10.719-4.8086-10.719-10.719 0-5.9102 4.8086-10.719 10.719-10.719 5.9102 0 10.719 4.8086 10.719 10.719-0.007812 5.9102-4.8086 10.719-10.719 10.719z"/>
<text x="0.0" y="117.5" font-size="5.0" font-weight="bold" font-family="Arbeit Regular, Helvetica, Arial-Unicode, Arial, Sans-serif" fill="#000000">Created by Radhika Studio</text><text x="0.0" y="122.5" font-size="5.0" font-weight="bold" font-family="Arbeit Regular, Helvetica, Arial-Unicode, Arial, Sans-serif" fill="#000000">from Noun Project</text></svg>