<svg xmlns="http://www.w3.org/2000/svg" xmlns:xlink="http://www.w3.org/1999/xlink" version="1.1" x="0px" y="0px" viewBox="-247 370.9 100 125" style="enable-background:new -247 370.9 100 100;" xml:space="preserve"><g><path d="M-244.5,381.4v79h95v-79H-244.5z M-152.5,457.4h-89v-73h89V457.4z"/><path d="M-234.9,447.3c0.4,0,0.8-0.1,1.1-0.4l22.2-22.2l7.5,4.2c0.6,0.3,1.3,0.2,1.8-0.3l17.1-17.1l7.5,3.7   c0.6,0.3,1.3,0.2,1.7-0.3l15.3-15.3V410c0,0.8,0.7,1.5,1.5,1.5s1.5-0.7,1.5-1.5V396c0,0,0,0,0,0v0c0-0.4-0.1-0.7-0.4-1c0,0,0,0,0,0   c-0.1-0.1-0.1-0.1-0.2-0.2c-0.2-0.2-0.5-0.3-0.8-0.3c0,0-0.1,0-0.1,0h-14.1c-0.8,0-1.5,0.7-1.5,1.5s0.7,1.5,1.5,1.5h10.5   l-14.5,14.5l-7.5-3.7c-0.6-0.3-1.3-0.2-1.7,0.3l-17.1,17.1l-7.5-4.2c-0.6-0.3-1.3-0.2-1.8,0.3l-23,23c-0.6,0.6-0.6,1.5,0,2.1   C-235.6,447.2-235.2,447.3-234.9,447.3z"/></g><text x="-247" y="485.9" fill="#000000" font-size="5px" font-weight="bold" font-family="'Helvetica Neue', Helvetica, Arial-Unicode, Arial, Sans-serif">Created by Lara </text><text x="-247" y="490.9" fill="#000000" font-size="5px" font-weight="bold" font-family="'Helvetica Neue', Helvetica, Arial-Unicode, Arial, Sans-serif">from the Noun Project</text></svg>