<svg xmlns="http://www.w3.org/2000/svg" version="1.1" viewBox="-5.0 -10.0 110.0 135.0">
 <path d="m47.938 34.234c-0.03125-0.85938-0.73828-1.5781-1.6211-1.5l-26.816 1.0391c-0.86328 0.035156-1.5352 0.76172-1.5 1.6211 0.03125 0.86328 0.76562 1.5352 1.6211 1.5l26.816-1.0391c0.86328-0.035157 1.5352-0.76172 1.5-1.6211z"/>
 <path d="m51.176 43.461c-0.011719-0.86328-0.75391-1.4805-1.5859-1.5391l-26.699 0.40625c-0.86328 0.015625-1.5508 0.72266-1.5391 1.5859 0.011719 0.86328 0.72656 1.5508 1.5859 1.5391l26.699-0.40625c0.86328-0.015625 1.5508-0.72266 1.5391-1.5859z"/>
 <path d="m46.898 52.328c0-0.86328-0.69922-1.5625-1.5625-1.5625h-18.262c-0.86328 0-1.5625 0.69922-1.5625 1.5625s0.69922 1.5625 1.5625 1.5625h18.262c0.86328 0 1.5625-0.69922 1.5625-1.5625z"/>
 <path d="m44.488 61.98c2.0586-0.11719 1.8906-3.2266-0.14453-3.1211l-14.914 0.69141c-2.0469 0.12891-1.9102 3.1836 0.14453 3.1211l14.914-0.69141z"/>
 <path d="m31.664 68.219c-2.0469 0.078125-1.9922 3.1328 0.066407 3.125l27.164-0.57812c2.0391-0.089844 2-3.082-0.066406-3.125 0 0-27.164 0.57812-27.164 0.57812z"/>
 <path d="m47.008 76.656-15.949 0.34766c-2.0508 0.082032-1.9883 3.1328 0.070312 3.125l15.949-0.34766c2.0234-0.027344 2.0039-3.2344-0.070313-3.125z"/>
 <path d="m94.672 14.645c-0.78125-0.94922-2.0703-1.2695-3.2031-0.80078l-9.2422 3.8047c-4.4961 1.8477-8.2852 4.9727-10.957 9.0312l-11.992 18.211c-0.94531-2.1797-1.8398-4.4609-2.793-7.1562l-3.7344-10.562h2.0117c7.6797 0.089844 11.684-9.582 6.1836-14.969-1.668-1.6445-3.8633-2.5469-6.2031-2.5469l-37.879 0.55469c-8.2617-1.2539-12.957 8.668-9.6484 16.863 1.8203 5.4688 5.9414 16.434 9.1797 24.051 2.8008 6.082 6.3945 13.492 6.9023 18.672h-10.875c-7.1875-0.86719-8.1133 8.4062-7.6602 10.801 0.79688 6.6719 5.793 10.777 11.914 9.5273h35.914c7.1445 0 13.301-4.7461 14.973-11.539 0.73047-2.9766 0.72266-6.1211-0.007812-9.4883-0.89844-4.125-3.1562-11.395-6.0781-18.867 8.5078-1.0039 16.062-6.0352 21-13.5 0 0 12.379-18.781 12.379-18.781 0.67578-1.0273 0.60547-2.3555-0.17578-3.3008zm-39.914-1.8633c7.4336 0.21875 7.4258 11.031 0 11.266h-32.637c1.6758-2.4375 3.0781-7.8828 0.22656-10.789 0 0 32.41-0.47656 32.41-0.47656zm-36.133 10.895c-0.089844 0.11328-0.13672 0.24219-0.1875 0.37109h-1.5156c-1.2852 0.027344-2.4062-1.1016-2.3867-2.3867 0-1.3164 1.0703-2.3867 2.3867-2.3867h3.8086c-0.42188 1.8867-1.5391 3.6836-2.1055 4.4023zm4.5742 55.273-5.3711 0.085937-0.10156-0.15234c0.77344-1.9023 0.61719-4.2227-0.48437-5.9531h6.3672c0.11719 2.332-0.0625 4.3438-0.40625 6.0234zm-11.789 7.4844c-0.875-0.46094-2.9727-2-3.5586-6.2148-0.14844-0.44922-0.23437-7.4297 3.7227-7.3555 1.6523 0.066407 3.2383 1.1055 3.4922 3.1406 0.089844 1.707-1.1523 3.1328 0.097656 4.7617 0.61328 0.88672 1.5977 1.4297 2.7109 1.3906l4.3477-0.070312c-1.7578 3.9102-6.9141 6.5117-10.816 4.3438zm53.168-8.8516c-1.2227 5.5156-6.2031 9.4258-12 9.4219h-30.133c1.4883-1.4375 2.6367-3.2344 3.2578-5.2344 1.6133-5.2148 2.1953-14.125-4.2031-26.965-3.9883-8.2461-9-21.926-11.328-28.715-2.5508-6.0547 0.51562-14.816 7.5508-12.43 1.4102 0.66016 2.3164 1.4883 2.7891 2.4883h-3.5859c-4.8164-0.085938-7.3633 6.0703-3.8984 9.4102 1.0391 1.0391 2.4219 1.6133 3.8984 1.6133h32.512c2.0117 5.7891 5.375 15.52 7.7734 20.855l-8.0508 12.227c-1.1211 1.6953 1.4766 3.4258 2.6094 1.7188l6.8594-10.418c2.8164 7.2383 5.0234 14.34 5.8672 18.211 0.60547 2.7891 0.63672 5.4141 0.085937 7.8203zm21.711-52.328-6.9297 1.082c-1.8789 0.28516-1.6406 3.1172 0.23828 3.1055 0.078125 0 0.16016-0.007812 0.24219-0.019531l4.1211-0.64453-2.1328 3.2344-6.1953 0.32812c-1.9961 0.13281-1.918 3.0977 0.082032 3.125h0.082031l3.8789-0.20312c-3.625 5.3789-8.7695 9.2969-14.527 11.027-1.2148 0.36719-2.4219 0.63281-3.5781 0.78906l12.301-18.68c2.3281-3.5312 5.625-6.25 9.5352-7.8594l8.2109-3.3789-5.3359 8.0938z"/>
<text x="0.0" y="117.5" font-size="5.0" font-weight="bold" font-family="Arbeit Regular, Helvetica, Arial-Unicode, Arial, Sans-serif" fill="#000000">Created by ilham handriansyah</text><text x="0.0" y="122.5" font-size="5.0" font-weight="bold" font-family="Arbeit Regular, Helvetica, Arial-Unicode, Arial, Sans-serif" fill="#000000">from Noun Project</text></svg>