<svg xmlns="http://www.w3.org/2000/svg" viewBox="0 0 32 40" x="0px" y="0px"><path d="M2.33838,16.21729l2.71728-2.49518V29.00635a.49972.49972,0,0,0,.5.5H26.458a.49972.49972,0,0,0,.5-.5V13.73468l2.70361,2.48261a.5.5,0,0,0,.67676-.73633l-3.51727-3.22974c-.00989-.01056-.02057-.0191-.03138-.02881L16.33838,2.62549a.50018.50018,0,0,0-.67676,0l-14,12.85547a.5.5,0,0,0,.67676.73633ZM16,3.67236l9.958,9.14405V28.50635H6.05566V12.80383Z"/><path d="M14.87744,24.05518l.772.7539a.50048.50048,0,0,0,.70118-.00049l.77-.75244C19.56738,21.6709,21.5,19.78662,21.5,17.90674a2.78521,2.78521,0,0,0-2.89551-2.85449A3.10618,3.10618,0,0,0,16.002,16.49854a3.09763,3.09763,0,0,0-2.60205-1.45069A2.78958,2.78958,0,0,0,10.5,17.90674C10.5,19.79639,12.52881,21.77,14.87744,24.05518ZM13.3999,16.04785a2.28945,2.28945,0,0,1,2.13526,1.71143.50041.50041,0,0,0,.46386.31592H16a.50054.50054,0,0,0,.46436-.314,2.29816,2.29816,0,0,1,2.14013-1.709A1.7895,1.7895,0,0,1,20.5,17.90674c0,1.45849-1.88965,3.30029-4.07764,5.4331l-.42285.41358-.4248-.415C13.47949,21.2998,11.5,19.374,11.5,17.90674A1.81572,1.81572,0,0,1,13.3999,16.04785Z"/><text x="0" y="47" fill="#000000" font-size="5px" font-weight="bold" font-family="'Helvetica Neue', Helvetica, Arial-Unicode, Arial, Sans-serif">Created by Petr Bilek</text><text x="0" y="52" fill="#000000" font-size="5px" font-weight="bold" font-family="'Helvetica Neue', Helvetica, Arial-Unicode, Arial, Sans-serif">from the Noun Project</text></svg>