<svg xmlns="http://www.w3.org/2000/svg" xmlns:xlink="http://www.w3.org/1999/xlink" xmlns:xodm="http://www.corel.com/coreldraw/odm/2003" xml:space="preserve" version="1.1" style="shape-rendering:geometricPrecision;text-rendering:geometricPrecision;image-rendering:optimizeQuality;" viewBox="-0.42333 -0.84666 9.31326 11.42991" x="0px" y="0px" fill-rule="evenodd" clip-rule="evenodd"><defs><style type="text/css">
   
    .fil0 {fill:black;fill-rule:nonzero}
   
  </style></defs><g><path class="fil0" d="M5.116 6.715l0 0.2603c0,0.1175 -0.0481,0.2244 -0.1254,0.3017 -0.0773,0.0773 -0.1842,0.1254 -0.3017,0.1254l-0.9112 0c-0.1175,0 -0.2244,-0.0481 -0.3017,-0.1254l-0.0103 -0.0112c-0.0712,-0.0764 -0.1151,-0.1789 -0.1151,-0.2905l0 -0.2603c0,-0.2156 -0.0438,-0.4155 -0.1289,-0.5943 -0.0855,-0.1796 -0.213,-0.3399 -0.3797,-0.4752 -0.2542,-0.2065 -0.4617,-0.468 -0.6035,-0.7659 -0.137,-0.2877 -0.2138,-0.6095 -0.2138,-0.9488 0,-0.6089 0.2473,-1.161 0.647,-1.561l0.001 -0.0009c0.3999,-0.3996 0.9519,-0.6467 1.5606,-0.6467 0.6089,0 1.161,0.2473 1.561,0.647l0.0009 0.001c0.3996,0.3999 0.6467,0.9519 0.6467,1.5606 0,0.3393 -0.0768,0.6611 -0.2138,0.9488 -0.1418,0.2979 -0.3493,0.5594 -0.6035,0.7659 -0.1667,0.1353 -0.2942,0.2956 -0.3797,0.4752l-0.0042 0.0082c-0.0823,0.1765 -0.1247,0.3737 -0.1247,0.5861zm-1.3159 1.5399c-0.0935,0 -0.1694,-0.0759 -0.1694,-0.1694 0,-0.0935 0.0759,-0.1694 0.1694,-0.1694l0.831 0c0.0935,0 0.1694,0.0759 0.1694,0.1694 0,0.0935 -0.0759,0.1694 -0.1694,0.1694l-0.831 0zm-0.0922 -0.4263c-0.0935,0 -0.1694,-0.0759 -0.1694,-0.1694 0,-0.0935 0.0759,-0.1694 0.1694,-0.1694l1.0154 0c0.0935,0 0.1694,0.0759 0.1694,0.1694 0,0.0935 -0.0759,0.1694 -0.1694,0.1694l-1.0154 0zm0.356 -7.4475c0,-0.0935 0.0759,-0.1694 0.1694,-0.1694 0.0935,0 0.1694,0.0759 0.1694,0.1694l0 1.007c0,0.0935 -0.0759,0.1694 -0.1694,0.1694 -0.0935,0 -0.1694,-0.0759 -0.1694,-0.1694l0 -1.007zm2.5598 0.92c0.0661,-0.0661 0.1733,-0.0661 0.2394,0 0.0661,0.0661 0.0661,0.1733 0,0.2394l-0.7121 0.7121c-0.0661,0.0661 -0.1733,0.0661 -0.2394,0 -0.0661,-0.0661 -0.0661,-0.1733 0,-0.2394l0.7121 -0.7121zm-4.3081 4.308c0.0661,-0.0661 0.1733,-0.0661 0.2394,0 0.0661,0.0661 0.0661,0.1733 0,0.2394l-0.7121 0.7121c-0.0661,0.0661 -0.1733,0.0661 -0.2394,0 -0.0661,-0.0661 -0.0661,-0.1733 0,-0.2394l0.7121 -0.7121zm5.4675 -1.8477c0.0935,0 0.1694,0.0759 0.1694,0.1694 0,0.0935 -0.0759,0.1694 -0.1694,0.1694l-1.007 0c-0.0935,0 -0.1694,-0.0759 -0.1694,-0.1694 0,-0.0935 0.0759,-0.1694 0.1694,-0.1694l1.007 0zm-6.0926 0c0.0935,0 0.1694,0.0759 0.1694,0.1694 0,0.0935 -0.0759,0.1694 -0.1694,0.1694l-1.007 0c-0.0935,0 -0.1694,-0.0759 -0.1694,-0.1694 0,-0.0935 0.0759,-0.1694 0.1694,-0.1694l1.007 0zm-0.087 -2.2209c-0.0661,-0.0661 -0.0661,-0.1733 0,-0.2394 0.0661,-0.0661 0.1733,-0.0661 0.2394,0l0.7121 0.7121c0.0661,0.0661 0.0661,0.1733 0,0.2394 -0.0661,0.0661 -0.1733,0.0661 -0.2394,0l-0.7121 -0.7121zm4.3081 4.308c-0.0661,-0.0661 -0.0661,-0.1733 0,-0.2394 0.0661,-0.0661 0.1733,-0.0661 0.2394,0l0.7121 0.7121c0.0661,0.0661 0.0661,0.1733 0,0.2394 -0.0661,0.0661 -0.1733,0.0661 -0.2394,0l-0.7121 -0.7121zm-2.1126 -3.4288c0.0895,-0.0262 0.1835,0.025 0.2097,0.1145 0.0262,0.0895 -0.025,0.1835 -0.1145,0.2097l-0.0276 0.0082c-0.0895,0.0262 -0.1835,-0.025 -0.2097,-0.1145 -0.0262,-0.0895 0.025,-0.1835 0.1145,-0.2097l0.0276 -0.0082zm-0.4379 0.2026c0.0778,-0.0518 0.183,-0.0308 0.2348,0.047 0.0518,0.0778 0.0308,0.183 -0.047,0.2348 -0.1111,0.0741 -0.2091,0.1651 -0.2898,0.2686 -0.08,0.1028 -0.1444,0.2192 -0.189,0.3453 -0.031,0.088 -0.1276,0.1342 -0.2156,0.1032 -0.088,-0.031 -0.1342,-0.1276 -0.1032,-0.2156 0.0567,-0.16 0.139,-0.3087 0.2418,-0.4407 0.1041,-0.1335 0.2285,-0.2496 0.368,-0.3426zm1.4161 4.353l0 -0.2603c0,-0.262 0.0536,-0.5075 0.1578,-0.7301l0.0043 -0.0098c0.1067,-0.224 0.2651,-0.4234 0.4723,-0.5916 0.2146,-0.1743 0.3903,-0.3961 0.5109,-0.6495 0.1157,-0.243 0.1806,-0.5154 0.1806,-0.8032 0,-0.5168 -0.2091,-0.9844 -0.547,-1.3222 -0.3384,-0.3385 -0.806,-0.5476 -1.3228,-0.5476 -0.5168,0 -0.9844,0.2091 -1.3222,0.547 -0.3385,0.3384 -0.5476,0.806 -0.5476,1.3228 0,0.2878 0.0649,0.5602 0.1806,0.8032 0.1206,0.2534 0.2963,0.4752 0.5109,0.6495 0.2071,0.1681 0.3657,0.3676 0.4723,0.5916 0.107,0.2249 0.1621,0.4737 0.1621,0.7399l0 0.2603c0,0.022 0.0079,0.0422 0.0209,0.0574l0.0051 0.0049c0.0159,0.0159 0.0381,0.026 0.0623,0.026l0.9112 0c0.0242,0 0.0464,-0.0101 0.0623,-0.026 0.0159,-0.0159 0.026,-0.0381 0.026,-0.0623z"/></g><text x="0.0" y="9.948255" font-size="0.42333" font-weight="bold" font-family="Arbeit Regular, Helvetica, Arial-Unicode, Arial, Sans-serif" fill="#000000">Created by Soetarman Atmodjo</text><text x="0.0" y="10.371585" font-size="0.42333" font-weight="bold" font-family="Arbeit Regular, Helvetica, Arial-Unicode, Arial, Sans-serif" fill="#000000">from Noun Project</text></svg>